<svg width="27" height="29" viewBox="0 0 27 29" fill="none" xmlns="http://www.w3.org/2000/svg">
<g id="Group 2534">
<line id="Line 232" x1="4.64682" y1="24.7827" x2="20.7948" y2="5.69749" stroke="#F7F1EC" stroke-width="0.93"/>
<path id="Vector" d="M10.2384 10.0544L11.0671 10.7556C11.1234 10.8033 11.2177 10.7994 11.3185 10.7475C11.3185 10.7475 14.0509 10.2098 15.7746 9.38615C17.8942 8.3733 20.9196 5.76628 20.9196 5.76628C20.9196 5.76628 18.6545 9.07874 18.0648 11.3239C17.4751 13.5691 17.5969 16.0596 17.5969 16.0596C17.5623 16.1676 17.5741 16.2612 17.6305 16.3089L18.4592 17.0101C18.531 17.0708 18.6951 16.962 18.7406 16.8231C18.7406 16.8231 18.4716 13.9399 19.2792 11.4367C20.089 8.92702 22.8658 4.04645 22.8658 4.04645C23.0147 3.58353 22.7252 3.33859 22.2945 3.56311C22.2945 3.56311 18.2645 6.93629 15.4622 8.20715C13.489 9.10201 10.3772 9.7469 10.3772 9.7469C10.2467 9.81381 10.1666 9.99365 10.2384 10.0544Z" fill="#F7F1EC"/>
</g>
</svg>
