<svg width="24" height="25" viewBox="0 0 24 25" fill="none" xmlns="http://www.w3.org/2000/svg">
<g id="Badge-Obat/007-stethoscope" clip-path="url(#clip0_1_256)">
<g id="Group">
<g id="Group_2">
<path id="Vector" d="M17.5015 1.64282H14.9234V3.23751H16.7041V6.79898C16.7041 9.48098 14.5221 11.6628 11.8403 11.6628H11.4683C8.78625 11.6628 6.60445 9.4807 6.60445 6.79898V3.23751H8.38519V1.64282H5.80711C5.36672 1.64282 5.00977 1.99978 5.00977 2.44017V6.79898C5.00977 10.3602 7.90706 13.2575 11.4683 13.2575H11.8403C15.4015 13.2575 18.2988 10.3602 18.2988 6.79898V2.44017C18.2988 1.99978 17.9419 1.64282 17.5015 1.64282Z" fill="white"/>
</g>
</g>
<g id="Group_3">
<g id="Group_4">
<path id="Vector_2" d="M14.8437 0.5C14.4033 0.5 14.0464 0.856953 14.0464 1.29734V3.52991C14.0464 3.9703 14.4033 4.32725 14.8437 4.32725C15.2841 4.32725 15.6411 3.9703 15.6411 3.52991V1.29734C15.6411 0.856953 15.2841 0.5 14.8437 0.5Z" fill="white"/>
</g>
</g>
<g id="Group_5">
<g id="Group_6">
<path id="Vector_3" d="M8.5449 0.5C8.10451 0.5 7.74756 0.856953 7.74756 1.29734V3.52991C7.74756 3.9703 8.10451 4.32725 8.5449 4.32725C8.98529 4.32725 9.34224 3.9703 9.34224 3.52991V1.29734C9.34224 0.856953 8.98529 0.5 8.5449 0.5Z" fill="white"/>
</g>
</g>
<g id="Group_7">
<g id="Group_8">
<path id="Vector_4" d="M12.505 16.9521V12.4338H10.9103V16.9521H8.3322C6.25114 16.9521 4.55811 18.6451 4.55811 20.7259C4.55811 22.807 6.26309 24.5 8.35878 24.5H8.73087C10.8119 24.5 12.505 22.807 12.505 20.7259V18.5468H15.2159V16.9521H12.505ZM10.9103 20.7256C10.9103 21.9272 9.93246 22.9051 8.73087 22.9051H8.35878C7.12184 22.9051 6.15279 21.948 6.15279 20.7256C6.15279 19.5241 7.13061 18.5465 8.3322 18.5465H10.9103V20.7256Z" fill="white"/>
</g>
</g>
<g id="Group_9">
<g id="Group_10">
<path id="Vector_5" d="M16.9434 15.2512C15.5661 15.2512 14.4453 16.3718 14.4453 17.7496C14.4453 19.1268 15.5659 20.2476 16.9434 20.2476C18.3209 20.2476 19.4417 19.1268 19.4417 17.7496C19.4417 16.372 18.3212 15.2512 16.9434 15.2512ZM16.9434 18.6527C16.4453 18.6527 16.04 18.2474 16.04 17.7493C16.04 17.251 16.4453 16.8457 16.9434 16.8457C17.4417 16.8457 17.847 17.251 17.847 17.7493C17.847 18.2474 17.4417 18.6527 16.9434 18.6527Z" fill="white"/>
</g>
</g>
</g>
<defs>
<clipPath id="clip0_1_256">
<rect width="24" height="24" fill="white" transform="translate(0 0.5)"/>
</clipPath>
</defs>
</svg>
