<svg width="40" height="40" viewBox="0 0 40 40" fill="none" xmlns="http://www.w3.org/2000/svg">
<g id="012-medicine">
<g id="Group">
<g id="Group_2">
<path id="Vector" d="M29.2903 0H10.7548C9.99645 0 9.38184 0.614609 9.38184 1.37297V8.10063C9.38184 8.85898 9.99645 9.47359 10.7548 9.47359H29.2903C30.0486 9.47359 30.6632 8.85898 30.6632 8.10063V1.37297C30.6632 0.614609 30.0486 0 29.2903 0ZM27.9173 6.72766H12.1278V2.74602H27.9172V6.72766H27.9173Z" fill="#855FCE"/>
</g>
</g>
<g id="Group_3">
<g id="Group_4">
<path id="Vector_2" d="M27.3222 8.14667H24.5762V14.4624H27.3222V8.14667Z" fill="#855FCE"/>
</g>
</g>
<g id="Group_5">
<g id="Group_6">
<path id="Vector_3" d="M15.4237 8.14667H12.6777V14.4624H15.4237V8.14667Z" fill="#855FCE"/>
</g>
</g>
<g id="Group_7">
<g id="Group_8">
<path id="Vector_4" d="M29.977 13.0892H10.0227C8.76094 13.0892 7.73438 14.1157 7.73438 15.3775V37.7116C7.73438 38.9734 8.76094 40 10.0227 40H29.977C31.2388 40 32.2653 38.9734 32.2653 37.7116V15.3775C32.2653 14.1157 31.2388 13.0892 29.977 13.0892ZM29.5193 37.2539H10.4804V15.8352H29.5193V37.2539Z" fill="#855FCE"/>
</g>
</g>
<g id="Group_9">
<g id="Group_10">
<path id="Vector_5" d="M19.9999 20.2745C19.2416 20.2745 18.627 20.8891 18.627 21.6475V31.4416C18.627 32.1999 19.2416 32.8145 19.9999 32.8145C20.7583 32.8145 21.3729 32.1999 21.3729 31.4416V21.6475C21.3729 20.8891 20.7583 20.2745 19.9999 20.2745Z" fill="#855FCE"/>
</g>
</g>
<g id="Group_11">
<g id="Group_12">
<path id="Vector_6" d="M24.8975 25.1716H15.1034C14.3451 25.1716 13.7305 25.7862 13.7305 26.5446C13.7305 27.303 14.3451 27.9176 15.1034 27.9176H24.8975C25.6563 27.9176 26.2705 27.303 26.2705 26.5446C26.2705 25.7862 25.6558 25.1716 24.8975 25.1716Z" fill="#855FCE"/>
</g>
</g>
</g>
</svg>
