<svg width="21" height="21" viewBox="0 0 21 21" fill="none" xmlns="http://www.w3.org/2000/svg">
<g id="013-care-2" clip-path="url(#clip0_1_488)">
<g id="Group">
<g id="Group_2">
<path id="Vector" d="M19.6489 12.8553C19.6314 12.8319 19.6126 12.8102 19.5924 12.7893C19.011 12.0623 17.96 11.9163 17.2271 12.4664C16.1709 13.2449 14.3638 14.5548 13.7607 14.992L11.126 14.7855L12.738 14.4326C13.6015 14.307 14.2205 13.5451 14.1831 12.6458C14.1829 12.6362 14.1822 12.6267 14.1813 12.6174C14.1065 11.7188 13.3763 11.0412 12.4831 11.0412H7.60785C7.21172 11.0412 6.84211 11.1426 6.50922 11.3424C6.49586 11.3505 6.4827 11.3589 6.46977 11.368L1.27703 14.9961C0.969101 15.2113 0.893827 15.6356 1.10898 15.9433C1.32394 16.2514 1.74844 16.3269 2.05613 16.1113L7.22711 12.4984C7.3423 12.4333 7.46703 12.4013 7.60805 12.4013H12.4833C12.6643 12.4013 12.8026 12.5301 12.8244 12.716C12.826 12.8797 12.7378 13.0616 12.535 13.087C12.5146 13.0895 12.4942 13.0929 12.474 13.0974L9.57152 13.7323C9.345 13.782 9.1593 13.9434 9.07879 14.1609C8.99828 14.3786 9.0341 14.6221 9.17402 14.8071L9.945 15.8275C10.0622 15.9828 10.2405 16.0806 10.4346 16.0958L13.9039 16.3679C14.0645 16.3794 14.2253 16.3352 14.3559 16.2407C14.3796 16.2234 16.7541 14.5048 18.0386 13.5581C18.1854 13.4482 18.4187 13.4899 18.5373 13.6486C18.5504 13.6661 18.5645 13.683 18.5792 13.6989C18.6706 13.8484 18.6357 14.04 18.4908 14.1486L13.8893 17.617C13.7539 17.7183 13.6129 17.7569 13.4516 17.7355L6.73957 16.8966C6.55637 16.8737 6.37223 16.9261 6.22848 17.0417L3.66613 19.1054C3.3734 19.3412 3.32734 19.7696 3.56297 20.0621C3.69723 20.2289 3.89426 20.3156 4.09312 20.3156C4.24301 20.3156 4.39379 20.2664 4.51922 20.1655L6.85687 18.2827L13.2771 19.0852C13.7891 19.1534 14.2825 19.0221 14.7063 18.7047L19.3086 15.2364C20.0589 14.6736 20.2115 13.6056 19.6489 12.8553Z" fill="white"/>
</g>
</g>
<g id="Group_3">
<g id="Group_4">
<path id="Vector_2" d="M13.5938 2.67397C13.2181 2.67397 12.9136 2.9785 12.9136 3.35424V7.43588C12.9136 7.81162 13.2181 8.11615 13.5938 8.11615C13.9696 8.11615 14.2741 7.81162 14.2741 7.43588V3.35424C14.2741 2.9785 13.9696 2.67397 13.5938 2.67397Z" fill="white"/>
</g>
</g>
<g id="Group_5">
<g id="Group_6">
<path id="Vector_3" d="M15.6345 4.71458H11.5528C11.1771 4.71458 10.8726 5.01912 10.8726 5.39486C10.8726 5.7706 11.1771 6.07513 11.5528 6.07513H15.6345C16.0102 6.07513 16.3147 5.7706 16.3147 5.39486C16.3147 5.01912 16.0102 4.71458 15.6345 4.71458Z" fill="white"/>
</g>
</g>
<g id="Group_7">
<g id="Group_8">
<path id="Vector_4" d="M13.5938 0.315613C10.7929 0.315613 8.51465 2.59409 8.51465 5.39499C8.51465 8.19589 10.7929 10.4744 13.5938 10.4744C16.3945 10.4744 18.6732 8.19593 18.6732 5.39499C18.6732 2.59405 16.3947 0.315613 13.5938 0.315613ZM13.5938 9.11382C11.5432 9.11382 9.8752 7.44557 9.8752 5.39499C9.8752 3.3444 11.5432 1.67616 13.5938 1.67616C15.6443 1.67616 17.3126 3.3444 17.3126 5.39499C17.3126 7.44557 15.6444 9.11382 13.5938 9.11382Z" fill="white"/>
</g>
</g>
</g>
<defs>
<clipPath id="clip0_1_488">
<rect width="20" height="20" fill="white" transform="translate(0.487305 0.315613)"/>
</clipPath>
</defs>
</svg>
