<svg width="40" height="40" viewBox="0 0 40 40" fill="none" xmlns="http://www.w3.org/2000/svg">
<g id="017-heart">
<g id="Group">
<g id="Group_2">
<path id="Vector" d="M36.4833 5.5688C34.4659 3.52935 31.7406 2.40185 28.8095 2.39357C25.7925 2.38349 22.7691 3.52662 20.3466 5.55873C17.5916 3.13255 15.0994 1.94958 12.7526 1.94958C9.47508 1.94958 6.43422 3.24044 4.21086 5.5638C2.53977 7.2349 1.39477 9.42896 0.898437 11.9092C0.749843 12.6546 1.23281 13.3794 1.97828 13.5285C2.72281 13.6762 3.44844 13.1941 3.59758 12.4486C3.98656 10.5033 4.87141 8.79544 6.17789 7.48857C7.89805 5.6913 10.2334 4.70185 12.7527 4.70185C14.5779 4.70185 16.7889 5.93169 19.3009 8.33302C19.5825 8.61607 19.9527 8.77248 20.3431 8.77294C20.3435 8.77294 20.3445 8.77294 20.3448 8.77294C20.7343 8.77294 21.1045 8.61748 21.3866 8.33537C23.4145 6.3074 26.1072 5.14591 28.777 5.14591C28.7857 5.14591 28.7939 5.14591 28.8022 5.14591C31.027 5.15185 33.0068 5.96794 34.5113 7.48857C36.2765 9.33216 37.2485 11.7469 37.2485 14.289C37.2485 16.8331 36.2545 19.3079 34.549 21.0519L20.3672 34.761L9.1218 23.8958C8.57547 23.3679 7.70438 23.3839 7.17594 23.9289C6.64797 24.4757 6.66313 25.3468 7.20945 25.8747L19.4113 37.6637C19.6777 37.9215 20.0227 38.0504 20.3672 38.0504C20.7116 38.0504 21.0566 37.9215 21.3236 37.6642L36.4888 23.0037C38.7204 20.7225 40.0002 17.5463 40.0002 14.289C40.0002 11.0344 38.7566 7.9431 36.4833 5.5688Z" fill="#27AE60"/>
</g>
</g>
<g id="Group_3">
<g id="Group_4">
<path id="Vector_2" d="M37.523 17.4542H26.422C26.0431 17.4542 25.6816 17.6097 25.422 17.885L21.2491 22.2974L16.4427 11.3946C16.2362 10.9263 15.7867 10.6111 15.2762 10.5767C14.7684 10.5442 14.278 10.7942 14.0105 11.2304L10.1931 17.4542H1.37617C0.616016 17.4542 0 18.0703 0 18.8304C0 19.5906 0.616016 20.2066 1.37617 20.2066H10.9629C11.4413 20.2066 11.8859 19.958 12.1359 19.5497L14.9836 14.9075L19.5666 25.3029C19.7524 25.725 20.1373 26.0254 20.5914 26.1039C20.6694 26.1171 20.7478 26.124 20.8258 26.124C21.201 26.124 21.5638 25.9708 21.8258 25.6937L27.0148 20.2065H37.523C38.2831 20.2065 38.8992 19.5904 38.8992 18.8303C38.8991 18.0703 38.283 17.4542 37.523 17.4542Z" fill="#27AE60"/>
</g>
</g>
</g>
</svg>
