<svg width="48" height="48" viewBox="0 0 48 48" fill="none" xmlns="http://www.w3.org/2000/svg">
<g id="bx:clinic">
<path id="Vector" d="M25.4141 4.58597C25.2285 4.40008 25.0081 4.25261 24.7654 4.15199C24.5228 4.05136 24.2627 3.99957 24.0001 3.99957C23.7374 3.99957 23.4773 4.05136 23.2347 4.15199C22.992 4.25261 22.7716 4.40008 22.5861 4.58597L4.58606 22.586C4.30644 22.8657 4.11603 23.222 4.0389 23.6099C3.96176 23.9978 4.00137 24.3999 4.15271 24.7653C4.30405 25.1307 4.56033 25.443 4.88915 25.6628C5.21796 25.8825 5.60456 25.9999 6.00006 26H8.00006V40C8.00006 42.206 9.79406 44 12.0001 44H36.0001C38.2061 44 40.0001 42.206 40.0001 40V26H42.0001C42.396 26.0009 42.7833 25.8841 43.1127 25.6645C43.4421 25.4449 43.6989 25.1323 43.8504 24.7665C44.0019 24.4007 44.0413 23.9982 43.9636 23.6099C43.8859 23.2217 43.6947 22.8653 43.4141 22.586L25.4141 4.58597ZM36.0021 40H12.0001V20.828L24.0001 8.82798L36.0001 20.828V30L36.0021 40Z" fill="#4464DD"/>
<path id="Vector_2" d="M26 20H22V26H16V30H22V36H26V30H32V26H26V20Z" fill="#4464DD"/>
</g>
</svg>
