<svg width="48" height="48" viewBox="0 0 48 48" fill="none" xmlns="http://www.w3.org/2000/svg">
<g id="arcticons:health-sync">
<path id="Vector" d="M14.9802 41.875C10.8326 39.8404 7.49458 36.4636 5.50808 32.2927C3.52157 28.1219 3.00328 23.402 4.03734 18.8995C5.07141 14.397 7.59712 10.3762 11.2044 7.49002C14.8116 4.60387 19.2885 3.02182 23.9082 3.00076C28.5279 2.97971 33.0191 4.52088 36.6525 7.37403C40.2859 10.2272 42.8482 14.2248 43.9232 18.7177C44.9983 23.2106 44.523 27.935 42.5746 32.1238C40.6262 36.3126 37.3191 39.7197 33.1902 41.792" stroke="#4464DD" stroke-linecap="round" stroke-linejoin="round"/>
<path id="Vector_2" d="M31.8162 38.606L29.8262 42.97L34.0702 45" stroke="#4464DD" stroke-linecap="round" stroke-linejoin="round"/>
<path id="Vector_3" d="M25.3111 14.409C26.5316 14.409 27.5211 13.4196 27.5211 12.199C27.5211 10.9785 26.5316 9.98901 25.3111 9.98901C24.0905 9.98901 23.1011 10.9785 23.1011 12.199C23.1011 13.4196 24.0905 14.409 25.3111 14.409Z" stroke="#4464DD" stroke-linecap="round" stroke-linejoin="round"/>
<path id="Vector_4" d="M19.7032 30.222L16.7842 33.777C15.3862 35.395 17.4042 36.814 18.8842 35.414L21.7432 31.812L22.6812 28.292L24.1902 29.8L25.1962 35.007C25.8612 36.456 28.0242 36.377 27.9532 34.513L26.4632 28.949L24.3262 25.249L25.5232 20.784L26.8582 21.142C26.8391 21.2945 26.8657 21.4493 26.9345 21.5867C27.0034 21.7241 27.1115 21.838 27.2452 21.914C27.7102 22.162 31.0532 23.186 31.0532 23.186C33.1562 23.832 33.3932 21.715 31.6932 21.222L28.9102 20.475L27.5322 18.181L25.2932 16.175L21.8702 16.095L17.0322 19.016L15.2352 23.818C14.8382 25.16 16.7622 25.509 17.2942 24.466C17.5522 24.008 18.8522 20.914 18.8522 20.914L21.6762 19.512L20.2952 25.846L19.7032 30.222Z" stroke="#4464DD" stroke-linecap="round" stroke-linejoin="round"/>
</g>
</svg>
