<svg width="48" height="48" viewBox="0 0 48 48" fill="none" xmlns="http://www.w3.org/2000/svg">
<g id="healthicons:health-data-security">
<path id="Vector" fill-rule="evenodd" clip-rule="evenodd" d="M17 7C17 6.20435 17.3161 5.44129 17.8787 4.87868C18.4413 4.31607 19.2044 4 20 4H28C28.7956 4 29.5587 4.31607 30.1213 4.87868C30.6839 5.44129 31 6.20435 31 7H34C34.7956 7 35.5587 7.31607 36.1213 7.87868C36.6839 8.44129 37 9.20435 37 10V25H35V10C35 9.73478 34.8946 9.48043 34.7071 9.29289C34.5196 9.10536 34.2652 9 34 9H31C31 9.79565 30.6839 10.5587 30.1213 11.1213C29.5587 11.6839 28.7956 12 28 12H20C19.2044 12 18.4413 11.6839 17.8787 11.1213C17.3161 10.5587 17 9.79565 17 9H14C13.7348 9 13.4804 9.10536 13.2929 9.29289C13.1054 9.48043 13 9.73478 13 10V38C13 38.2652 13.1054 38.5196 13.2929 38.7071C13.4804 38.8946 13.7348 39 14 39H26V41H14C13.2044 41 12.4413 40.6839 11.8787 40.1213C11.3161 39.5587 11 38.7957 11 38V10C11 9.20435 11.3161 8.44129 11.8787 7.87868C12.4413 7.31607 13.2044 7 14 7H17ZM20 6C19.7348 6 19.4804 6.10536 19.2929 6.29289C19.1054 6.48043 19 6.73478 19 7V9C19 9.26522 19.1054 9.51957 19.2929 9.70711C19.4804 9.89464 19.7348 10 20 10H28C28.2652 10 28.5196 9.89464 28.7071 9.70711C28.8946 9.51957 29 9.26522 29 9V7C29 6.73478 28.8946 6.48043 28.7071 6.29289C28.5196 6.10536 28.2652 6 28 6H20ZM23 16V19H20V21H23V24H25V21H28V19H25V16H23ZM28 27C27.7348 27 27.4804 27.1054 27.2929 27.2929C27.1054 27.4804 27 27.7348 27 28V34.789C27 35.9413 27.2846 37.0758 27.8283 38.0918C28.3721 39.1078 29.1582 39.9738 30.117 40.613L33.445 42.833C33.6093 42.9426 33.8025 43.0011 34 43.0011C34.1975 43.0011 34.3907 42.9426 34.555 42.833L37.883 40.613C38.8416 39.9739 39.6277 39.108 40.1714 38.0922C40.7152 37.0765 40.9998 35.9422 41 34.79V28C41 27.7348 40.8946 27.4804 40.7071 27.2929C40.5196 27.1054 40.2652 27 40 27H28ZM37.707 32.707L33.707 36.707C33.5195 36.8945 33.2652 36.9998 33 36.9998C32.7348 36.9998 32.4805 36.8945 32.293 36.707L30.293 34.707L31.707 33.293L33 34.586L36.293 31.293L37.707 32.707Z" fill="#4464DD"/>
</g>
</svg>
