<svg width="220" height="220" viewBox="0 0 220 220" fill="none" xmlns="http://www.w3.org/2000/svg">
  <circle id="Ellipse 15" cx="110" cy="110" r="110" fill="url(#paint0_linear_280_315)"/>
  <defs>
    <linearGradient id="paint0_linear_280_315" x1="-17.1257" y1="-86.2745" x2="482.885" y2="-32.479" gradientUnits="userSpaceOnUse">
      <stop stop-color="#3A8EF6"/>
      <stop offset="1" stop-color="#6F3AFA"/>
    </linearGradient>
  </defs>
  <g id="Vector" transform="translate(71.5, 73.5)">
    <path d="M60.2578 39.6545V67.2353H16.7432V39.0882H11.8902V69.6617C11.8902 71.002 12.9765 72.0881 14.3166 72.0881H62.6843C64.0246 72.0881 65.1107 71.0019 65.1107 69.6617V39.6545H60.2578Z" fill="white"/>
    <path d="M76.9924 35.0932C76.939 34.4252 76.6115 33.8087 76.0873 33.3906L40.0137 4.59637C39.1273 3.88938 37.8711 3.88938 36.9864 4.59637L0.912758 33.3906C0.388647 33.8087 0.0610958 34.4252 0.0077071 35.0932C-0.0456816 35.7612 0.180055 36.422 0.630475 36.9179L7.82907 44.8444C8.30626 45.3701 8.96467 45.6395 9.62624 45.6395C10.1592 45.6395 10.6963 45.464 11.142 45.1073L38.5005 23.1898L65.8573 45.1073C66.8595 45.9064 68.3097 45.7947 69.171 44.8444L76.3696 36.9179C76.8209 36.422 77.0458 35.7612 76.9924 35.0932ZM67.1119 39.8928L40.017 18.1872C39.5746 17.8321 39.0375 17.6542 38.5005 17.6542C37.9635 17.6542 37.4264 17.8321 36.9832 18.1872L9.88747 39.8928L5.96152 35.5695L38.5005 9.59656L71.0387 35.5695L67.1119 39.8928Z" fill="white"/>
    <path d="M60.9857 0.91217H51.4408C50.1005 0.91217 49.0144 1.99844 49.0144 3.33857V17.0886H53.8673V5.76498H58.5593V24.3678H63.4123V3.33857C63.4123 1.99829 62.326 0.91217 60.9857 0.91217Z" fill="white"/>
    <path d="M38.5005 39.6542C37.1602 39.6542 36.0741 40.7405 36.0741 42.0806V58.4189C36.0741 59.7592 37.1603 60.8453 38.5005 60.8453C39.8406 60.8453 40.9261 59.759 40.9269 58.4189V42.0806C40.9269 40.7405 39.8406 39.6542 38.5005 39.6542Z" fill="white"/>
    <path d="M46.6696 47.8232H30.3314C28.9911 47.8232 27.905 48.9095 27.905 50.2496C27.905 51.5899 28.9913 52.676 30.3314 52.676H46.6697C48.01 52.676 49.0961 51.5897 49.0961 50.2496C49.0961 48.9095 48.0098 47.8232 46.6696 47.8232Z" fill="white"/>
  </g>
</svg>