<svg width="17" height="16" viewBox="0 0 17 16" fill="none" xmlns="http://www.w3.org/2000/svg">
<path id="IG Icon" fill-rule="evenodd" clip-rule="evenodd" d="M5.32291 0.048C6.176 0.00872726 6.448 0 8.62109 0C10.7942 0 11.0662 0.00945454 11.9185 0.048C12.7709 0.0865454 13.3527 0.222545 13.8618 0.419636C14.3949 0.621091 14.8785 0.936 15.2785 1.34327C15.6858 1.74255 16 2.22545 16.2007 2.75927C16.3985 3.26836 16.5338 3.85018 16.5731 4.70109C16.6124 5.55564 16.6211 5.82764 16.6211 8C16.6211 10.1731 16.6116 10.4451 16.5731 11.2982C16.5345 12.1491 16.3985 12.7309 16.2007 13.24C16 13.7739 15.6853 14.2576 15.2785 14.6575C14.8785 15.0647 14.3949 15.3789 13.8618 15.5796C13.3527 15.7775 12.7709 15.9127 11.92 15.952C11.0662 15.9913 10.7942 16 8.62109 16C6.448 16 6.176 15.9905 5.32291 15.952C4.472 15.9135 3.89018 15.7775 3.38109 15.5796C2.84722 15.3789 2.36351 15.0642 1.96364 14.6575C1.55664 14.2579 1.24169 13.7745 1.04073 13.2407C0.843639 12.7316 0.708366 12.1498 0.669094 11.2989C0.629821 10.4444 0.621094 10.1724 0.621094 8C0.621094 5.82691 0.630548 5.55491 0.669094 4.70255C0.707639 3.85018 0.843639 3.26836 1.04073 2.75927C1.24198 2.22551 1.55718 1.74205 1.96437 1.34255C2.36367 0.935637 2.84689 0.620686 3.38037 0.419636C3.88946 0.222545 4.47128 0.0872727 5.32219 0.048H5.32291ZM11.8538 1.488C11.0102 1.44945 10.7571 1.44145 8.62109 1.44145C6.48509 1.44145 6.232 1.44945 5.38837 1.488C4.608 1.52364 4.18473 1.65382 3.90255 1.76364C3.52946 1.90909 3.26255 2.08145 2.98255 2.36145C2.71713 2.61967 2.51286 2.93402 2.38473 3.28145C2.27491 3.56364 2.14473 3.98691 2.10909 4.76727C2.07055 5.61091 2.06255 5.864 2.06255 8C2.06255 10.136 2.07055 10.3891 2.10909 11.2327C2.14473 12.0131 2.27491 12.4364 2.38473 12.7185C2.51273 13.0655 2.71709 13.3804 2.98255 13.6385C3.24073 13.904 3.55564 14.1084 3.90255 14.2364C4.18473 14.3462 4.608 14.4764 5.38837 14.512C6.232 14.5505 6.48437 14.5585 8.62109 14.5585C10.7578 14.5585 11.0102 14.5505 11.8538 14.512C12.6342 14.4764 13.0575 14.3462 13.3396 14.2364C13.7127 14.0909 13.9796 13.9185 14.2596 13.6385C14.5251 13.3804 14.7295 13.0655 14.8575 12.7185C14.9673 12.4364 15.0975 12.0131 15.1331 11.2327C15.1716 10.3891 15.1796 10.136 15.1796 8C15.1796 5.864 15.1716 5.61091 15.1331 4.76727C15.0975 3.98691 14.9673 3.56364 14.8575 3.28145C14.712 2.90836 14.5396 2.64145 14.2596 2.36145C14.0014 2.09605 13.6871 1.89179 13.3396 1.76364C13.0575 1.65382 12.6342 1.52364 11.8538 1.488ZM7.59928 10.4662C8.16994 10.7037 8.80537 10.7358 9.39704 10.5569C9.98872 10.378 10.4999 9.99921 10.8434 9.48527C11.1868 8.97132 11.3411 8.35409 11.28 7.73899C11.2189 7.12388 10.9462 6.54907 10.5084 6.11273C10.2293 5.8338 9.89179 5.62023 9.52025 5.48738C9.1487 5.35453 8.75231 5.30572 8.35964 5.34445C7.96696 5.38318 7.58775 5.50849 7.24931 5.71137C6.91088 5.91424 6.62163 6.18963 6.4024 6.51771C6.18318 6.84579 6.03941 7.21839 5.98147 7.6087C5.92352 7.99901 5.95284 8.3973 6.0673 8.77492C6.18177 9.15254 6.37853 9.50008 6.64344 9.79253C6.90834 10.085 7.23478 10.315 7.59928 10.4662ZM5.71346 5.09236C6.09529 4.71053 6.5486 4.40764 7.04749 4.20099C7.54639 3.99434 8.0811 3.88798 8.62109 3.88798C9.16109 3.88798 9.6958 3.99434 10.1947 4.20099C10.6936 4.40764 11.1469 4.71053 11.5287 5.09236C11.9106 5.4742 12.2135 5.92751 12.4201 6.4264C12.6268 6.92529 12.7331 7.46 12.7331 8C12.7331 8.54 12.6268 9.07471 12.4201 9.5736C12.2135 10.0725 11.9106 10.5258 11.5287 10.9076C10.7576 11.6788 9.71167 12.112 8.62109 12.112C7.53052 12.112 6.48461 11.6788 5.71346 10.9076C4.9423 10.1365 4.50908 9.09058 4.50908 8C4.50908 6.90942 4.9423 5.86352 5.71346 5.09236ZM13.6451 4.50036C13.7397 4.41111 13.8155 4.30377 13.8679 4.18471C13.9203 4.06565 13.9482 3.93729 13.9501 3.80722C13.952 3.67716 13.9278 3.54803 13.8789 3.4275C13.83 3.30696 13.7574 3.19746 13.6654 3.10548C13.5735 3.0135 13.464 2.94091 13.3434 2.89201C13.2229 2.84311 13.0938 2.81889 12.9637 2.82079C12.8336 2.82268 12.7053 2.85066 12.5862 2.90305C12.4671 2.95545 12.3598 3.0312 12.2705 3.12582C12.097 3.30984 12.0019 3.55427 12.0056 3.80722C12.0093 4.06017 12.1114 4.30173 12.2903 4.48061C12.4692 4.6595 12.7107 4.76162 12.9637 4.76531C13.2166 4.769 13.4611 4.67396 13.6451 4.50036Z" fill="white"/>
</svg>
