<svg width="17" height="16" viewBox="0 0 17 16" fill="none" xmlns="http://www.w3.org/2000/svg">
<path id="LinkedIn Icon" fill-rule="evenodd" clip-rule="evenodd" d="M0.621094 1.33673C0.621094 0.982207 0.761927 0.642205 1.01261 0.39152C1.2633 0.140835 1.6033 1.78205e-06 1.95782 1.78205e-06H15.2829C15.4586 -0.000285165 15.6326 0.0340839 15.795 0.101141C15.9574 0.168198 16.105 0.266627 16.2293 0.390792C16.3536 0.514956 16.4522 0.662419 16.5194 0.824736C16.5866 0.987054 16.6212 1.16104 16.6211 1.33673V14.6618C16.6213 14.8375 16.5868 15.0116 16.5197 15.174C16.4526 15.3364 16.3541 15.4839 16.2298 15.6082C16.1056 15.7325 15.9581 15.8311 15.7957 15.8983C15.6334 15.9655 15.4594 16.0001 15.2836 16H1.95782C1.78222 16 1.60834 15.9654 1.44611 15.8982C1.28388 15.831 1.13649 15.7324 1.01236 15.6082C0.888219 15.484 0.789772 15.3366 0.722637 15.1743C0.655503 15.012 0.620998 14.8381 0.621094 14.6625V1.33673ZM6.95418 6.10037H9.12073V7.18836C9.43346 6.56291 10.2335 6 11.4356 6C13.7404 6 14.2865 7.24582 14.2865 9.53164V13.7658H11.9542V10.0524C11.9542 8.75055 11.6415 8.016 10.8473 8.016C9.74546 8.016 9.28728 8.808 9.28728 10.0524V13.7658H6.95418V6.10037ZM2.95418 13.6662H5.28728V6H2.95418V13.6655V13.6662ZM5.62109 3.49964C5.62549 3.6994 5.58995 3.89803 5.51654 4.08387C5.44314 4.2697 5.33335 4.43901 5.19363 4.58184C5.0539 4.72468 4.88706 4.83816 4.70288 4.91564C4.5187 4.99312 4.3209 5.03303 4.12109 5.03303C3.92128 5.03303 3.72349 4.99312 3.53931 4.91564C3.35513 4.83816 3.18829 4.72468 3.04856 4.58184C2.90884 4.43901 2.79905 4.2697 2.72565 4.08387C2.65224 3.89803 2.61669 3.6994 2.62109 3.49964C2.62973 3.10753 2.79156 2.7344 3.07192 2.46014C3.35228 2.18588 3.72889 2.03231 4.12109 2.03231C4.51329 2.03231 4.8899 2.18588 5.17027 2.46014C5.45063 2.7344 5.61246 3.10753 5.62109 3.49964Z" fill="white"/>
</svg>
