<svg width="20" height="16" viewBox="0 0 20 16" fill="none" xmlns="http://www.w3.org/2000/svg">
<path id="Tw_Icon" d="M19.6209 1.89789C18.9148 2.21861 18.1563 2.43531 17.3589 2.53326C18.1817 2.0286 18.7972 1.23432 19.0907 0.298631C18.3177 0.769299 17.4717 1.1006 16.5895 1.27812C15.9962 0.628768 15.2103 0.198364 14.354 0.0537355C13.4976 -0.0908933 12.6186 0.0583448 11.8535 0.47828C11.0884 0.898215 10.4799 1.56535 10.1225 2.37611C9.76513 3.18688 9.67889 4.0959 9.87715 4.96206C8.31085 4.88144 6.77859 4.46412 5.37981 3.73718C3.98103 3.01023 2.74699 1.98991 1.75778 0.742437C1.41954 1.34053 1.22506 2.03398 1.22506 2.7725C1.22468 3.43734 1.38439 4.09199 1.69003 4.67838C1.99566 5.26477 2.43777 5.76476 2.97712 6.13398C2.35162 6.11358 1.73991 5.94032 1.19292 5.62863V5.68064C1.19286 6.6131 1.50751 7.51687 2.08349 8.23859C2.65946 8.96031 3.46128 9.45553 4.3529 9.64022C3.77264 9.8012 3.16428 9.82491 2.57377 9.70957C2.82534 10.5119 3.31535 11.2135 3.97523 11.7162C4.63511 12.2188 5.4318 12.4974 6.25379 12.5128C4.85842 13.6357 3.13515 14.2448 1.3612 14.2421C1.04696 14.2422 0.732986 14.2234 0.420898 14.1858C2.22157 15.3726 4.31767 16.0024 6.45842 16C13.7051 16 17.6667 9.84739 17.6667 4.51132C17.6667 4.33796 17.6625 4.16286 17.6549 3.9895C18.4255 3.41825 19.0906 2.71087 19.6192 1.90049L19.6209 1.89789Z" fill="white"/>
</svg>
