<svg width="70" height="80" viewBox="0 0 70 80" fill="none" xmlns="http://www.w3.org/2000/svg">
<g id="Gold Star03">
<path d="M34.9441 45.0783C34.5029 45.0783 34.0617 45.0198 33.6263 44.9026C32.3202 44.5512 31.2273 43.7106 30.5524 42.5362C29.1557 40.1113 29.9884 37.001 32.4049 35.6011C34.8243 34.2041 37.9275 35.0359 39.3242 37.4579C40.7209 39.8829 39.8881 42.9931 37.4716 44.393C36.6915 44.844 35.8236 45.0754 34.947 45.0754L34.9441 45.0783ZM34.9324 37.4667C34.5029 37.4667 34.0704 37.575 33.673 37.8064C32.4663 38.5064 32.0513 40.0586 32.7468 41.2681C33.0857 41.8539 33.6292 42.2727 34.2808 42.4484C34.9324 42.6241 35.6132 42.5333 36.2006 42.1965C37.4073 41.4966 37.8223 39.9444 37.1268 38.7348C36.6593 37.9236 35.8061 37.4696 34.9324 37.4696V37.4667Z" fill="#C29D51"/>
<path d="M31.3238 35.0007C31.201 35.0007 31.0783 34.9832 30.9556 34.9451L25.9561 33.431C25.5441 33.305 25.2227 32.9799 25.1058 32.567L20.977 18.234C20.8163 17.6717 21.0559 17.0713 21.5614 16.7814C22.0669 16.4885 22.7039 16.5793 23.1101 17.001L33.4305 27.7522C33.7286 28.0627 33.8484 28.5049 33.7519 28.9237L32.5598 34.0226C32.4809 34.3652 32.2617 34.6581 31.9578 34.8338C31.7621 34.9451 31.5429 35.0037 31.3238 35.0037V35.0007ZM27.3499 31.1964L30.3975 32.1189L31.1222 29.0116L24.834 22.463L27.3499 31.1964Z" fill="#C29D51"/>
<path d="M23.9019 44.8558C23.7997 44.8558 23.6974 44.844 23.598 44.8177L9.14883 41.2359C8.58197 41.0953 8.18458 40.5857 8.18458 40.0029C8.18458 39.4201 8.58197 38.9105 9.14883 38.77L23.598 35.1882C24.0159 35.0827 24.4571 35.1999 24.7698 35.4957L28.58 39.0775C28.8342 39.3176 28.9803 39.6544 28.9803 40.0059C28.9803 40.3573 28.8342 40.6941 28.58 40.9343L24.7698 44.516C24.5331 44.7386 24.2204 44.8616 23.9019 44.8616V44.8558ZM14.7357 40L23.5396 42.1819L25.8597 40L23.5396 37.8181L14.7357 40Z" fill="#C29D51"/>
<path d="M22.1955 63.3914C21.9793 63.3914 21.7601 63.3358 21.5614 63.2216C21.0559 62.9287 20.8163 62.3283 20.977 61.7689L25.1058 47.4359C25.2256 47.023 25.5441 46.695 25.9561 46.572L30.9556 45.0549C31.2887 44.9524 31.654 44.9963 31.9578 45.1721C32.2617 45.3478 32.478 45.6406 32.5598 45.9833L33.7519 51.0821C33.8513 51.5009 33.7286 51.9432 33.4305 52.2536L23.1101 63.0048C22.8646 63.2596 22.5315 63.3943 22.1955 63.3943V63.3914ZM27.3528 48.8036L24.837 57.534L31.1251 50.9855L30.4004 47.8782L27.3528 48.8007V48.8036Z" fill="#C29D51"/>
<path d="M47.6781 63.3914C47.3421 63.3914 47.009 63.2567 46.7635 63.0019L36.4431 52.2507C36.145 51.9403 36.0252 51.498 36.1217 51.0792L37.3138 45.9804C37.3927 45.6377 37.6119 45.3449 37.9158 45.1691C38.2197 44.9934 38.582 44.9524 38.918 45.052L43.9175 46.569C44.3295 46.695 44.6509 47.0201 44.7678 47.433L48.8966 61.766C49.0573 62.3283 48.8177 62.9287 48.3122 63.2186C48.1135 63.3329 47.8943 63.3885 47.6781 63.3885V63.3914ZM38.7485 50.9884L45.0366 57.537L42.5208 48.8036L39.4732 47.8811L38.7485 50.9884Z" fill="#C29D51"/>
<path d="M45.9717 44.8558C45.6532 44.8558 45.3405 44.7357 45.1039 44.5102L41.2936 40.9284C41.0394 40.6882 40.8933 40.3514 40.8933 40C40.8933 39.6486 41.0394 39.3118 41.2936 39.0716L45.1039 35.4898C45.4165 35.194 45.8577 35.0769 46.2756 35.1823L60.7248 38.7641C61.2916 38.9047 61.689 39.4143 61.689 39.9971C61.689 40.5799 61.2916 41.0895 60.7248 41.23L46.2756 44.8118C46.1733 44.8382 46.071 44.8499 45.9717 44.8499V44.8558ZM44.014 40L46.334 42.1819L55.1379 40L46.334 37.8181L44.014 40Z" fill="#C29D51"/>
<path d="M38.5498 35.0007C38.3307 35.0007 38.1115 34.9422 37.9158 34.8309C37.6119 34.6551 37.3957 34.3623 37.3138 34.0196L36.1217 28.9208C36.0223 28.502 36.1451 28.0597 36.4431 27.7493L46.7635 16.9981C47.1668 16.5764 47.8067 16.4856 48.3122 16.7784C48.8177 17.0713 49.0573 17.6717 48.8966 18.2311L44.7678 32.5641C44.648 32.977 44.3295 33.305 43.9175 33.428L38.918 34.9422C38.7982 34.9773 38.6755 34.9978 38.5498 34.9978V35.0007ZM38.7515 29.0145L39.4761 32.1218L42.5237 31.1993L45.0396 22.466L38.7515 29.0145Z" fill="#C29D51"/>
<path d="M34.9821 22.8408H34.9763C34.275 22.8408 33.711 22.2668 33.714 21.5639L33.7753 4.67418C33.7753 3.97423 34.3451 3.40899 35.0435 3.40899H35.0493C35.7506 3.40899 36.3145 3.98301 36.3116 4.6859L36.2502 21.5756C36.2502 22.2756 35.6805 22.8408 34.9821 22.8408Z" fill="#C29D51"/>
<path d="M34.9967 23.1513C34.6724 23.1513 34.348 23.0283 34.0997 22.7793L28.2002 16.8663C27.7034 16.3714 27.7034 15.566 28.2002 15.0681C28.694 14.5702 29.4975 14.5702 29.9943 15.0681L34.9967 20.082L39.8823 15.1852C40.3761 14.6874 41.1796 14.6874 41.6764 15.1852C42.1731 15.6802 42.1731 16.4856 41.6764 16.9835L35.8938 22.7793C35.6454 23.0283 35.321 23.1513 34.9967 23.1513Z" fill="#C29D51"/>
<path d="M35.1224 14.8953C34.7863 14.8953 34.462 14.7606 34.2253 14.5234L31.2946 11.5859C30.7978 11.088 30.7978 10.2855 31.2946 9.78767C31.7913 9.28979 32.5919 9.28979 33.0886 9.78767L35.1224 11.826L37.2379 9.70567C37.7317 9.20779 38.5352 9.20779 39.032 9.70567C39.5287 10.2006 39.5287 11.006 39.032 11.5039L36.0194 14.5234C35.7827 14.7606 35.4584 14.8953 35.1224 14.8953Z" fill="#C29D51"/>
<path d="M32.5159 1.40283C33.2873 0.0614964 34.9996 -0.398307 36.3379 0.377795C37.6762 1.15097 38.1349 2.86718 37.3606 4.20852C36.5892 5.54986 34.8769 6.00966 33.5386 5.23356C32.2004 4.46038 31.7416 2.74417 32.5159 1.40283Z" fill="#C29D51"/>
<path d="M19.0339 32.0164C18.8177 32.0164 18.5985 31.9608 18.3969 31.8436L3.83082 23.3446C3.22597 22.9902 3.02143 22.2141 3.37207 21.6049C3.72563 20.9987 4.50288 20.7937 5.10773 21.1451L19.6709 29.6442C20.2757 29.9985 20.4803 30.7746 20.1296 31.3838C19.893 31.7909 19.4693 32.0164 19.031 32.0164H19.0339Z" fill="#C29D51"/>
<path d="M11.2497 34.3242C10.6887 34.3242 10.1774 33.9493 10.0254 33.3812C9.84426 32.7017 10.2446 32.0047 10.9225 31.8231L17.757 29.9868L15.9687 23.2948C15.7876 22.6153 16.1879 21.9183 16.8658 21.7367C17.5408 21.5522 18.2391 21.9564 18.4203 22.6358L20.5387 30.555C20.6264 30.8801 20.5796 31.2286 20.4131 31.5185C20.2436 31.8114 19.9689 32.0223 19.6417 32.1101L11.5828 34.2744C11.4718 34.3037 11.3637 34.3183 11.2527 34.3183L11.2497 34.3242Z" fill="#C29D51"/>
<path d="M8.23717 28.9969C7.67615 28.9969 7.1648 28.6221 7.01286 28.0539C6.8317 27.3744 7.23201 26.6774 7.90991 26.4958L10.6858 25.749L9.91147 22.8525C9.73031 22.1731 10.1306 21.4761 10.8085 21.2945C11.4835 21.11 12.1819 21.5141 12.363 22.1936L13.4646 26.3172C13.6458 26.9966 13.2455 27.6937 12.5676 27.8752L8.56444 28.9501C8.4534 28.9794 8.34529 28.994 8.23425 28.994L8.23717 28.9969Z" fill="#C29D51"/>
<path d="M0.377034 22.8028C-0.39437 21.4614 0.0643811 19.7481 1.39973 18.972C2.738 18.1989 4.44736 18.6587 5.22168 19.9971C5.99309 21.3384 5.53434 23.0517 4.19899 23.8278C2.86072 24.601 1.15136 24.1412 0.377034 22.8028Z" fill="#C29D51"/>
<path d="M4.36554 58.8402C3.92432 58.8402 3.49771 58.6118 3.26395 58.1989C2.91624 57.5897 3.12662 56.8136 3.73439 56.4651L18.3589 48.0715C18.9667 47.7229 19.741 47.9338 20.0887 48.543C20.4365 49.1521 20.2261 49.9282 19.6183 50.2768L4.99377 58.6704C4.79507 58.7846 4.57885 58.8373 4.36554 58.8373V58.8402Z" fill="#C29D51"/>
<path d="M17.0908 58.357C16.9827 58.357 16.8716 58.3424 16.7606 58.3131C16.0827 58.1315 15.6824 57.4345 15.8636 56.755L17.6956 49.9048L11.0218 48.1125C10.3439 47.9309 9.94361 47.2339 10.1248 46.5544C10.3059 45.8749 11.0014 45.4708 11.6793 45.6553L19.5803 47.7786C19.9047 47.8665 20.1822 48.0773 20.3517 48.3702C20.5212 48.6631 20.565 49.0086 20.4774 49.3337L18.318 57.411C18.1661 57.9792 17.6547 58.3541 17.0937 58.3541L17.0908 58.357Z" fill="#C29D51"/>
<path d="M10.9838 58.3102C10.8757 58.3102 10.7647 58.2955 10.6537 58.2662C9.97575 58.0846 9.57544 57.3876 9.75661 56.7082L10.5017 53.9259L7.61187 53.1498C6.93397 52.9682 6.53366 52.2712 6.71482 51.5917C6.89598 50.9123 7.59141 50.5081 8.26931 50.6926L12.3864 51.7967C12.7107 51.8846 12.9883 52.0955 13.1578 52.3883C13.3273 52.6812 13.3711 53.0268 13.2834 53.3519L12.2111 57.3642C12.0591 57.9323 11.5478 58.3072 10.9868 58.3072L10.9838 58.3102Z" fill="#C29D51"/>
<path d="M3.86621 61.1858C5.29302 60.5935 5.97058 58.954 5.37957 57.5239C4.78857 56.0938 3.1528 55.4147 1.72598 56.007C0.299164 56.5994 -0.378393 58.2389 0.212614 59.669C0.803621 61.0991 2.43939 61.7782 3.86621 61.1858Z" fill="#C29D51"/>
<path d="M34.8302 76.5939H34.8243C34.123 76.5939 33.5591 76.0199 33.562 75.317L33.6234 58.4273C33.6234 57.7273 34.1932 57.1621 34.8915 57.1621H34.8974C35.5986 57.1621 36.1626 57.7361 36.1597 58.439L36.0983 75.3287C36.0983 76.0287 35.5285 76.5939 34.8302 76.5939Z" fill="#C29D51"/>
<path d="M40.7764 65.3039C40.4521 65.3039 40.1277 65.1809 39.8793 64.9319L34.8769 59.918L29.9913 64.8148C29.4975 65.3126 28.694 65.3126 28.1972 64.8148C27.7005 64.3198 27.7005 63.5144 28.1972 63.0165L33.9799 57.2207C34.4561 56.7433 35.2977 56.7433 35.774 57.2207L41.6734 63.1337C42.1702 63.6286 42.1702 64.434 41.6734 64.9319C41.4251 65.1809 41.1007 65.3039 40.7764 65.3039Z" fill="#C29D51"/>
<path d="M31.7387 70.6663C31.4144 70.6663 31.09 70.5433 30.8416 70.2943C30.3449 69.7965 30.3449 68.994 30.8416 68.4961L33.8542 65.4766C34.3509 64.9788 35.1516 64.9788 35.6483 65.4766L38.5791 68.4141C39.0758 68.9091 39.0758 69.7145 38.5791 70.2123C38.0852 70.7102 37.2817 70.7102 36.785 70.2123L34.7513 68.174L32.6357 70.2943C32.3874 70.5433 32.063 70.6663 31.7387 70.6663Z" fill="#C29D51"/>
<path d="M37.3577 78.5972C36.5863 79.9385 34.874 80.3983 33.5357 79.6222C32.1974 78.849 31.7387 77.1328 32.513 75.7915C33.2873 74.4501 34.9967 73.9903 36.335 74.7664C37.6732 75.5396 38.132 77.2558 37.3577 78.5972Z" fill="#C29D51"/>
<path d="M65.4029 59.0247C65.1867 59.0247 64.9675 58.9691 64.7659 58.852L50.2027 50.3529C49.5979 49.9985 49.3933 49.2224 49.744 48.6133C50.0975 48.007 50.8748 47.802 51.4796 48.1535L66.0428 56.6525C66.6476 57.0069 66.8522 57.783 66.5015 58.3922C66.2649 58.7992 65.8412 59.0247 65.4029 59.0247Z" fill="#C29D51"/>
<path d="M52.6806 58.3014C52.1195 58.3014 51.6082 57.9265 51.4562 57.3583L49.3407 49.4392C49.1596 48.7597 49.5599 48.0627 50.2378 47.8811L58.2966 45.7168C58.9716 45.5323 59.667 45.9364 59.8511 46.6159C60.0323 47.2954 59.632 47.9924 58.9541 48.174L52.1195 50.0102L53.9078 56.7023C54.089 57.3818 53.6886 58.0788 53.0107 58.2604C52.8997 58.2896 52.7916 58.3043 52.6806 58.3043V58.3014Z" fill="#C29D51"/>
<path d="M58.7349 58.7436C58.1739 58.7436 57.6625 58.3687 57.5106 57.8006L56.409 53.674C56.2279 52.9946 56.6282 52.2976 57.3061 52.116L61.3092 51.0411C61.9842 50.8566 62.6825 51.2608 62.8637 51.9403C63.0448 52.6197 62.6445 53.3167 61.9666 53.4983L59.1907 54.2451L59.9651 57.1416C60.1462 57.8211 59.7459 58.5181 59.068 58.6997C58.957 58.7289 58.8489 58.7436 58.7378 58.7436H58.7349Z" fill="#C29D51"/>
<path d="M69.4966 57.1972C70.268 58.5386 69.8092 60.2519 68.4739 61.028C67.1356 61.8011 65.4262 61.3413 64.6519 60.0029C63.8805 58.6616 64.3393 56.9483 65.6746 56.1722C67.0129 55.399 68.7223 55.8588 69.4966 57.1972Z" fill="#C29D51"/>
<path d="M50.8865 32.0955C50.4452 32.0955 50.0186 31.867 49.7849 31.4541C49.4372 30.8449 49.6475 30.0688 50.2553 29.7203L64.8798 21.3267C65.4876 20.9782 66.2619 21.189 66.6097 21.7982C66.9574 22.4074 66.747 23.1835 66.1392 23.532L51.5147 31.9256C51.316 32.0398 51.0998 32.0925 50.8865 32.0925V32.0955Z" fill="#C29D51"/>
<path d="M58.5245 34.3828C58.4164 34.3828 58.3054 34.3681 58.1943 34.3388L50.2933 32.2185C49.969 32.1306 49.6914 31.9198 49.5219 31.6269C49.3524 31.334 49.3086 30.9884 49.3962 30.6633L51.5556 22.586C51.7368 21.9066 52.4322 21.5024 53.1101 21.6869C53.788 21.8685 54.1883 22.5655 54.0071 23.245L52.1751 30.0952L58.8489 31.8875C59.5268 32.0691 59.9271 32.7661 59.7459 33.4456C59.594 34.0138 59.0826 34.3886 58.5216 34.3886L58.5245 34.3828Z" fill="#C29D51"/>
<path d="M61.9345 29.3513C61.8264 29.3513 61.7153 29.3367 61.6043 29.3074L57.4872 28.2033C56.8093 28.0217 56.409 27.3246 56.5902 26.6452L57.6625 22.6329C57.8437 21.9534 58.5391 21.5493 59.217 21.7338C59.8949 21.9154 60.2953 22.6124 60.1141 23.2918L59.369 26.0741L62.2588 26.8502C62.9367 27.0318 63.337 27.7288 63.1559 28.4083C63.0039 28.9764 62.4926 29.3513 61.9316 29.3513H61.9345Z" fill="#C29D51"/>
<path d="M67.0772 24.2056C68.6216 24.2056 69.8735 22.9508 69.8735 21.4028C69.8735 19.8549 68.6216 18.6001 67.0772 18.6001C65.5328 18.6001 64.2808 19.8549 64.2808 21.4028C64.2808 22.9508 65.5328 24.2056 67.0772 24.2056Z" fill="#C29D51"/>
</g>
</svg>
