<svg width="40" height="24" viewBox="0 0 40 24" fill="none" xmlns="http://www.w3.org/2000/svg">
<g id="Mastercard">
<path id="Left" fill-rule="evenodd" clip-rule="evenodd" d="M20.25 21.1334C18.1846 22.9209 15.5054 24 12.5779 24C6.04552 24 0.75 18.6274 0.75 12C0.75 5.37258 6.04552 0 12.5779 0C15.5055 0 18.1846 1.0791 20.25 2.86665C22.3154 1.07912 24.9945 2.64733e-05 27.9221 2.64733e-05C34.4545 2.64733e-05 39.75 5.37261 39.75 12C39.75 18.6274 34.4545 24 27.9221 24C24.9945 24 22.3154 22.9209 20.25 21.1334Z" fill="#ED0006"/>
<path id="Right" fill-rule="evenodd" clip-rule="evenodd" d="M20.25 21.1334C22.7932 18.9323 24.4057 15.6572 24.4057 12C24.4057 8.34276 22.7932 5.06765 20.25 2.86663C22.3154 1.0791 24.9945 0 27.9221 0C34.4545 0 39.75 5.37258 39.75 12C39.75 18.6274 34.4545 24 27.9221 24C24.9945 24 22.3154 22.9209 20.25 21.1334Z" fill="#F9A000"/>
<path id="Middle" fill-rule="evenodd" clip-rule="evenodd" d="M20.2501 21.1333C22.7932 18.9323 24.4058 15.6572 24.4058 12C24.4058 8.34281 22.7932 5.06772 20.2501 2.8667C17.7069 5.06772 16.0944 8.34281 16.0944 12C16.0944 15.6572 17.7069 18.9323 20.2501 21.1333Z" fill="#FF5E00"/>
</g>
</svg>
