<svg width="169" height="96" viewBox="0 0 169 96" fill="none" xmlns="http://www.w3.org/2000/svg">
<g id="Frame" clip-path="url(#clip0_0_322)">
<path id="Vector" fill-rule="evenodd" clip-rule="evenodd" d="M4.28784 47.3554C6.65204 47.3554 8.57568 49.2771 8.57568 51.6416C8.57568 54.0061 6.65204 55.9344 4.28784 55.9344C1.92364 55.9344 0 54.0127 0 51.6416C0 49.2706 1.91928 47.3554 4.28784 47.3554ZM10.6215 62.0834C14.9442 62.0834 18.4534 65.5931 18.4534 69.912C18.4534 74.2309 14.9442 77.7406 10.6215 77.7406C6.29872 77.7406 2.79604 74.2353 2.79604 69.912C2.79604 65.5887 6.29872 62.0834 10.6215 62.0834ZM27.775 77.3719C32.0977 77.3719 35.6004 80.8772 35.6004 85.2049C35.6004 89.5325 32.0977 93.0335 27.775 93.0335C23.4523 93.0335 19.943 89.5238 19.943 85.2049C19.943 80.886 23.4523 77.3719 27.775 77.3719ZM52.1826 84.4393C55.3734 84.4393 57.9622 87.0284 57.9622 90.2196C57.9622 93.4108 55.3734 96 52.1826 96C48.9918 96 46.4029 93.4108 46.4029 90.2196C46.4029 87.0284 48.9918 84.4393 52.1826 84.4393ZM75.1223 67.6762C79.445 67.6762 82.9543 71.1858 82.9543 75.5091C82.9543 79.8324 79.4472 83.3377 75.1223 83.3377C70.7974 83.3377 67.2969 79.8324 67.2969 75.5091C67.2969 71.1858 70.8039 67.6762 75.1223 67.6762ZM64.6731 2.88146C68.3895 2.88146 71.395 5.88944 71.395 9.60196C71.395 13.3145 68.3895 16.3225 64.6731 16.3225C60.9567 16.3225 57.9578 13.3145 57.9578 9.60196C57.9578 5.88944 60.9698 2.88146 64.6731 2.88146ZM39.5219 0C42.5033 0 44.9264 2.42121 44.9264 5.40519C44.9264 8.38918 42.5055 10.8148 39.5219 10.8148C36.5383 10.8148 34.1173 8.38918 34.1173 5.40519C34.1173 2.42121 36.5383 0 39.5219 0ZM17.5243 11.9316C19.8929 11.9316 21.8122 13.8533 21.8122 16.2178C21.8122 18.5823 19.8929 20.5105 17.5243 20.5105C15.1558 20.5105 13.2365 18.5888 13.2365 16.2178C13.2365 13.8467 15.1558 11.9316 17.5243 11.9316ZM81.4581 17.7796C86.0011 17.7796 89.6892 21.4637 89.6892 26.0117C89.6892 30.5596 86.0011 34.246 81.4581 34.246C76.9151 34.246 73.2226 30.5575 73.2226 26.0117C73.2226 21.4659 76.9107 17.7796 81.4581 17.7796ZM5.40451 31.1355C7.26054 31.1355 8.76325 32.6384 8.76325 34.4903C8.76325 36.3422 7.26054 37.8429 5.40451 37.8429C3.54848 37.8429 2.05232 36.3422 2.05232 34.4903C2.05232 32.6384 3.55503 31.1355 5.40451 31.1355Z" fill="#55B57A"/>
<path id="Vector_2" d="M163.603 49.059C163.309 48.0534 162.72 47.2354 161.841 46.6029C160.962 45.9725 159.939 45.6584 158.777 45.6584C157.516 45.6584 156.408 46.0139 155.459 46.7207C154.864 47.1613 154.31 47.9444 153.8 49.059H163.601H163.603ZM168.151 52.6254H153.597C153.811 53.9058 154.378 54.9266 155.289 55.6835C156.197 56.4404 157.359 56.8221 158.774 56.8221C160.467 56.8221 161.924 56.2266 163.139 55.0444L166.96 56.8396C166.007 58.1854 164.868 59.1844 163.538 59.8345C162.21 60.4823 160.637 60.803 158.809 60.803C155.976 60.803 153.671 59.9108 151.898 58.1265C150.112 56.3379 149.222 54.0999 149.222 51.4126C149.222 48.7252 150.112 46.376 151.887 44.5546C153.667 42.7376 155.887 41.8259 158.563 41.8259C161.4 41.8259 163.712 42.7355 165.499 44.5546C167.274 46.376 168.168 48.7776 168.168 51.7638L168.151 52.6275V52.6254ZM140.432 35.642H144.947V42.2861H147.63V46.1884H144.947V60.3362H140.432V46.1884H138.11V42.2861H140.432V35.642ZM126.036 46.0074C124.631 46.0074 123.464 46.4982 122.539 47.4906C121.608 48.4831 121.146 49.7504 121.146 51.2948C121.146 52.8391 121.615 54.1392 122.561 55.1469C123.503 56.1547 124.67 56.6585 126.053 56.6585C127.436 56.6585 128.659 56.1612 129.601 55.1709C130.544 54.185 131.013 52.8871 131.013 51.2795C131.013 49.6719 130.544 48.4351 129.601 47.471C128.659 46.4938 127.475 46.0074 126.036 46.0074ZM130.799 42.2883H135.313V60.3383H130.799V58.4297C129.916 59.2739 129.023 59.8737 128.134 60.2511C127.244 60.6154 126.278 60.803 125.237 60.803C122.901 60.803 120.891 59.8955 119.185 58.0916C117.479 56.2855 116.631 54.0366 116.631 51.3471C116.631 48.6576 117.451 46.28 119.1 44.4979C120.747 42.7202 122.753 41.8281 125.104 41.8281C126.19 41.8281 127.202 42.0331 128.162 42.441C129.111 42.8511 129.988 43.4662 130.797 44.2864V42.2927L130.799 42.2883ZM96.5026 42.2883H101.109L105.674 52.9395L110.21 42.2883H114.81L107.122 60.3383H104.191L96.4983 42.2883H96.5026ZM85.2378 46.0881C83.8267 46.0881 82.6533 46.5789 81.7242 47.5561C80.7885 48.5377 80.3262 49.7875 80.3262 51.3122C80.3262 52.8369 80.782 54.1544 81.7133 55.1273C82.638 56.1023 83.8005 56.5909 85.216 56.5909C86.6314 56.5909 87.8114 56.1001 88.7536 55.1098C89.6892 54.1239 90.1647 52.8609 90.1647 51.3122C90.1647 49.7635 89.7023 48.5093 88.7775 47.5408C87.8528 46.5723 86.6729 46.0881 85.24 46.0881H85.2378ZM85.1636 41.8259C86.8692 41.8259 88.4744 42.2534 89.9727 43.1019C91.4689 43.9483 92.6379 45.1109 93.482 46.568C94.326 48.0272 94.7426 49.6021 94.7426 51.2926C94.7426 52.9831 94.3151 54.5929 93.4776 56.074C92.627 57.5572 91.4776 58.7133 90.0163 59.5509C88.5551 60.382 86.9477 60.803 85.1898 60.803C82.601 60.803 80.3938 59.8803 78.5596 58.0393C76.7341 56.2005 75.8137 53.9603 75.8137 51.3319C75.8137 48.5115 76.854 46.1622 78.9173 44.282C80.7318 42.646 82.8125 41.8259 85.1658 41.8259H85.1636ZM56.3069 42.2883H60.815V44.1358C61.8488 43.2655 62.7735 42.6679 63.6176 42.3341C64.4442 41.9938 65.2991 41.8259 66.1715 41.8259C67.9686 41.8259 69.4823 42.4541 70.7363 43.7018C71.7876 44.7619 72.3088 46.3324 72.3088 48.4155V60.3383H67.8291V52.4312C67.8291 50.2718 67.7375 48.8387 67.539 48.1298C67.3492 47.4252 67.0068 46.8864 66.527 46.5134C66.0472 46.1426 65.4583 45.9594 64.7473 45.9594C63.8226 45.9594 63.0418 46.2626 62.3831 46.8821C61.7244 47.4906 61.2621 48.3413 61.0134 49.4254C60.8804 49.9926 60.8106 51.2119 60.8106 53.0922V60.3383H56.3025V42.2883H56.3069ZM35.9167 42.2883H40.4314V44.1358C41.4608 43.2655 42.3899 42.6679 43.2296 42.3341C44.0627 41.9938 44.9177 41.8259 45.7901 41.8259C47.5829 41.8259 49.1008 42.4541 50.3505 43.7018C51.4018 44.7619 51.923 46.3324 51.923 48.4155V60.3383H47.4498V52.4312C47.4498 50.2718 47.3517 48.8387 47.1554 48.1298C46.9656 47.4252 46.6298 46.8864 46.1434 46.5134C45.6636 46.1426 45.0747 45.9594 44.3681 45.9594C43.4433 45.9594 42.6582 46.2626 41.9973 46.8821C41.3452 47.4906 40.8828 48.3413 40.6277 49.4254C40.5012 49.9926 40.4314 51.2119 40.4314 53.0922V60.3383H35.9167V42.2883ZM26.582 35.9364H31.1883V60.3383H26.582V35.9364Z" fill="#324857"/>
</g>
<defs>
<clipPath id="clip0_0_322">
<rect width="168.17" height="96" fill="white"/>
</clipPath>
</defs>
</svg>
