<svg width="180" height="80" viewBox="0 0 180 80" fill="none" xmlns="http://www.w3.org/2000/svg">
<g id="Frame" clip-path="url(#clip0_0_325)">
<path id="Vector" d="M32.8161 78.5799L31.6418 77.3965C31.6418 77.3965 30.4674 78.1065 29.7629 78.1065C29.0583 78.1065 28.3537 78.1065 27.884 77.3965C27.4142 76.9231 27.1794 76.213 27.1794 75.503C27.1794 74.7929 27.4142 74.0828 27.884 73.6095C28.3537 73.1361 29.0583 72.8994 29.7629 72.8994C30.4674 72.8994 31.172 72.8994 31.6418 73.6095L32.8161 72.426C32.8161 72.426 30.9372 71.0059 29.7629 71.0059C28.5885 71.0059 27.4142 71.4793 26.7097 72.426C25.7702 73.3728 25.5353 74.3195 25.5353 75.503C25.5353 76.6864 26.0051 77.6331 26.7097 78.5799C27.6491 79.5266 28.5885 80 29.7629 80C31.172 80 32.1115 79.2899 32.8161 78.5799ZM45.9684 71.0059C44.7941 71.0059 43.6197 71.4793 42.9152 72.426C41.9757 73.3728 41.506 74.3195 41.506 75.503C41.506 76.6864 41.9757 77.6331 42.9152 78.5799C43.8546 79.5266 44.7941 80 45.9684 80C47.1427 80 48.317 79.5266 49.0216 78.5799C49.961 77.6331 50.4308 76.6864 50.4308 75.503C50.4308 74.3195 49.961 73.1361 49.0216 72.426C48.0821 71.4793 47.1427 71.0059 45.9684 71.0059ZM45.9684 72.8994C45.9684 72.8994 47.3775 72.8994 47.8473 73.6095C48.317 74.0828 48.5519 74.7929 48.5519 75.503C48.5519 76.213 48.317 76.9231 47.8473 77.3965C47.3775 77.8698 46.673 78.1065 45.9684 78.1065C45.2638 78.1065 44.5592 78.1065 44.0895 77.3965C43.6197 76.9231 43.3849 76.213 43.3849 75.503C43.3849 74.7929 43.6197 74.0828 44.0895 73.6095C44.5592 73.1361 45.2638 72.8994 45.9684 72.8994ZM60.0601 71.0059V80H61.7041V76.213L64.2876 79.7633L66.8711 76.213V80H68.5152V71.0059L64.2876 76.9231L60.0601 71.0059ZM79.5537 80H81.4326L81.9023 78.5799H84.9555L85.4253 80H87.3041L83.3115 71.0059L79.3188 80H79.5537ZM82.8418 77.1598L83.5463 75.2663L84.4858 77.1598H82.8418ZM97.1684 71.0059V80H99.0473V75.0296L104.214 80V71.0059H102.335V75.9763L97.1684 71.0059ZM113.844 71.0059L116.662 75.9763V79.7633H118.306V75.9763L121.124 71.0059H119.011L117.367 74.0828L115.722 71.0059H113.609H113.844Z" fill="#141515"/>
<g id="Group">
<path id="Vector_2" fill-rule="evenodd" clip-rule="evenodd" d="M29.7629 45.2071C29.7629 48.284 27.1794 50.8876 23.8913 50.8876C20.6033 50.8876 18.0198 48.284 18.0198 45.2071C18.0198 42.1302 20.6033 39.5266 23.8913 39.5266C27.1794 39.5266 29.7629 42.1302 29.7629 45.2071Z" fill="#EA3118"/>
<path id="Vector_3" fill-rule="evenodd" clip-rule="evenodd" d="M2.04914 70.0592C-0.299483 71.0059 0.170242 63.9053 0.170242 63.1953C1.81428 49.9408 17.7849 8.04732 29.0583 1.18341C34.2253 -1.89351 38.4528 1.65679 39.862 7.33726C40.5666 10.6509 41.0363 16.8047 41.506 20.5917C43.1501 31.4793 46.4381 48.0473 59.3556 50.1775C69.6895 51.8343 92.0014 44.0237 102.57 41.4201C126.291 35.2663 152.361 33.3728 174.438 45.6805C177.022 47.1006 177.256 47.1006 179.135 49.2308C176.317 48.9941 176.082 48.7574 173.264 47.8106C150.482 40.71 133.102 41.6568 110.321 48.284C96.6987 52.3077 77.44 60.5917 64.2877 61.5384C36.3391 63.6686 32.1115 34.5562 31.1721 13.0177C31.1721 12.071 31.1721 11.3609 31.1721 10.4142C28.5886 13.2544 24.8308 18.9349 23.8913 20.5917C19.1941 28.1657 0.170242 62.9586 2.04914 70.0592Z" fill="#EA3118"/>
</g>
</g>
<defs>
<clipPath id="clip0_0_325">
<rect width="179.2" height="80" fill="white" transform="translate(0.170227)"/>
</clipPath>
</defs>
</svg>
