<svg width="103" height="96" viewBox="0 0 103 96" fill="none" xmlns="http://www.w3.org/2000/svg">
<g id="Frame" clip-path="url(#clip0_0_330)">
<g id="Group">
<g id="graphics">
<g id="Group_2">
<path id="Vector" d="M15.602 77.9702V81.5151C15.9251 80.9549 16.3993 80.4955 17.0188 80.1428C17.5494 79.8464 18.1985 79.7011 18.9691 79.7011C20.3562 79.7011 21.4944 80.2761 22.3806 81.4291C23.2669 82.5821 23.7085 84.073 23.7085 85.9018C23.7085 87.7305 23.2639 89.2244 22.3806 90.3744C21.936 90.9346 21.3403 91.3406 20.5874 91.5926C19.8346 91.8445 19.0877 91.969 18.3496 91.969C16.9329 91.969 15.6168 91.6015 14.4076 90.8605C13.1953 90.1224 12.5906 88.7057 12.5906 86.6072V76.4645H14.0963C14.5083 76.4645 14.864 76.6127 15.1604 76.9061C15.4568 77.2025 15.605 77.5552 15.605 77.9702H15.602ZM20.6526 85.7654C20.6526 84.7013 20.4303 83.8744 19.9887 83.2846C19.5441 82.6651 18.9395 82.3539 18.1718 82.3539C17.3448 82.3539 16.7106 82.6503 16.266 83.2401C15.8243 83.8596 15.602 84.7013 15.602 85.7654C15.602 87.0043 15.8095 87.9054 16.2215 88.4686C16.6661 89.088 17.2856 89.3992 18.0829 89.3992C18.8802 89.3992 19.5441 89.088 19.9887 88.4686C20.4303 87.8491 20.6526 86.948 20.6526 85.7654Z" fill="#383C41"/>
<path id="Vector_2" d="M35.1968 79.9649V86.8739C35.1968 88.9724 34.6515 90.3447 33.5578 90.9938C32.4641 91.6429 31.2696 91.969 29.9684 91.969C28.6968 91.9097 27.5379 91.557 26.4917 90.9049C25.4424 90.2558 24.9178 88.9131 24.9178 86.8739V79.9649H28.0181V87.4964C28.0181 88.2047 28.2256 88.7234 28.6376 89.0465C29.0496 89.3725 29.5238 89.5326 30.0543 89.5326C30.5849 89.5326 31.0651 89.3696 31.4948 89.0465C31.9216 88.7205 32.138 88.2047 32.138 87.4964V81.4706C32.138 81.0586 32.2773 80.7029 32.5589 80.4065C32.8405 80.1131 33.2021 79.9649 33.6437 79.9649H35.1939H35.1968Z" fill="#383C41"/>
<path id="Vector_3" d="M41.5901 91.7467C40.615 91.806 39.5598 91.7911 38.4216 91.7022C37.2835 91.6133 36.7173 90.8901 36.7173 89.5326V76.5089H38.312C38.6943 76.5089 39.0352 76.6571 39.3316 76.9505C39.628 77.2469 39.7762 77.5996 39.7762 78.0146V80.0094H41.5931V80.6288C41.5931 81.0734 41.4449 81.435 41.1514 81.7136C40.855 81.9952 40.5023 82.1345 40.0874 82.1345H39.7762V88.6908C39.7762 89.1947 40.0696 89.4437 40.6624 89.4437H41.5931V91.7467H41.5901Z" fill="#383C41"/>
<path id="Vector_4" d="M47.7641 91.7467C46.7889 91.806 45.7337 91.7911 44.5956 91.7022C43.4574 91.6133 42.8913 90.8901 42.8913 89.5326V76.5089H44.4859C44.8683 76.5089 45.2091 76.6571 45.5055 76.9505C45.7989 77.2469 45.9471 77.5996 45.9471 78.0146V80.0094H47.7641V80.6288C47.7641 81.0734 47.6159 81.435 47.3195 81.7136C47.0231 81.9952 46.6704 82.1345 46.2554 82.1345H45.9442V88.6908C45.9442 89.1947 46.2406 89.4437 46.8304 89.4437H47.7611V91.7467H47.7641Z" fill="#383C41"/>
<path id="Vector_5" d="M56.9049 88.1159H59.119C58.793 89.3548 58.1735 90.3003 57.2577 90.9494C56.3418 91.6282 55.1888 91.969 53.8017 91.969C52.1181 91.969 50.8051 91.4236 49.8596 90.3299C48.9141 89.2659 48.4428 87.7454 48.4428 85.7684C48.4428 83.7914 48.8993 82.4013 49.8151 81.3373C50.7606 80.2465 52.0737 79.6982 53.7572 79.6982C55.5297 79.6982 56.902 80.2287 57.8771 81.2928C58.8226 82.3865 59.2939 83.907 59.2939 85.8543V86.3404C59.2939 86.4886 59.2791 86.5924 59.2494 86.6516H51.5846C51.6143 87.5675 51.8366 88.2463 52.2485 88.6879C52.6309 89.1621 53.2089 89.3963 53.9765 89.3963C54.4775 89.3963 54.9072 89.2925 55.2599 89.0851C55.3489 89.0554 55.4289 89.005 55.503 88.9309C55.5771 88.8568 55.6571 88.7768 55.746 88.6879C55.7757 88.599 55.8853 88.4804 56.078 88.3322C56.2707 88.184 56.5433 88.1099 56.899 88.1099L56.9049 88.1159ZM51.5905 84.6599H56.1076C56.0484 83.8626 55.8409 83.2727 55.4882 82.8874C55.1028 82.4754 54.5575 82.2679 53.8491 82.2679C53.2 82.2679 52.6665 82.4754 52.2545 82.8874C51.8425 83.2994 51.6202 83.8922 51.5905 84.6599Z" fill="#383C41"/>
<path id="Vector_6" d="M60.4647 91.7467V86.0322C60.4647 84.8792 60.6336 83.9129 60.9745 83.1305C61.3124 82.348 61.7777 81.7196 62.3705 81.2483C62.9307 80.8067 63.5887 80.4807 64.3415 80.2732C65.0944 80.0657 65.8709 79.962 66.6682 79.962H67.1128V83.1068H66.0932C65.2367 83.1068 64.6024 83.3142 64.1874 83.7262C63.7724 84.1412 63.5679 84.7903 63.5679 85.6765V91.7438H60.4676L60.4647 91.7467Z" fill="#383C41"/>
<path id="Vector_7" d="M68.0999 91.7467V79.6092C68.0999 78.5452 68.3814 77.7479 68.9416 77.2173C69.4722 76.7164 70.3436 76.4645 71.5558 76.4645C71.8522 76.4645 72.0864 76.4793 72.2642 76.5089C72.5873 76.5089 72.8392 76.5238 73.0171 76.5534V78.9898H72.2198C71.8048 78.9898 71.5114 79.0491 71.3335 79.1676C71.1853 79.2862 71.1112 79.5233 71.1112 79.876V80.6733H73.0171V81.3372C73.0171 81.7789 72.8689 82.1434 72.5754 82.422C72.2791 82.7036 71.9412 82.8429 71.5558 82.8429H71.1142V91.7467H68.1028H68.0999Z" fill="#383C41"/>
<path id="Vector_8" d="M74.0515 76.5089H75.6461C76.0581 76.5089 76.4138 76.6482 76.7102 76.9298C77.0066 77.2114 77.1548 77.5582 77.1548 77.9701V91.7467H74.0545V76.5089H74.0515Z" fill="#383C41"/>
<path id="Vector_9" d="M80.0476 95.9111V93.4747H80.8894C81.4792 93.4747 81.9445 93.3354 82.2854 93.0538C82.6233 92.7722 82.6915 92.3217 82.484 91.7022L78.3641 79.9649H81.7756L84.1675 88.2937L86.2482 81.029C86.4261 80.3206 86.8973 79.9649 87.665 79.9649H89.7902L85.2731 93.3858C84.9174 94.3609 84.4758 95.0545 83.9452 95.4665C83.4147 95.8221 82.5433 95.997 81.331 95.997H80.7115C80.6226 95.9674 80.5129 95.9437 80.3796 95.9318C80.2462 95.917 80.1365 95.9111 80.0476 95.9111Z" fill="#383C41"/>
</g>
<g id="Group_3">
<path id="Vector_10" d="M3.75208 3.00842C9.0398 0.343811 14.1023 1.55607 18.563 5.1899C13.139 3.69013 12.1401 10.8659 17.5019 16.948C22.351 22.4461 31.0858 30.4251 51.1904 30.4251L51.7832 33.4988L51.1904 36.3857C10.9753 36.3857 -7.84593 9.80777 3.75208 3.00842Z" fill="url(#paint0_linear_0_330)"/>
<path id="Vector_11" d="M51.1904 39.1689L50.5976 44.3677L51.1904 49.4094C64.8869 49.4094 76.7458 55.7434 76.6479 62.8954C76.5827 67.7237 72.534 67.6941 70.2102 65.4859C72.2405 69.6859 75.0474 71.9118 77.9165 71.9415C92.1969 71.9415 85.9785 39.1659 51.1904 39.1659V39.1689Z" fill="url(#paint1_linear_0_330)"/>
<path id="Vector_12" style="mix-blend-mode:multiply" d="M62.9781 40.5945C62.5305 43.7008 62.1927 47.5421 62.2579 50.838C66.4015 51.9495 69.9642 53.6479 72.5073 55.693C72.3561 52.3141 72.2168 48.126 72.5428 44.587C69.8219 42.9301 66.6416 41.546 62.9781 40.5945Z" fill="url(#paint2_linear_0_330)"/>
<path id="Vector_13" d="M98.6287 3.00841C82.5166 -5.11286 68.4852 22.7484 67.2373 45.5236C66.3066 62.4567 71.9915 71.8822 77.9165 71.9444C70.5925 71.9444 53.114 68.7522 53.114 44.8626C53.114 13.4179 80.1839 -8.23096 98.6287 3.01138V3.00841Z" fill="url(#paint3_linear_0_330)"/>
<path id="Vector_14" style="mix-blend-mode:multiply" d="M53.1407 43.2265C57.2043 42.9598 61.5465 42.6308 67.5604 41.7179C68.0287 37.5802 68.8823 33.3506 70.065 29.2662L54.6553 32.1057C53.7839 35.6239 53.2563 39.3467 53.1407 43.2265Z" fill="url(#paint4_radial_0_330)"/>
<path id="Vector_15" d="M57.2665 16.0677C57.2665 19.4229 54.5456 22.1408 51.1904 22.1408C47.8352 22.1408 45.1143 19.4199 45.1143 16.0677C45.1143 12.7154 47.8352 9.99152 51.1904 9.99152C54.5456 9.99152 57.2665 12.7124 57.2665 16.0677Z" fill="url(#paint5_linear_0_330)"/>
<path id="Vector_16" d="M98.6287 3.00842C93.341 0.343811 88.2785 1.55607 83.8178 5.1899C89.2418 3.69013 90.2407 10.8659 84.8789 16.948C80.0298 22.4461 71.295 30.4251 51.1904 30.4251V36.3857C91.4055 36.3857 110.23 9.80777 98.6287 3.00842Z" fill="url(#paint6_linear_0_330)"/>
<path id="Vector_17" d="M3.75208 3.00843C19.8642 -5.11285 33.8956 22.7485 35.1435 45.5236C36.0742 62.4568 30.3893 71.8822 24.4643 71.9444C31.7883 71.9444 49.2668 68.7522 49.2668 44.8626C49.2668 13.4149 22.1969 -8.23391 3.75208 3.00843Z" fill="url(#paint7_linear_0_330)"/>
<path id="Vector_18" style="mix-blend-mode:multiply" d="M34.2839 59.0956C38.9907 58.1234 43.1699 57.8092 46.9994 57.8685C48.2176 54.8957 49.0208 51.3093 49.2194 46.9878L35.2413 49.522C35.2176 53.1232 34.8738 56.3243 34.2839 59.0956Z" fill="url(#paint8_linear_0_330)"/>
<path id="Vector_19" d="M51.1904 39.1688V49.4123C37.4939 49.4123 25.6351 55.7463 25.7329 62.8984C25.7981 67.7267 29.8469 67.697 32.1706 65.4889C30.1403 69.6888 27.3334 71.9148 24.4643 71.9444C10.1839 71.9444 16.4023 39.1688 51.1904 39.1688Z" fill="url(#paint9_linear_0_330)"/>
</g>
</g>
</g>
</g>
<defs>
<linearGradient id="paint0_linear_0_330" x1="26.0767" y1="56.2146" x2="26.0767" y2="5.17508" gradientUnits="userSpaceOnUse">
<stop stop-color="#FFE600"/>
<stop offset="1" stop-color="#EB5223"/>
</linearGradient>
<linearGradient id="paint1_linear_0_330" x1="67.8331" y1="40.6005" x2="67.8331" y2="69.9941" gradientUnits="userSpaceOnUse">
<stop stop-color="#FF7C36"/>
<stop offset="1" stop-color="#FFF52E"/>
</linearGradient>
<linearGradient id="paint2_linear_0_330" x1="66.3985" y1="48.1438" x2="71.215" y2="48.1438" gradientUnits="userSpaceOnUse">
<stop stop-color="#DBA97B"/>
<stop offset="1" stop-color="white"/>
</linearGradient>
<linearGradient id="paint3_linear_0_330" x1="75.8714" y1="1.47604" x2="75.8714" y2="72.2527" gradientUnits="userSpaceOnUse">
<stop stop-color="#FFF636"/>
<stop offset="0.42" stop-color="#FFD836"/>
<stop offset="1" stop-color="#FFAB36"/>
</linearGradient>
<radialGradient id="paint4_radial_0_330" cx="0" cy="0" r="1" gradientUnits="userSpaceOnUse" gradientTransform="translate(51.5046 -34.2279) scale(76.5178 76.5178)">
<stop offset="0.92" stop-color="#DB791D"/>
<stop offset="0.93" stop-color="#E2954D"/>
<stop offset="0.96" stop-color="#F1CDAB"/>
<stop offset="0.98" stop-color="#FBF1E7"/>
<stop offset="0.99" stop-color="white"/>
</radialGradient>
<linearGradient id="paint5_linear_0_330" x1="51.1904" y1="22.1438" x2="51.1904" y2="9.99448" gradientUnits="userSpaceOnUse">
<stop stop-color="#FFAB36"/>
<stop offset="1" stop-color="#FFF636"/>
</linearGradient>
<linearGradient id="paint6_linear_0_330" x1="76.6005" y1="-9.40698e-06" x2="76.6005" y2="-9.40698e-06" gradientUnits="userSpaceOnUse">
<stop stop-color="#FFE600"/>
<stop offset="1" stop-color="#EB5223"/>
</linearGradient>
<linearGradient id="paint7_linear_0_330" x1="26.5094" y1="1.47606" x2="26.5094" y2="72.2527" gradientUnits="userSpaceOnUse">
<stop stop-color="#FFF636"/>
<stop offset="1" stop-color="#FFAB36"/>
</linearGradient>
<linearGradient id="paint8_linear_0_330" x1="41.4182" y1="50.3134" x2="42.2333" y2="57.0001" gradientUnits="userSpaceOnUse">
<stop stop-color="#E39349"/>
<stop offset="1" stop-color="white"/>
</linearGradient>
<linearGradient id="paint9_linear_0_330" x1="34.2513" y1="-2.97347e-05" x2="34.2513" y2="69.9941" gradientUnits="userSpaceOnUse">
<stop stop-color="#FF7C36"/>
<stop offset="1" stop-color="#FFF52E"/>
</linearGradient>
<clipPath id="clip0_0_330">
<rect width="101.64" height="96" fill="white" transform="translate(0.370209)"/>
</clipPath>
</defs>
</svg>
