<svg width="205" height="80" viewBox="0 0 205 80" fill="none" xmlns="http://www.w3.org/2000/svg">
<g id="Frame" clip-path="url(#clip0_0_254)">
<g id="Group">
<path id="Vector" d="M40.8842 29.2822H48.8741V65.3876H40.8842V29.2822Z" fill="#00557F"/>
<path id="Vector_2" d="M54.6989 34.7468H60.9518L75.3951 53.6131V34.7468H82.0883V65.3876H76.3213L61.3951 45.9084V65.3876H54.7019V34.7468H54.6989Z" fill="#00557F"/>
<path id="Vector_3" d="M89.48 34.7468H95.7329L110.176 53.6131V34.7468H116.87V65.3876H111.103L96.1763 45.9084V65.3876H89.4831V34.7468H89.48Z" fill="#00557F"/>
<path id="Vector_4" d="M133.685 36.8481H122.94V34.7468H146.716V36.8481H135.971V65.3876H133.682V36.8481H133.685Z" fill="#F37121"/>
<path id="Vector_5" d="M153.673 34.7468H175.599V36.8481H155.96V48.8852H173.616V50.9865H155.96V63.2863H175.818V65.3876H153.67V34.7468H153.673Z" fill="#F37121"/>
<path id="Vector_6" d="M183.173 34.7468H185.463V63.2863H203.56V65.3876H183.173V34.7468Z" fill="#F37121"/>
</g>
<g id="Group_2">
<path id="Vector_7" d="M47.0125 78.7833C46.226 79.5653 45.1783 79.9577 44.1457 79.9577C41.4915 79.9577 40.1097 78.1131 40.0976 75.9997C40.0763 73.9105 41.446 71.9511 44.1457 71.9511C45.1813 71.9511 46.226 72.3436 47.0125 73.1255L46.5965 73.4818C45.9223 72.8116 45.0325 72.4855 44.1457 72.4855C41.8529 72.4855 40.6716 74.0947 40.6807 75.9725C40.7019 77.8051 41.8742 79.3932 44.1457 79.3932C45.0355 79.3932 45.9344 79.0581 46.6086 78.3969L47.0125 78.7773V78.7833Z" fill="#F37121"/>
<path id="Vector_8" d="M62.7739 75.9665C62.7617 78.0225 61.4468 80.003 58.8047 80.003C56.1626 80.003 54.8355 78.0134 54.8355 75.9454C54.8355 73.8773 56.1505 71.9209 58.8047 71.9209C61.4589 71.9209 62.786 73.8561 62.7739 75.9695V75.9665ZM55.4307 75.9544C55.4429 77.7206 56.5665 79.4415 58.8047 79.4415C61.0429 79.4415 62.1908 77.7206 62.1908 75.9544C62.1908 74.1882 61.0672 72.4764 58.8047 72.4764C56.5422 72.4764 55.4186 74.1097 55.4307 75.9544Z" fill="#F37121"/>
<path id="Vector_9" d="M77.8246 72.9141L74.812 77.4971H74.6085L71.5717 72.9141V79.8671H70.9643V72.0416H71.684L74.6966 76.6035L77.6758 72.0416H78.4168V79.8671H77.8215V72.9141H77.8246Z" fill="#F37121"/>
<path id="Vector_10" d="M93.7651 72.9141L90.7525 77.4971H90.549L87.5122 72.9141V79.8671H86.9048V72.0416H87.6245L90.6371 76.6035L93.6163 72.0416H94.3573V79.8671H93.762V72.9141H93.7651Z" fill="#F37121"/>
<path id="Vector_11" d="M108.864 72.0416V76.9054C108.864 80.9963 102.836 81.0083 102.836 76.9054V72.0416H103.431V76.9054C103.431 80.2717 108.266 80.2596 108.266 76.9054V72.0416H108.861H108.864Z" fill="#F37121"/>
<path id="Vector_12" d="M123.76 78.7833C122.974 79.5653 121.926 79.9577 120.893 79.9577C118.239 79.9577 116.857 78.1131 116.845 75.9997C116.824 73.9105 118.194 71.9511 120.893 71.9511C121.929 71.9511 122.974 72.3436 123.76 73.1255L123.344 73.4818C122.67 72.8116 121.78 72.4855 120.893 72.4855C118.601 72.4855 117.419 74.0947 117.428 75.9725C117.45 77.8051 118.622 79.3932 120.893 79.3932C121.783 79.3932 122.682 79.0581 123.356 78.3969L123.76 78.7773V78.7833Z" fill="#F37121"/>
<path id="Vector_13" d="M137.833 79.8671L136.967 77.944H132.266L131.413 79.8671H130.76L134.292 72.0416H134.954L138.486 79.8671H137.833ZM136.731 77.3854L134.617 72.6243L132.503 77.3854H136.731Z" fill="#F37121"/>
<path id="Vector_14" d="M147.187 72.5881H144.341V72.0507H150.639V72.5881H147.794V79.8672H147.187V72.5881Z" fill="#F37121"/>
<path id="Vector_15" d="M158.538 79.8671V72.0416H159.134V79.8671H158.538Z" fill="#F37121"/>
<path id="Vector_16" d="M175.448 75.9665C175.435 78.0225 174.12 80.003 171.478 80.003C168.836 80.003 167.509 78.0134 167.509 75.9454C167.509 73.8773 168.824 71.9209 171.478 71.9209C174.133 71.9209 175.46 73.8561 175.448 75.9695V75.9665ZM168.104 75.9544C168.117 77.7206 169.24 79.4415 171.478 79.4415C173.717 79.4415 174.865 77.7206 174.865 75.9544C174.865 74.1882 173.741 72.4764 171.478 72.4764C169.216 72.4764 168.092 74.1097 168.104 75.9544Z" fill="#F37121"/>
<path id="Vector_17" d="M183.899 72.0416L189.195 78.5146V72.0416H189.791V79.8671H189.554L184.245 73.4063V79.8671H183.638V72.0416H183.896H183.899Z" fill="#F37121"/>
<path id="Vector_18" d="M203.52 73.5512C202.946 72.6334 202.026 72.5005 201.136 72.4885C200.216 72.4885 198.752 72.8236 198.752 74.0765C198.752 75.0728 199.831 75.3053 201.158 75.5528C202.676 75.8427 204.249 76.1114 204.249 77.7991C204.237 79.5652 202.448 79.9909 201.133 79.9909C199.906 79.9909 198.513 79.4867 197.905 78.2912L198.446 78.0225C198.929 78.9735 200.168 79.4414 201.133 79.4414C202.099 79.4414 203.642 79.1727 203.642 77.787C203.654 76.6125 202.348 76.3559 201.054 76.1114C199.615 75.8306 198.142 75.5408 198.142 74.0976C198.109 72.4432 199.84 71.9299 201.133 71.9299C202.257 71.9299 203.235 72.1081 204.012 73.2614L203.517 73.5512H203.52Z" fill="#F37121"/>
</g>
<path id="Vector_19" d="M48.1422 1.10801C42.4906 5.8661 43.3409 13.0817 41.2607 19.283C41.2819 12.8553 41.3062 6.42765 41.3275 0C35.6668 6.19217 37.6225 13.8818 36.4989 21.0552C35.606 14.6788 34.7132 8.30251 33.8204 1.92618C28.1202 9.40146 32.2108 17.2239 32.2989 25.0253C30.7592 20.2883 29.2226 15.5514 27.61 10.5849C25.7727 13.8516 25.715 17.0337 26.7111 20.2279C27.6738 23.3225 29.5445 28.0565 30.6347 31.1118C30.4221 30.994 29.7388 29.8407 29.5475 29.5902C27.8651 26.7764 25.6876 23.0568 24.0052 20.243C23.8018 20.2913 23.8868 20.9435 23.8929 21.2967C24.1783 23.5429 24.1753 25.8767 24.8252 28.0112C25.4204 29.9675 26.6017 31.7488 27.5796 33.5905C30.2247 36.6911 33.9054 40.1208 38.9466 43.2365V41.6696L38.9527 38.6505L38.9284 27.3711H44.6498C45.986 18.7425 47.4984 9.22334 48.8437 0.528342C48.6099 0.715526 48.4216 0.83327 48.1483 1.10801H48.1422Z" fill="#00557F"/>
<g id="Group_3">
<path id="Vector_20" d="M23.4586 44.1512C20.0452 45.0781 17.0933 45.8842 13.8986 46.7537C16.5103 49.8936 18.9823 48.9516 23.4586 44.1512Z" fill="#F37121"/>
<path id="Vector_21" d="M19.9419 32.7451C20.115 32.5549 18.7211 30.828 18.5298 30.4446C13.6131 24.0652 8.69947 17.6859 3.52162 10.9684C2.74115 14.1203 2.49212 16.8194 4.5663 18.809C8.92724 22.9995 15.4443 28.6905 19.9419 32.7451Z" fill="#F37121"/>
<path id="Vector_22" d="M7.04742 41.573C9.59839 45.3619 14.2721 45.1506 19.9905 41.3073C15.6387 41.3979 11.4782 41.4824 7.04742 41.573Z" fill="#F37121"/>
<path id="Vector_23" d="M19.4469 38.252C19.4287 38.0768 18.4417 37.7085 17.804 37.4911C12.4136 36.3348 7.02313 35.1785 1.32294 33.9558C2.39191 36.6337 3.94375 38.2218 6.3125 38.3244C10.1177 38.4874 15.6357 38.2972 19.4469 38.255V38.252Z" fill="#F37121"/>
<path id="Vector_24" d="M3.81921 29.7532C7.88861 31.3291 14.8916 33.4908 19.046 34.8464C19.0035 34.6411 17.1207 33.6418 16.5194 33.2674C11.2808 29.9766 6.03916 26.6797 0.545471 23.2259C0.736794 26.6495 1.65089 28.9108 3.81921 29.7532Z" fill="#F37121"/>
<path id="Vector_25" d="M29.9787 47.8527C28.7458 49.178 27.6647 50.3434 26.3801 51.7292C29.3106 52.1428 30.003 51.3548 29.9787 47.8527Z" fill="#F37121"/>
<path id="Vector_26" d="M27.5736 33.5874C27.5736 33.5874 27.5675 33.5754 27.5645 33.5693C27.6282 33.6931 27.7011 33.8139 27.7649 33.9346C20.027 24.9649 16.4313 14.072 13.2487 2.62057C11.296 6.58465 10.9862 11.545 12.7385 15.5061C14.1931 18.7969 15.9059 22.0273 17.9163 25.0132C17.9163 25.0132 24.6551 36.054 38.9406 44.3686V43.2334C33.8994 40.1177 30.2187 36.685 27.5766 33.5874H27.5736Z" fill="#F37121"/>
<path id="Vector_27" d="M25.551 29.8166C25.5024 29.7139 25.4447 29.6113 25.3992 29.5086C25.4447 29.6113 25.5024 29.7139 25.551 29.8166Z" fill="#F37121"/>
<path id="Vector_28" d="M19.8751 50.0898C22.9666 51.6809 23.8291 51.2492 26.4226 46.6752C24.2938 47.7863 22.1649 48.8973 19.8751 50.0898Z" fill="#F37121"/>
<path id="Vector_29" d="M31.072 52.3541C33.7536 51.9828 33.7019 50.3464 33.5349 48.6769C32.8152 49.7517 32.0985 50.8235 31.072 52.3541Z" fill="#F37121"/>
</g>
</g>
<defs>
<clipPath id="clip0_0_254">
<rect width="203.704" height="80" fill="white" transform="translate(0.545471)"/>
</clipPath>
</defs>
</svg>
