<svg width="127" height="144" viewBox="0 0 127 144" fill="none" xmlns="http://www.w3.org/2000/svg">
<g id="Frame" clip-path="url(#clip0_0_213)">
<path id="Vector" fill-rule="evenodd" clip-rule="evenodd" d="M93.9963 81.7725C93.5519 83.2266 91.7122 85.7513 93.1094 88.1489C94.5037 90.5474 97.8657 86.7574 99.198 83.7913C100.494 80.8993 97.0578 71.7665 93.9973 81.7725M55.7439 0H36.8876C26.9697 9.07961 7.05381 30.0493 24.6989 42.3C31.4179 46.9651 42.0454 44.4271 46.3677 44.6359C50.692 44.8418 53.556 57.7494 53.556 57.7494C53.556 57.7494 56.3171 59.7208 56.3686 65.2154C56.4201 70.7092 53.6075 73.6648 56.5775 80.7664C59.5455 87.8689 61.9174 91.3162 62.9589 93.5695C63.9995 95.8266 64.5212 97.1203 70.1739 97.0178C75.8258 96.9143 78.1939 94.9705 80.3837 92.1942C82.5715 89.4255 82.5715 86.5828 84.994 85.1088C87.4156 83.629 87.2983 77.7101 87.2983 77.7101C87.2983 77.7101 91.674 76.6471 92.8719 72.915C94.0698 69.181 92.9511 62.4392 92.9243 59.5642C92.8976 56.6873 102.508 51.3749 106.414 43.495C110.323 35.6151 110.872 32.4772 107.901 32.2988C104.933 32.1146 100.555 34.8387 99.4603 34.5786C92.6268 31.7217 94.5781 12.1378 88.2253 9.39188C82.0823 6.71906 81.1839 9.44409 78.0251 5.54876C75.7094 2.6899 72.3551 7.64164 71.6465 9.90348L57.3739 5.54781L55.7439 0Z" fill="#DF5801"/>
<path id="Vector_2" fill-rule="evenodd" clip-rule="evenodd" d="M96.8423 81.3938L94.848 88.8086C96.3874 88.2818 98.2767 85.8425 99.198 83.7913C99.5003 83.1155 99.5461 82.0943 99.3945 81.0559L96.8423 81.3938Z" fill="#CB3300"/>
<path id="Vector_3" fill-rule="evenodd" clip-rule="evenodd" d="M93.9963 81.7725L96.8423 81.3938L99.3945 81.0559C98.9024 77.6702 96.3378 74.1147 93.9973 81.7725" fill="#D94B00"/>
<path id="Vector_4" fill-rule="evenodd" clip-rule="evenodd" d="M96.8423 81.3938L93.9964 81.7725C93.552 83.2266 91.7122 85.7513 93.1094 88.1489C93.5396 88.8902 94.1585 89.0392 94.8481 88.8086L96.8423 81.3938Z" fill="#D24100"/>
<path id="Vector_5" fill-rule="evenodd" clip-rule="evenodd" d="M79.4681 93.2867L83.5844 69.0519L75.1219 64.1885L77.6551 81.1546L79.4681 93.2867Z" fill="#D94B00"/>
<path id="Vector_6" fill-rule="evenodd" clip-rule="evenodd" d="M79.4681 93.2867L77.655 81.1546L65.9908 96.6647C66.9465 96.9324 68.2693 97.0558 70.1739 97.0188C75.0523 96.9324 77.4853 95.466 79.4681 93.2867Z" fill="#CB3300"/>
<path id="Vector_7" fill-rule="evenodd" clip-rule="evenodd" d="M65.9899 96.6638L77.6551 81.1546L75.1219 64.1885L65.9899 96.6638Z" fill="#D24100"/>
<path id="Vector_8" fill-rule="evenodd" clip-rule="evenodd" d="M65.9899 96.6638L75.122 64.1885L65.2098 68.6172L65.6018 82.6372L65.9899 96.6638Z" fill="#D94B00"/>
<path id="Vector_9" fill-rule="evenodd" clip-rule="evenodd" d="M65.6017 82.6372L65.2097 68.6172L55.5408 72.9368L65.6017 82.6372Z" fill="#D24100"/>
<path id="Vector_10" fill-rule="evenodd" clip-rule="evenodd" d="M65.6018 82.6372L55.5418 72.9368L55.2995 73.0431C55.0763 75.1806 55.2328 77.5459 56.5785 80.7674C59.5465 87.8699 61.9184 91.3172 62.9599 93.5705C63.6514 95.0702 64.113 96.1418 65.9918 96.6638L65.6027 82.6372H65.6018Z" fill="#CB3300"/>
<path id="Vector_11" fill-rule="evenodd" clip-rule="evenodd" d="M55.5408 72.9368L65.2098 68.6172L75.122 64.1884L68.7491 50.7L55.3339 72.7365L55.5408 72.9368Z" fill="#DF5801"/>
<path id="Vector_12" fill-rule="evenodd" clip-rule="evenodd" d="M55.3339 72.7365L68.7491 50.7L53.5561 57.7503C53.5561 57.7503 56.3172 59.7217 56.3687 65.2164C56.3954 68.0999 55.6343 70.2858 55.3339 72.7365Z" fill="#E76607"/>
<path id="Vector_13" fill-rule="evenodd" clip-rule="evenodd" d="M68.7491 50.7L75.1219 64.1885L80.4409 45.2747L68.7491 50.7Z" fill="#EE6E0A"/>
<path id="Vector_14" fill-rule="evenodd" clip-rule="evenodd" d="M80.4409 45.2747L75.1219 64.1885L93.4375 58.2088L80.4409 45.2747Z" fill="#DF5801"/>
<path id="Vector_15" fill-rule="evenodd" clip-rule="evenodd" d="M93.4375 58.2088L75.121 64.1885L83.5835 69.051L92.3483 74.0862C92.5581 73.7284 92.7336 73.3383 92.87 72.915C94.0679 69.181 92.9491 62.4392 92.9224 59.5642C92.9177 59.1608 93.1046 58.709 93.4375 58.2088Z" fill="#E76607"/>
<path id="Vector_16" fill-rule="evenodd" clip-rule="evenodd" d="M80.4409 45.2747L93.4375 58.2088C93.6053 57.9582 93.8123 57.6943 94.0488 57.4162L99.4584 34.5786L80.4409 45.2747Z" fill="#EE6E0A"/>
<path id="Vector_17" fill-rule="evenodd" clip-rule="evenodd" d="M99.4584 34.5786L94.0488 57.4162C96.4704 54.5963 102.219 50.496 105.543 45.0649L99.4584 34.5786Z" fill="#F57D10"/>
<path id="Vector_18" fill-rule="evenodd" clip-rule="evenodd" d="M99.4584 34.5786L105.543 45.0649C105.855 44.5542 106.148 44.0303 106.412 43.495C110.321 35.6151 110.87 32.4772 107.899 32.2988C104.931 32.1146 100.553 34.8387 99.4584 34.5786Z" fill="#F98213"/>
<path id="Vector_19" fill-rule="evenodd" clip-rule="evenodd" d="M80.4409 45.2747L99.4584 34.5787C93.2563 31.9846 94.2911 15.6183 89.7866 10.5603L87.5558 18.8445L80.4409 45.2747Z" fill="#FF8E19"/>
<path id="Vector_20" fill-rule="evenodd" clip-rule="evenodd" d="M80.4409 45.2747L87.5558 18.8445L75.0638 23.6539L80.4409 45.2747Z" fill="#FF951B"/>
<path id="Vector_21" fill-rule="evenodd" clip-rule="evenodd" d="M75.0638 23.6539L87.5558 18.8445L71.6447 9.90347L75.0638 23.6539Z" fill="#FF9F1F"/>
<path id="Vector_22" fill-rule="evenodd" clip-rule="evenodd" d="M75.0638 23.6539L71.6446 9.90347L65.8602 30.1195L80.4409 45.2747L75.0638 23.6539Z" fill="#FF8E19"/>
<path id="Vector_23" fill-rule="evenodd" clip-rule="evenodd" d="M80.4409 45.2747L65.8602 30.1195L68.7491 50.7L80.4409 45.2747Z" fill="#F57D10"/>
<path id="Vector_24" fill-rule="evenodd" clip-rule="evenodd" d="M53.5561 57.7503L65.8602 30.1195L51.1116 14.7869L52.6185 41.2664L53.5561 57.7503Z" fill="#F57D10"/>
<path id="Vector_25" fill-rule="evenodd" clip-rule="evenodd" d="M65.8602 30.1195L53.5561 57.7503L68.7491 50.7L65.8602 30.1195Z" fill="#EE6E0A"/>
<path id="Vector_26" fill-rule="evenodd" clip-rule="evenodd" d="M53.5561 57.7503L52.6186 41.2673L47.8413 45.2035C51.331 47.7225 53.5551 57.7513 53.5551 57.7513" fill="#F98213"/>
<path id="Vector_27" fill-rule="evenodd" clip-rule="evenodd" d="M47.8423 45.2025L52.6195 41.2664L39.2062 33.75L39.9806 44.9985C42.5862 44.8238 44.8599 44.5637 46.3687 44.6359C46.8799 44.6606 47.3721 44.8618 47.8423 45.2025Z" fill="#FF8E19"/>
<path id="Vector_28" fill-rule="evenodd" clip-rule="evenodd" d="M39.2052 33.751L52.6185 41.2664L51.1116 14.7869L39.2052 33.751Z" fill="#FF951B"/>
<path id="Vector_29" fill-rule="evenodd" clip-rule="evenodd" d="M51.1116 14.7869L65.8602 30.1195L71.6446 9.90347L51.1116 14.7869Z" fill="#FF9F1F"/>
<path id="Vector_30" fill-rule="evenodd" clip-rule="evenodd" d="M51.1116 14.7869L71.6446 9.90348L57.372 5.54781L55.7439 0L51.1116 14.7869Z" fill="#FFC600"/>
<path id="Vector_31" fill-rule="evenodd" clip-rule="evenodd" d="M51.1116 14.7869L55.7439 0H36.8876L51.1116 14.7869Z" fill="#FFCE00"/>
<path id="Vector_32" fill-rule="evenodd" clip-rule="evenodd" d="M51.1116 14.7869L36.8876 0L37.9711 15.774L39.2052 33.751L51.1116 14.7869Z" fill="#FFB211"/>
<path id="Vector_33" fill-rule="evenodd" clip-rule="evenodd" d="M37.9711 15.774L36.8877 0C32.5844 3.93804 26.4023 10.1132 22.2202 16.8446L37.9721 15.774H37.9711Z" fill="#FFD723"/>
<path id="Vector_34" fill-rule="evenodd" clip-rule="evenodd" d="M37.9711 15.774L22.2202 16.8446L31.4981 26.078L39.2052 33.751L37.9711 15.774Z" fill="#FFC600"/>
<path id="Vector_35" fill-rule="evenodd" clip-rule="evenodd" d="M31.4981 26.078L22.2201 16.8446C18.7581 22.4181 16.6627 28.3712 18.1467 33.751L31.4981 26.078Z" fill="#FFCE00"/>
<path id="Vector_36" fill-rule="evenodd" clip-rule="evenodd" d="M31.4981 26.078L18.1467 33.751H39.2052L31.4981 26.078Z" fill="#FFB211"/>
<path id="Vector_37" fill-rule="evenodd" clip-rule="evenodd" d="M39.2052 33.751H18.1467C19.0013 36.8528 21.0442 39.7629 24.6989 42.301C29.0746 45.3392 35.1099 45.3231 39.9796 44.9994L39.2052 33.751Z" fill="#FF9F1F"/>
<path id="Vector_38" fill-rule="evenodd" clip-rule="evenodd" d="M87.5558 18.8445L89.7866 10.5603C89.325 10.0458 88.81 9.64624 88.2225 9.39282C82.0795 6.72 81.181 9.44502 78.0223 5.54969C75.7066 2.69084 72.3523 7.64258 71.6437 9.90441L87.5549 18.8454L87.5558 18.8445Z" fill="#FFB211"/>
<path id="Vector_39" fill-rule="evenodd" clip-rule="evenodd" d="M121.651 111.655V121.023L113.855 111.655H109.743V129.232H114.637V119.865L122.433 129.232H126.545V111.655H121.651ZM94.7574 125.389V122.176H102.606V118.46H94.7574V115.494H103.663V111.655H89.8133V129.232H103.99V125.389H94.7574ZM70.9923 125.266V115.622H74.1463C77.1486 115.622 79.1667 117.406 79.1667 120.446C79.1667 123.486 77.1486 125.266 74.1463 125.266H70.9923ZM65.9956 129.232H74.3494C80.2025 129.232 84.2129 125.842 84.2129 120.446C84.2129 115.05 80.2025 111.655 74.3494 111.655H65.9956V129.232ZM47.6305 129.232H61.0534V125.29H52.6262V111.655H47.6305V129.232ZM32.2162 125.463C29.542 125.463 27.4495 123.481 27.4495 120.446C27.4495 117.41 29.542 115.42 32.2162 115.42C34.8905 115.42 36.9868 117.406 36.9868 120.446C36.9868 123.486 34.8924 125.463 32.2162 125.463ZM32.2162 129.582C37.8681 129.582 42.0321 125.719 42.0321 120.446C42.0321 115.172 37.8681 111.305 32.2162 111.305C26.5644 111.305 22.4042 115.173 22.4042 120.446C22.4042 125.718 26.5663 129.582 32.2162 129.582ZM12.7429 124.886C11.8587 125.29 10.9756 125.463 10.0419 125.463C7.06337 125.463 5.04622 123.407 5.04622 120.446C5.04622 117.484 7.06432 115.42 10.0934 115.42C11.7824 115.42 13.1711 116.046 14.3823 117.381L17.5583 114.518C15.8196 112.434 13.1453 111.305 9.8416 111.305C4.11251 111.305 0 115.094 0 120.446C0 125.797 4.11251 129.582 9.73955 129.582C12.3127 129.582 15.1129 128.808 17.1577 127.35V120.067H12.7429V124.886Z" fill="#3B0F00"/>
<path id="Vector_40" fill-rule="evenodd" clip-rule="evenodd" d="M96.7861 141.083L97.6769 138.875L98.5667 141.083H96.787H96.7861ZM99.6864 143.86H101.725L98.6582 136.964H96.7279L93.6712 143.86H95.6712L96.2148 142.521H99.1427L99.6873 143.86H99.6864ZM83.5797 144C84.8567 144 85.8858 143.539 86.5582 142.699L85.3126 141.578C84.8787 142.097 84.3427 142.386 83.6798 142.386C82.5411 142.386 81.7504 141.595 81.7504 140.417C81.7504 139.239 82.5411 138.447 83.6798 138.447C84.3427 138.447 84.8777 138.727 85.3126 139.255L86.5582 138.131C85.8858 137.295 84.8567 136.829 83.5797 136.829C81.3842 136.829 79.7695 138.316 79.7695 140.417C79.7695 142.517 81.3832 144.001 83.5797 144.001V144ZM69.5827 143.86H71.5426V136.964H69.5827V143.86ZM59.3357 139.518C59.3357 140.148 58.9304 140.523 58.1188 140.523H57.0305V138.504H58.1188C58.9304 138.504 59.3357 138.876 59.3357 139.518ZM59.3567 143.86H61.453L59.9604 141.693C60.8197 141.281 61.3138 140.531 61.3138 139.518C61.3138 137.944 60.1264 136.964 58.2361 136.964H55.0697V143.86H57.0296V142.031H58.0978L59.3567 143.86ZM46.961 138.471V136.964H41.5285V143.86H43.4865V141.495H46.5471V139.988H43.4865V138.472H46.961V138.471ZM28.8458 141.083L29.7375 138.875L30.6273 141.083H28.8458ZM31.747 143.86H33.7861L30.717 136.964H28.7876L25.7289 143.86H27.728L28.2716 142.521H31.2024L31.747 143.86Z" fill="#FF8E19"/>
</g>
<defs>
<clipPath id="clip0_0_213">
<rect width="126.545" height="144" fill="white"/>
</clipPath>
</defs>
</svg>
