<svg width="175" height="96" viewBox="0 0 175 96" fill="none" xmlns="http://www.w3.org/2000/svg">
<g id="Frame" clip-path="url(#clip0_0_287)">
<g id="Group">
<path id="Vector" d="M89.261 31.0897C89.2836 30.974 89.4021 30.974 89.4021 30.974C89.4021 30.974 92.1527 30.1587 95.651 30.2744C99.2199 30.39 101.971 32.1871 101.364 35.6149C100.944 38.1089 98.7995 41.6325 92.5477 41.3758L92.339 42.4958C91.8255 46.1803 93.5972 45.3876 93.2474 46.0421C92.8045 46.8828 91.171 47.9323 89.7717 47.9323C87.8814 47.9323 86.4821 46.7417 86.9956 43.85L89.2582 31.0925L89.261 31.0897ZM94.0655 32.7937L92.9709 38.975C94.8357 38.975 96.235 37.2738 96.5397 35.5698C96.8416 33.8206 95.8626 32.5144 94.0683 32.7937H94.0655Z" fill="#535D60"/>
<path id="Vector_2" d="M113.422 46.2029C113.027 46.9251 111.602 47.8363 110.296 47.8363C108.406 47.8363 107.125 46.485 107.497 44.2929C107.638 43.5002 108.011 41.3786 108.29 39.7677C108.71 37.4346 106.191 38.2527 105.678 41.0034C105.071 44.4537 104.583 47.2524 104.583 47.2524C104.56 47.368 104.467 47.3934 104.467 47.3934H99.99C99.99 47.3934 99.8969 47.3709 99.9195 47.2778C99.9195 47.2778 102.298 33.2394 102.741 30.7201C102.741 30.627 102.834 30.627 102.834 30.627H107.427C107.427 30.627 107.52 30.6044 107.497 30.7201C107.195 32.4213 106.775 34.8475 106.262 37.7618C107.613 35.849 109.387 35.1494 110.601 35.1494C112.327 35.1494 113.54 36.6644 113.12 38.9975C112.956 39.9765 112.793 40.8877 112.491 42.6369C111.836 46.3439 113.749 45.5512 113.425 46.2057L113.422 46.2029Z" fill="#535D60"/>
<path id="Vector_3" d="M119.296 47.9295C115.541 47.9295 113.278 45.1083 113.884 41.5874C114.491 38.0891 117.755 35.2453 121.51 35.2453C125.265 35.2453 127.55 38.0891 126.944 41.5874C126.315 45.1083 123.118 47.9295 119.296 47.9295ZM119.738 45.2945C121.138 45.2945 121.979 43.6384 122.351 41.5874C122.701 39.5815 122.421 37.8803 121.067 37.8803C119.713 37.8803 118.83 39.5815 118.48 41.5874C118.13 43.5453 118.387 45.2945 119.738 45.2945Z" fill="#535D60"/>
<path id="Vector_4" d="M138.886 44.149C138.443 45.128 136.017 47.8815 132.612 47.8815C129.206 47.8815 126.806 45.0377 127.412 41.514C127.996 38.1088 131.167 35.172 135.179 35.172C139.191 35.172 140.215 37.5728 139.936 39.2289C139.284 42.8908 134.945 43.3337 131.983 42.8203C132.38 45.1534 135.433 45.3847 138.559 43.7992C138.674 43.7287 138.793 43.7061 138.861 43.7766C138.954 43.8472 138.976 43.9403 138.883 44.149H138.886ZM132.146 40.7664C134.2 40.9526 135.365 40.1824 135.574 38.9242C135.69 38.295 135.272 37.759 134.547 37.8042C134.547 37.8042 134.524 37.8267 134.502 37.8267H134.431C134.268 37.8493 134.059 37.9198 133.847 38.0355C132.984 38.501 132.448 39.621 132.143 40.7636L132.146 40.7664Z" fill="#535D60"/>
<path id="Vector_5" d="M153.204 46.2029C152.806 46.9251 151.407 47.8364 150.1 47.8364C148.235 47.8364 146.907 46.485 147.279 44.2929C147.42 43.5002 147.793 41.3786 148.094 39.7677C148.492 37.4346 145.995 38.2527 145.482 41.0034C145.016 43.661 144.387 47.2524 144.387 47.2524C144.365 47.368 144.246 47.3934 144.246 47.3934H139.583C139.583 47.3934 139.49 47.3709 139.512 47.2778C139.512 47.2778 140.632 41.9598 140.912 40.3517C141.566 36.6446 139.817 37.4374 140.167 36.8083C140.539 36.0607 141.939 35.1522 143.245 35.1522C144.878 35.1522 145.973 36.1791 145.973 37.8803C147.35 35.8745 149.144 35.1522 150.38 35.1522C152.129 35.1522 153.342 36.6672 152.921 39.0003C152.758 39.9793 152.572 40.8906 152.27 42.6397C151.615 46.3468 153.553 45.554 153.204 46.2085V46.2029Z" fill="#535D60"/>
<path id="Vector_6" d="M158.448 47.3906H153.807C153.807 47.3906 153.714 47.368 153.714 47.2749C153.714 47.2749 154.834 41.957 155.114 40.3489C155.765 36.6418 154.064 37.4346 154.343 36.8055C154.738 36.0578 156.163 35.1494 157.469 35.1494C159.36 35.1494 160.477 36.5008 160.082 38.6928C159.754 40.5125 158.567 47.2524 158.567 47.2524C158.567 47.368 158.451 47.3934 158.451 47.3934L158.448 47.3906ZM157.935 34.5175C156.442 34.5175 155.393 33.5611 155.602 32.3479C155.81 31.1574 157.21 30.1784 158.702 30.1784C160.195 30.1784 161.244 31.1574 161.035 32.3479C160.824 33.5611 159.427 34.5175 157.932 34.5175H157.935Z" fill="#535D60"/>
<path id="Vector_7" d="M172.862 47.2524C172.884 47.3229 172.862 47.3934 172.769 47.3934H167.614C167.521 47.3934 167.451 47.3229 167.428 47.2778L165.538 43.2434C163.439 43.7795 165.304 46.0421 165.259 46.2509C165.143 47.021 163.859 47.9069 162.553 47.9069C160.688 47.9069 159.709 46.7869 159.918 45.1788C160.197 43.1278 161.667 41.8441 164.536 41.215L161.693 35.7814C161.67 35.7108 161.741 35.6657 161.786 35.6657H166.847C166.918 35.6657 166.988 35.7136 167.011 35.7814L168.923 39.7452C170.881 39.2091 169.039 37.0622 169.064 36.8986C169.18 36.1284 170.464 35.2651 171.77 35.2651C173.635 35.2651 174.662 36.5487 174.382 38.1342C174.055 39.906 172.075 41.1416 169.88 41.61L172.865 47.2524H172.862Z" fill="#535D60"/>
</g>
<g id="Group_2">
<path id="Vector_8" d="M27.0309 29.7468C27.3102 30.4888 36.0926 37.2004 46.7849 37.9734C59.5086 38.8932 65.2526 34.6839 63.9971 30.0261C62.6965 25.199 58.1431 24.6827 51.3525 25.8084C47.0783 26.5165 36.6201 29.081 27.0309 29.7468Z" fill="url(#paint0_linear_0_287)"/>
<path id="Vector_9" d="M66.7845 44.149C66.7845 44.149 62.4426 50.6265 53.5022 50.4206C43.3741 50.1836 41.498 47.4245 38.1774 50.1413C34.9415 52.7876 36.2731 60.7293 46.7229 61.0086C53.079 61.1778 62.5611 58.3595 66.7845 44.1519V44.149Z" fill="url(#paint1_linear_0_287)"/>
<path id="Vector_10" d="M10.4986 5.37156C8.84537 5.80603 6.01005 9.07016 9.24316 13.4995C12.2618 17.6325 16.9225 20.0898 24.3366 19.582C32.6958 19.0121 34.4591 17.3984 34.4591 17.3984C34.4591 17.3984 24.7344 19.5566 19.5039 12.1058C15.2326 6.02044 13.0856 4.68601 10.4958 5.36874L10.4986 5.37156Z" fill="url(#paint2_linear_0_287)"/>
<path id="Vector_11" d="M77.9226 15.8749C77.9226 15.8749 76.2581 10.9801 78.9185 9.05608C81.0485 7.5157 84.6596 8.7401 85.4524 10.1676C82.1234 9.77266 78.8818 13.6321 77.9226 15.8749Z" fill="url(#paint3_linear_0_287)"/>
<path id="Vector_12" d="M34.4619 58.5005C35.8104 59.1381 37.6245 61.0396 40.3836 61.965C46.026 63.8636 50.5541 62.5913 55.0821 60.402C50.207 64.3489 43.9976 68.0729 35.1587 65.184C28.1226 62.8847 30.4812 56.616 34.4619 58.4977V58.5005Z" fill="url(#paint4_linear_0_287)"/>
<path id="Vector_13" d="M56.9949 61.0142C56.9949 61.0142 52.8928 63.7057 51.2255 66.0303C48.1955 70.2565 48.5369 74.446 51.2481 75.9751C53.8944 77.4675 56.5463 74.5786 55.5814 71.89C53.9649 67.3732 54.1906 64.2332 56.9949 61.017V61.0142Z" fill="url(#paint5_linear_0_287)"/>
<path id="Vector_14" d="M50.7826 64.6198C50.7826 64.6198 44.5844 67.1617 40.4259 76.8412C38.3185 81.7445 37.8586 88.4956 40.962 89.2912C44.4941 90.194 45.1373 86.4615 45.1402 81.389C45.143 72.6433 47.5579 68.0532 50.7854 64.6226L50.7826 64.6198Z" fill="url(#paint6_linear_0_287)"/>
<path id="Vector_15" d="M32.6846 67.8387C30.5235 66.4874 28.1763 70.4455 31.6464 72.0621C37.4242 74.7535 43.9355 68.4537 44.8947 67.3676C45.8765 66.2504 42.2428 68.1857 39.9238 68.5327C36.5581 69.0349 35.1644 69.3904 32.6817 67.8387H32.6846Z" fill="url(#paint7_linear_0_287)"/>
<path id="Vector_16" d="M66.3161 28.5337C73.4171 39.0652 65.6532 51.8058 59.5396 59.1071C62.6232 57.293 64.9281 54.6355 67.8988 52.5844C83.5029 40.1401 83.6835 30.3421 78.7351 21.3029C76.3794 17.0006 75.8067 14.0327 76.2129 11.9788C76.1706 10.7996 76.7518 9.54413 77.522 8.40436C65.45 11.5387 71.0501 21.2239 72.3563 25.4839C62.1859 7.78933 41.6786 19.3478 26.8164 21.207C11.9543 23.0662 8.5181 16.82 8.5181 16.82C9.53937 21.1619 16.6657 30.0035 28.6079 28.4124C45.112 26.209 60.465 19.8669 66.3133 28.5393L66.3161 28.5337Z" fill="url(#paint8_linear_0_287)"/>
<path id="Vector_17" d="M57.6945 62.7267C52.3286 69.3001 62.0392 74.9143 64.962 67.3958C66.1384 64.3686 64.5867 59.8491 65.8789 55.9502C61.2888 59.4231 59.3732 60.67 57.6945 62.7267Z" fill="url(#paint9_linear_0_287)"/>
<path id="Vector_18" d="M66.2089 11.1889C67.2133 11.6996 68.4433 11.2989 68.9568 10.2918C69.4674 9.2846 69.064 8.05455 68.0597 7.54392C67.0525 7.03328 65.8224 7.43389 65.3118 8.44106C64.8012 9.44823 65.2046 10.6783 66.2089 11.1889Z" fill="url(#paint10_radial_0_287)"/>
<path id="Vector_19" d="M70.5113 7.22794C71.225 7.59187 72.0996 7.30693 72.4607 6.59034C72.8247 5.87658 72.5397 5.002 71.826 4.64089C71.1122 4.27695 70.2376 4.5619 69.8737 5.27848C69.5097 5.99225 69.7975 6.86682 70.5113 7.22794Z" fill="url(#paint11_radial_0_287)"/>
<path id="Vector_20" d="M6.93822 17.9175C6.93822 19.046 6.02415 19.96 4.89567 19.96C3.76719 19.96 2.85312 19.046 2.85312 17.9175C2.85312 16.789 3.76719 15.8749 4.89567 15.8749C6.02415 15.8749 6.93822 16.789 6.93822 17.9175Z" fill="url(#paint12_radial_0_287)"/>
<path id="Vector_21" d="M6.93822 2.04255C6.93822 3.17104 6.02415 4.08511 4.89567 4.08511C3.76719 4.08511 2.85312 3.17104 2.85312 2.04255C2.85312 0.914071 3.76437 0 4.89285 0C6.02133 0 6.9354 0.914071 6.9354 2.04255H6.93822Z" fill="url(#paint13_radial_0_287)"/>
<path id="Vector_22" d="M5.45145 9.98425C5.45145 11.4202 4.28629 12.5854 2.8503 12.5854C1.4143 12.5854 0.249146 11.4202 0.249146 9.98425C0.249146 8.54826 1.4143 7.38028 2.8503 7.38028C4.28629 7.38028 5.45145 8.54544 5.45145 9.98425Z" fill="url(#paint14_radial_0_287)"/>
<path id="Vector_23" d="M9.16978 23.3229C9.16978 24.0987 8.54066 24.7279 7.76482 24.7279C6.98899 24.7279 6.35986 24.0987 6.35986 23.3229C6.35986 22.5471 6.98899 21.9179 7.76482 21.9179C8.54066 21.9179 9.16978 22.5471 9.16978 23.3229Z" fill="url(#paint15_radial_0_287)"/>
<path id="Vector_24" d="M12.1687 27.2105C12.1687 27.8792 11.6271 28.4208 10.9584 28.4208C10.2898 28.4208 9.74814 27.8792 9.74814 27.2105C9.74814 26.5419 10.2898 26.0002 10.9584 26.0002C11.6271 26.0002 12.1687 26.5419 12.1687 27.2105Z" fill="url(#paint16_radial_0_287)"/>
<path id="Vector_25" d="M16.5331 30.0882C16.5331 30.7568 15.9915 31.2985 15.3228 31.2985C14.6542 31.2985 14.1125 30.7568 14.1125 30.0882C14.1125 29.4195 14.6542 28.8779 15.3228 28.8779C15.9915 28.8779 16.5331 29.4195 16.5331 30.0882Z" fill="url(#paint17_radial_0_287)"/>
<path id="Vector_26" d="M22.3223 31.2985C22.3223 31.9671 21.7806 32.5088 21.112 32.5088C20.4433 32.5088 19.9017 31.9671 19.9017 31.2985C19.9017 30.6298 20.4433 30.0882 21.112 30.0882C21.7806 30.0882 22.3223 30.6298 22.3223 31.2985Z" fill="url(#paint18_radial_0_287)"/>
<path id="Vector_27" d="M34.2419 87.2148C34.05 88.7241 32.6704 89.7905 31.1639 89.5987C29.6546 89.4097 28.5853 88.0301 28.7772 86.5208C28.969 85.0142 30.3458 83.9422 31.8551 84.1368C33.3616 84.3287 34.4309 85.7054 34.2419 87.2148Z" fill="url(#paint19_radial_0_287)"/>
<path id="Vector_28" d="M36.1208 80.5765C35.9882 81.6118 35.0403 82.3482 34.0049 82.2156C32.9667 82.0858 32.2332 81.1379 32.3658 80.0997C32.4955 79.0643 33.4435 78.3308 34.4817 78.4606C35.5171 78.5932 36.2506 79.5411 36.1208 80.5765Z" fill="url(#paint20_radial_0_287)"/>
<path id="Vector_29" d="M31.8354 94.3439C31.7028 95.3793 30.7577 96.1156 29.7195 95.983C28.6841 95.8533 27.9477 94.9053 28.0832 93.8671C28.2129 92.8318 29.1609 92.0954 30.1991 92.228C31.2345 92.3606 31.968 93.3085 31.8382 94.3439H31.8354Z" fill="url(#paint21_radial_0_287)"/>
<path id="Vector_30" d="M39.3454 75.7945C39.2298 76.686 38.4172 77.3208 37.5229 77.2051C36.6286 77.0923 35.9966 76.277 36.1123 75.3826C36.2252 74.4883 37.0405 73.8564 37.9348 73.9692C38.8291 74.0821 39.4611 74.8974 39.3482 75.7917L39.3454 75.7945Z" fill="url(#paint22_radial_0_287)"/>
<path id="Vector_31" d="M75.2142 6.00917C75.9195 6.36746 76.7828 6.08534 77.1383 5.38004C77.4966 4.67474 77.2145 3.81427 76.5092 3.45598C75.8039 3.09768 74.9434 3.3798 74.5851 4.08511C74.2268 4.79041 74.5089 5.65088 75.2142 6.00917Z" fill="url(#paint23_radial_0_287)"/>
</g>
</g>
<defs>
<linearGradient id="paint0_linear_0_287" x1="44.3756" y1="23.3793" x2="46.8837" y2="37.5898" gradientUnits="userSpaceOnUse">
<stop stop-color="#85085B"/>
<stop offset="1" stop-color="#CF1111"/>
</linearGradient>
<linearGradient id="paint1_linear_0_287" x1="65.8901" y1="49.0072" x2="29.522" y2="59.5669" gradientUnits="userSpaceOnUse">
<stop stop-color="#FFC800"/>
<stop offset="0.26" stop-color="#FE9104"/>
<stop offset="0.61" stop-color="#FC4B09"/>
<stop offset="0.87" stop-color="#FC1E0C"/>
<stop offset="1" stop-color="#FC0E0E"/>
</linearGradient>
<linearGradient id="paint2_linear_0_287" x1="4.2327" y1="2.54471" x2="28.196" y2="20.6569" gradientUnits="userSpaceOnUse">
<stop offset="0.18" stop-color="#FFC800"/>
<stop offset="1" stop-color="#FC0E0E"/>
</linearGradient>
<linearGradient id="paint3_linear_0_287" x1="77.4091" y1="12.1086" x2="85.4524" y2="12.1086" gradientUnits="userSpaceOnUse">
<stop stop-color="#85085B"/>
<stop offset="1" stop-color="#CF1111"/>
</linearGradient>
<linearGradient id="paint4_linear_0_287" x1="30.6561" y1="62.1822" x2="55.0821" y2="62.1822" gradientUnits="userSpaceOnUse">
<stop stop-color="#85085B"/>
<stop offset="1" stop-color="#CF1111"/>
</linearGradient>
<linearGradient id="paint5_linear_0_287" x1="55.2034" y1="93.9462" x2="52.6954" y2="62.1822" gradientUnits="userSpaceOnUse">
<stop offset="0.37" stop-color="#FFC800"/>
<stop offset="1" stop-color="#FC0E0E"/>
</linearGradient>
<linearGradient id="paint6_linear_0_287" x1="37.5003" y1="98.6971" x2="49.2027" y2="58.8504" gradientUnits="userSpaceOnUse">
<stop offset="0.18" stop-color="#FFC800"/>
<stop offset="1" stop-color="#FC0E0E"/>
</linearGradient>
<linearGradient id="paint7_linear_0_287" x1="20.8863" y1="77.2982" x2="44.2938" y2="64.758" gradientUnits="userSpaceOnUse">
<stop offset="0.18" stop-color="#FFC800"/>
<stop offset="1" stop-color="#FC0E0E"/>
</linearGradient>
<linearGradient id="paint8_linear_0_287" x1="44.4462" y1="16.1937" x2="81.0823" y2="42.9077" gradientUnits="userSpaceOnUse">
<stop offset="0.18" stop-color="#FFC800"/>
<stop offset="1" stop-color="#FC0E0E"/>
</linearGradient>
<linearGradient id="paint9_linear_0_287" x1="56.1062" y1="63.4687" x2="65.8789" y2="63.4687" gradientUnits="userSpaceOnUse">
<stop stop-color="#85085B"/>
<stop offset="1" stop-color="#CF1111"/>
</linearGradient>
<radialGradient id="paint10_radial_0_287" cx="0" cy="0" r="1" gradientUnits="userSpaceOnUse" gradientTransform="translate(66.6254 8.28839) rotate(116.91) scale(2.98766)">
<stop stop-color="#CF1111"/>
<stop offset="1" stop-color="#85085B"/>
</radialGradient>
<radialGradient id="paint11_radial_0_287" cx="0" cy="0" r="1" gradientUnits="userSpaceOnUse" gradientTransform="translate(70.809 5.1694) rotate(116.91) scale(2.12155 2.12155)">
<stop stop-color="#CF1111"/>
<stop offset="1" stop-color="#85085B"/>
</radialGradient>
<radialGradient id="paint12_radial_0_287" cx="0" cy="0" r="1" gradientUnits="userSpaceOnUse" gradientTransform="translate(4.15934 16.9752) scale(2.98766)">
<stop stop-color="#CF1111"/>
<stop offset="1" stop-color="#85085B"/>
</radialGradient>
<radialGradient id="paint13_radial_0_287" cx="0" cy="0" r="1" gradientUnits="userSpaceOnUse" gradientTransform="translate(4.15934 1.10027) scale(2.98766)">
<stop stop-color="#CF1111"/>
<stop offset="1" stop-color="#85085B"/>
</radialGradient>
<radialGradient id="paint14_radial_0_287" cx="0" cy="0" r="1" gradientUnits="userSpaceOnUse" gradientTransform="translate(1.91648 8.78242) scale(3.80299)">
<stop stop-color="#CF1111"/>
<stop offset="1" stop-color="#85085B"/>
</radialGradient>
<radialGradient id="paint15_radial_0_287" cx="0" cy="0" r="1" gradientUnits="userSpaceOnUse" gradientTransform="translate(7.26265 22.674) scale(2.05102)">
<stop stop-color="#CF1111"/>
<stop offset="1" stop-color="#85085B"/>
</radialGradient>
<radialGradient id="paint16_radial_0_287" cx="0" cy="0" r="1" gradientUnits="userSpaceOnUse" gradientTransform="translate(10.524 26.6519) scale(1.7689 1.7689)">
<stop stop-color="#CF1111"/>
<stop offset="1" stop-color="#85085B"/>
</radialGradient>
<radialGradient id="paint17_radial_0_287" cx="0" cy="0" r="1" gradientUnits="userSpaceOnUse" gradientTransform="translate(14.8884 29.5296) scale(1.7689)">
<stop stop-color="#CF1111"/>
<stop offset="1" stop-color="#85085B"/>
</radialGradient>
<radialGradient id="paint18_radial_0_287" cx="0" cy="0" r="1" gradientUnits="userSpaceOnUse" gradientTransform="translate(20.6803 30.7399) scale(1.76889 1.7689)">
<stop stop-color="#CF1111"/>
<stop offset="1" stop-color="#85085B"/>
</radialGradient>
<radialGradient id="paint19_radial_0_287" cx="0" cy="0" r="1" gradientUnits="userSpaceOnUse" gradientTransform="translate(30.6816 85.4808) rotate(7.23) scale(4.02304 4.02304)">
<stop stop-color="#CF1111"/>
<stop offset="1" stop-color="#85085B"/>
</radialGradient>
<radialGradient id="paint20_radial_0_287" cx="0" cy="0" r="1" gradientUnits="userSpaceOnUse" gradientTransform="translate(33.6731 79.3849) rotate(7.23001) scale(2.76478 2.76479)">
<stop stop-color="#CF1111"/>
<stop offset="1" stop-color="#85085B"/>
</radialGradient>
<radialGradient id="paint21_radial_0_287" cx="0" cy="0" r="1" gradientUnits="userSpaceOnUse" gradientTransform="translate(29.3871 93.1512) rotate(7.23) scale(2.76478)">
<stop stop-color="#CF1111"/>
<stop offset="1" stop-color="#85085B"/>
</radialGradient>
<radialGradient id="paint22_radial_0_287" cx="0" cy="0" r="1" gradientUnits="userSpaceOnUse" gradientTransform="translate(37.2337 74.7661) rotate(7.23) scale(2.3811 2.3811)">
<stop stop-color="#CF1111"/>
<stop offset="1" stop-color="#85085B"/>
</radialGradient>
<radialGradient id="paint23_radial_0_287" cx="0" cy="0" r="1" gradientUnits="userSpaceOnUse" gradientTransform="translate(75.5072 3.97888) rotate(116.91) scale(2.09334 2.09334)">
<stop stop-color="#CF1111"/>
<stop offset="1" stop-color="#85085B"/>
</radialGradient>
<clipPath id="clip0_0_287">
<rect width="174.173" height="96" fill="white" transform="translate(0.249146)"/>
</clipPath>
</defs>
</svg>
