<svg width="59" height="24" viewBox="0 0 59 24" fill="none" xmlns="http://www.w3.org/2000/svg">
<g id="Stripe">
<path d="M31.6506 3.25232L27.6066 4.11747V0.849127L31.6506 0V3.25232Z" fill="#6461FC"/>
<path d="M15.2171 1.85856L11.286 2.69167L11.2699 15.5247C11.2699 17.8959 13.0582 19.6422 15.4427 19.6422C16.7638 19.6422 17.7304 19.4019 18.2621 19.1135V15.8612C17.7466 16.0694 15.201 16.8064 15.201 14.4353V8.74771H18.2621V5.33518H15.201L15.2171 1.85856Z" fill="#6461FC"/>
<path d="M5.69558 8.53944C4.84169 8.53944 4.32613 8.77976 4.32613 9.40459C4.32613 10.0868 5.21341 10.3869 6.31418 10.7592C8.10871 11.3662 10.4706 12.165 10.4806 15.1242C10.4806 17.992 8.1767 19.6422 4.82557 19.6422C3.44001 19.6422 1.92556 19.3698 0.427223 18.729V14.9159C1.78056 15.6529 3.48835 16.1976 4.82557 16.1976C5.7278 16.1976 6.37225 15.9573 6.37225 15.2203C6.37225 14.4646 5.41042 14.1192 4.24922 13.7022C2.4808 13.0672 0.25 12.2661 0.25 9.59685C0.25 6.76108 2.42501 5.06282 5.69558 5.06282C7.03281 5.06282 8.35392 5.2711 9.69115 5.7998V9.56481C8.4667 8.90793 6.92003 8.53944 5.69558 8.53944Z" fill="#6461FC"/>
<path d="M23.2729 6.52056L23.0151 5.33499H19.5351V19.3536H23.5629V9.85299C24.5134 8.61935 26.1245 8.84365 26.624 9.01988V5.33499C26.1084 5.14273 24.2234 4.79026 23.2729 6.52056Z" fill="#6461FC"/>
<path d="M27.6064 5.33517H31.6504V19.3538H27.6064V5.33517Z" fill="#6461FC"/>
<path fill-rule="evenodd" clip-rule="evenodd" d="M58.25 12.4006C58.25 8.29912 56.2522 5.06282 52.4339 5.06282C48.5994 5.06282 46.2794 8.29912 46.2794 12.3685C46.2794 17.1909 49.0183 19.6262 52.9494 19.6262C54.8667 19.6262 56.3167 19.1936 57.4122 18.5848V15.3805C56.3167 15.9252 55.06 16.2617 53.465 16.2617C51.9022 16.2617 50.5167 15.717 50.3394 13.8265H58.2178C58.2178 13.7382 58.2236 13.5378 58.2302 13.3069L58.2302 13.3064C58.2393 12.9924 58.25 12.6221 58.25 12.4006ZM50.291 10.8786C50.291 9.06822 51.4027 8.31522 52.4177 8.31522C53.4005 8.31522 54.4477 9.06822 54.4477 10.8786H50.291Z" fill="#6461FC"/>
<path fill-rule="evenodd" clip-rule="evenodd" d="M36.9026 6.31248C37.4665 5.7998 38.4815 5.06282 40.0604 5.06282C42.8798 5.06282 45.5382 7.59419 45.5543 12.2404C45.5543 17.3191 42.9282 19.6262 40.0443 19.6262C38.6265 19.6262 37.7726 19.0334 37.1926 18.6168L37.1765 23.1509L33.1487 24V5.31916H36.6931L36.9026 6.31248ZM37.1925 15.3483C37.5792 15.7649 38.1431 16.1013 39.0936 16.1013C40.5759 16.1013 41.5748 14.4992 41.5748 12.3524C41.5748 10.2536 40.5597 8.6194 39.0936 8.6194C38.1753 8.6194 37.5953 8.93983 37.1764 9.40444L37.1925 15.3483Z" fill="#6461FC"/>
</g>
</svg>
