<svg width="59" height="18" viewBox="0 0 59 18" fill="none" xmlns="http://www.w3.org/2000/svg">
<path id="visa-logo" fill-rule="evenodd" clip-rule="evenodd" d="M15.2506 17.8599H10.2311L6.46703 3.89599C6.28838 3.25365 5.90904 2.68578 5.35104 2.41814C3.95849 1.74555 2.42399 1.21027 0.75 0.940298V0.402689H8.83608C9.95207 0.402689 10.7891 1.21027 10.9286 2.14817L12.8816 12.2208L17.8987 0.402689H22.7787L15.2506 17.8599ZM25.5687 17.8599H20.8282L24.7317 0.402689H29.4722L25.5687 17.8599ZM35.6053 5.23878C35.7448 4.29855 36.5818 3.76094 37.5583 3.76094C39.0928 3.62596 40.7644 3.89592 42.1594 4.56619L42.9964 0.807578C41.6014 0.269968 40.0669 0 38.6743 0C34.0733 0 30.7253 2.41808 30.7253 5.77407C30.7253 8.32713 33.0968 9.66766 34.7708 10.4752C36.5818 11.2805 37.2793 11.8181 37.1398 12.6234C37.1398 13.8312 35.7448 14.3688 34.3523 14.3688C32.6783 14.3688 31.0043 13.9662 29.4722 13.2936L28.6352 17.0546C30.3092 17.7248 32.1203 17.9948 33.7943 17.9948C38.9533 18.1275 42.1594 15.7117 42.1594 12.0857C42.1594 7.51955 35.6053 7.25191 35.6053 5.23878ZM58.75 17.8599L54.986 0.402689H50.9429C50.1059 0.402689 49.2689 0.940298 48.9899 1.74555L42.0198 17.8599H46.8999L47.8739 15.3091H53.87L54.428 17.8599H58.75ZM51.6404 5.10372L53.0329 11.683H49.1294L51.6404 5.10372Z" fill="#002EFF"/>
</svg>
