<svg width="162" height="100" viewBox="0 0 162 100" fill="none" xmlns="http://www.w3.org/2000/svg">
<g id="logo 4">
<path id="Combined Shape" fill-rule="evenodd" clip-rule="evenodd" d="M67.203 30L55.879 49.612L67.203 69.223H89.847L101.171 49.612L89.847 30H67.203ZM68.235 49.6122L73.381 40.7002H83.669L88.815 49.6122L83.669 58.5232H73.381L68.235 49.6122ZM18 41.4409V43.6439H20.708V57.7829H23.05V43.6439H25.759V41.4409H18ZM34 57.7834H27.021V41.4404H34V43.6434H29.363V48.4414H33.402V50.6444H29.363V55.4424H34V57.7834ZM43.3647 41.4404H40.8847L39.0947 46.2834L37.3277 41.4404H34.8487L37.9017 49.2214L34.5947 57.7834H37.0757L39.0947 52.2744L41.1377 57.7834H43.6167L40.2417 49.2214L43.3647 41.4404ZM46.439 43.6439H43.73V41.4409H51.49V43.6439H48.781V57.7839H46.439V43.6439ZM108.941 41.4404H106.599V57.7834H113.578V55.4424H108.941V41.4404ZM130.529 41.5552C130.995 41.7242 131.419 41.9682 131.802 42.2892C132.169 42.6262 132.468 43.0472 132.697 43.5522C132.927 44.0572 133.042 44.6392 133.042 45.2962V46.1232H130.7V45.2962C130.7 44.7302 130.544 44.3132 130.23 44.0452C129.915 43.7772 129.544 43.6432 129.116 43.6432C128.689 43.6432 128.318 43.7772 128.003 44.0452C127.689 44.3132 127.532 44.7302 127.532 45.2962V53.9272C127.532 54.4932 127.689 54.9102 128.003 55.1782C128.318 55.4462 128.689 55.5802 129.116 55.5802C129.544 55.5802 129.915 55.4462 130.23 55.1782C130.544 54.9102 130.7 54.4932 130.7 53.9272V50.8522H128.841V48.7852H133.042V53.9272C133.042 54.6152 132.927 55.2052 132.697 55.6942C132.468 56.1852 132.169 56.5902 131.802 56.9112C131.419 57.2482 130.995 57.5002 130.529 57.6682C130.062 57.8372 129.591 57.9212 129.116 57.9212C128.642 57.9212 128.171 57.8372 127.704 57.6682C127.238 57.5002 126.822 57.2482 126.454 56.9112C126.072 56.5902 125.765 56.1852 125.536 55.6942C125.306 55.2052 125.191 54.6152 125.191 53.9272V45.2962C125.191 44.6392 125.306 44.0572 125.536 43.5522C125.765 43.0472 126.072 42.6262 126.454 42.2892C126.822 41.9682 127.238 41.7242 127.704 41.5552C128.171 41.3872 128.642 41.3032 129.116 41.3032C129.591 41.3032 130.062 41.3872 130.529 41.5552ZM120.693 53.927C120.693 54.493 120.537 54.91 120.222 55.178C119.908 55.447 119.537 55.58 119.109 55.58C118.681 55.58 118.31 55.447 117.996 55.178C117.681 54.91 117.525 54.493 117.525 53.927V45.296C117.525 44.731 117.681 44.314 117.996 44.045C118.31 43.778 118.681 43.644 119.109 43.644C119.537 43.644 119.908 43.778 120.222 44.045C120.537 44.314 120.693 44.731 120.693 45.296V53.927ZM121.795 42.2887C121.412 41.9677 120.988 41.7237 120.521 41.5547C120.054 41.3867 119.584 41.3027 119.109 41.3027C118.634 41.3027 118.164 41.3867 117.697 41.5547C117.23 41.7237 116.814 41.9677 116.447 42.2887C116.064 42.6257 115.757 43.0467 115.529 43.5517C115.298 44.0567 115.183 44.6387 115.183 45.2957V53.9267C115.183 54.6147 115.298 55.2047 115.529 55.6947C115.757 56.1847 116.064 56.5897 116.447 56.9107C116.814 57.2477 117.23 57.4997 117.697 57.6677C118.164 57.8367 118.634 57.9207 119.109 57.9207C119.584 57.9207 120.054 57.8367 120.521 57.6677C120.988 57.4997 121.412 57.2477 121.795 56.9107C122.162 56.5897 122.461 56.1847 122.689 55.6947C122.92 55.2047 123.035 54.6147 123.035 53.9267V45.2957C123.035 44.6387 122.92 44.0567 122.689 43.5517C122.461 43.0467 122.162 42.6257 121.795 42.2887ZM140.238 55.178C140.553 54.91 140.709 54.493 140.709 53.927V45.296C140.709 44.731 140.553 44.314 140.238 44.045C139.924 43.778 139.553 43.644 139.125 43.644C138.697 43.644 138.326 43.778 138.012 44.045C137.697 44.314 137.541 44.731 137.541 45.296V53.927C137.541 54.493 137.697 54.91 138.012 55.178C138.326 55.447 138.697 55.58 139.125 55.58C139.553 55.58 139.924 55.447 140.238 55.178ZM141.81 42.2887C142.177 42.6257 142.476 43.0467 142.704 43.5517C142.935 44.0567 143.05 44.6387 143.05 45.2957V53.9267C143.05 54.6147 142.935 55.2047 142.704 55.6947C142.476 56.1847 142.177 56.5897 141.81 56.9107C141.427 57.2477 141.003 57.4997 140.536 57.6677C140.069 57.8367 139.599 57.9207 139.124 57.9207C138.649 57.9207 138.179 57.8367 137.712 57.6677C137.245 57.4997 136.829 57.2477 136.462 56.9107C136.079 56.5897 135.772 56.1847 135.544 55.6947C135.313 55.2047 135.198 54.6147 135.198 53.9267V45.2957C135.198 44.6387 135.313 44.0567 135.544 43.5517C135.772 43.0467 136.079 42.6257 136.462 42.2887C136.829 41.9677 137.245 41.7237 137.712 41.5547C138.179 41.3867 138.649 41.3027 139.124 41.3027C139.599 41.3027 140.069 41.3867 140.536 41.5547C141.003 41.7237 141.427 41.9677 141.81 42.2887Z" fill="#9A9AB0"/>
</g>
</svg>
