<svg width="162" height="100" viewBox="0 0 162 100" fill="none" xmlns="http://www.w3.org/2000/svg">
<g id="logo 3">
<path id="Combined Shape" fill-rule="evenodd" clip-rule="evenodd" d="M69.165 20V36.657L52.508 20V63.443H69.165H95.951H112.608L69.165 20ZM57.1483 73.4814C57.7083 73.4814 58.1583 73.6124 58.4983 73.8724C58.8383 74.1314 59.0603 74.4904 59.1643 74.9454H60.8563C60.6963 74.0424 60.2943 73.3394 59.6503 72.8394C59.0063 72.3394 58.1803 72.0894 57.1723 72.0894C56.3243 72.0894 55.5963 72.2734 54.9883 72.6414C54.3803 73.0094 53.9123 73.5214 53.5843 74.1774C53.2563 74.8344 53.0923 75.5894 53.0923 76.4454C53.0923 77.3014 53.2563 78.0554 53.5843 78.7084C53.9123 79.3604 54.3803 79.8684 54.9883 80.2314C55.5963 80.5954 56.3243 80.7774 57.1723 80.7774C58.1803 80.7774 59.0063 80.5344 59.6503 80.0454C60.2943 79.5574 60.6963 78.8814 60.8563 78.0174H59.1643C59.0603 78.4504 58.8383 78.7884 58.4983 79.0324C58.1583 79.2764 57.7083 79.3974 57.1483 79.3974C56.3723 79.3974 55.7643 79.1354 55.3243 78.6114C54.8843 78.0874 54.6643 77.3664 54.6643 76.4454C54.6643 75.5264 54.8843 74.8014 55.3243 74.2734C55.7643 73.7464 56.3723 73.4814 57.1483 73.4814ZM70.3422 78.6057C69.8662 79.1337 69.2282 79.3977 68.4282 79.3977C67.6282 79.3977 66.9882 79.1337 66.5082 78.6057C66.0282 78.0787 65.7882 77.3537 65.7882 76.4337C65.7882 75.5137 66.0282 74.7907 66.5082 74.2617C66.9882 73.7337 67.6282 73.4697 68.4282 73.4697C69.2282 73.4697 69.8662 73.7337 70.3422 74.2617C70.8182 74.7907 71.0562 75.5137 71.0562 76.4337C71.0562 77.3537 70.8182 78.0787 70.3422 78.6057ZM70.6242 72.6414C69.9922 72.2734 69.2602 72.0894 68.4282 72.0894C67.5882 72.0894 66.8542 72.2734 66.2262 72.6414C65.5982 73.0094 65.1062 73.5194 64.7502 74.1714C64.3942 74.8244 64.2162 75.5784 64.2162 76.4334C64.2162 77.2904 64.3942 78.0434 64.7502 78.6954C65.1062 79.3474 65.5982 79.8584 66.2262 80.2254C66.8542 80.5934 67.5882 80.7774 68.4282 80.7774C69.2602 80.7774 69.9922 80.5934 70.6242 80.2254C71.2562 79.8584 71.7482 79.3474 72.1002 78.6954C72.4522 78.0434 72.6282 77.2904 72.6282 76.4334C72.6282 75.5784 72.4522 74.8244 72.1002 74.1714C71.7482 73.5194 71.2562 73.0094 70.6242 72.6414ZM78.0876 72.2334L80.7646 77.5614L83.4036 72.2334H85.2276V80.6334H83.6916V74.8374L81.3526 79.4334H80.1406L77.7996 74.8374V80.6334H76.2646V72.2334H78.0876ZM93.31 75.7804C93.074 76.0154 92.688 76.1344 92.152 76.1344H90.675V73.4814H92.152C92.688 73.4814 93.074 73.5994 93.31 73.8364C93.545 74.0724 93.664 74.3974 93.664 74.8134C93.664 75.2214 93.545 75.5444 93.31 75.7804ZM93.915 72.5694C93.476 72.3454 92.919 72.2334 92.248 72.2334H89.14V80.6344H90.675V77.3824H92.248C92.936 77.3824 93.499 77.2634 93.94 77.0274C94.379 76.7924 94.704 76.4794 94.912 76.0924C95.12 75.7044 95.224 75.2784 95.224 74.8134C95.224 74.3264 95.116 73.8854 94.9 73.4944C94.684 73.1014 94.356 72.7944 93.915 72.5694ZM101.188 73.9985L99.976 77.4905H102.412L101.188 73.9985ZM97.264 80.6344L100.335 72.2334H102.064L105.136 80.6344H103.503L102.831 78.6894H99.556L98.872 80.6344H97.264ZM113.979 78.1494L110.031 72.2334H108.496V80.6334H110.031V74.7294L113.979 80.6334H115.515V72.2334H113.979V78.1494ZM122.379 76.1094L124.228 72.2334H125.944L123.136 77.6454V80.6334H121.6V77.6454L118.78 72.2334H120.52L122.379 76.1094ZM37 80.6344L40.073 72.2334H41.801L44.873 80.6344H43.241L42.569 78.6894H39.293L38.609 80.6344H37ZM42.148 77.4905L40.924 73.9985L39.712 77.4905H42.148Z" fill="#9A9AB0"/>
</g>
</svg>
