<svg width="162" height="100" viewBox="0 0 162 100" fill="none" xmlns="http://www.w3.org/2000/svg">
<g id="logo 2">
<path id="Combined Shape" fill-rule="evenodd" clip-rule="evenodd" d="M35.891 18L14 39.892L22.484 48.374L35.892 34.967L49.299 48.374L57.783 39.892L35.891 18ZM14.0003 61.1L35.8913 82.992L57.7823 61.1L35.8913 39.209L14.0003 61.1ZM74.33 37.584C75.488 37.584 76.395 37.806 77.052 38.25C77.71 38.693 78.182 39.323 78.467 40.14C78.752 40.956 78.895 41.927 78.895 43.052V44.217H77.183V43.1C77.183 42.26 77.115 41.538 76.981 40.936C76.846 40.334 76.573 39.866 76.161 39.533C75.748 39.2 75.147 39.034 74.354 39.034C73.483 39.034 72.828 39.213 72.393 39.569C71.956 39.926 71.663 40.429 71.513 41.079C71.363 41.729 71.287 42.481 71.287 43.337V51.539C71.287 52.489 71.378 53.282 71.561 53.916C71.742 54.55 72.056 55.025 72.5 55.343C72.944 55.659 73.562 55.817 74.354 55.817C75.162 55.817 75.769 55.644 76.173 55.295C76.577 54.946 76.846 54.459 76.981 53.833C77.115 53.207 77.183 52.474 77.183 51.634V50.374H78.895V51.515C78.895 52.641 78.764 53.635 78.502 54.498C78.241 55.362 77.781 56.04 77.123 56.531C76.466 57.022 75.534 57.268 74.33 57.268C73.031 57.268 72.029 56.999 71.323 56.46C70.617 55.921 70.13 55.196 69.861 54.284C69.591 53.373 69.457 52.363 69.457 51.253V43.599C69.457 42.41 69.595 41.364 69.873 40.461C70.15 39.557 70.646 38.853 71.359 38.345C72.072 37.838 73.062 37.584 74.33 37.584ZM125.17 60.6333L126.538 62.6873V60.6333H126.951V63.3613H126.538L125.17 61.3073V63.3613H124.757V60.6333H125.17ZM123.463 63.3618H123.05V60.6338H123.463V63.3618ZM128.244 63.3613H129.978V63.0263H128.657V62.1453H129.861V61.8183H128.657V60.9683H129.978V60.6333H128.244V63.3613ZM133.346 61.8028H134.667V60.6338H135.08V63.3618H134.667V62.1418H133.346V63.3618H132.933V60.6338H133.346V61.8028ZM136.373 63.3613H138.107V63.0263H136.786V62.1453H137.99V61.8183H136.786V60.9683H138.107V60.6333H136.373V63.3613ZM139.752 61.9503H140.255C140.442 61.9503 140.579 61.9053 140.666 61.8143C140.753 61.7233 140.797 61.6053 140.797 61.4603C140.797 61.3143 140.754 61.1983 140.668 61.1113C140.582 61.0233 140.443 60.9803 140.251 60.9803H139.752V61.9503ZM141.222 61.4483C141.222 61.6173 141.177 61.7703 141.087 61.9083C140.997 62.0463 140.858 62.1443 140.668 62.2043L141.249 63.3613H140.77L140.239 62.2623H139.752V63.3613H139.339V60.6343H140.278C140.494 60.6343 140.671 60.6703 140.811 60.7423C140.949 60.8153 141.053 60.9133 141.12 61.0373C141.188 61.1603 141.222 61.2973 141.222 61.4483ZM142.448 63.3613H144.182V63.0263H142.861V62.1453H144.065V61.8183H142.861V60.9683H144.182V60.6333H142.448V63.3613ZM82.4495 53.8797C82.2825 53.2707 82.1995 52.5607 82.1995 51.7527V43.0277C82.1995 42.2197 82.2825 41.5147 82.4495 40.9117C82.6155 40.3107 82.9255 39.8467 83.3765 39.5217C83.8285 39.1967 84.4815 39.0337 85.3375 39.0337C86.1775 39.0337 86.8195 39.1967 87.2625 39.5217C87.7065 39.8467 88.0115 40.3107 88.1785 40.9117C88.3455 41.5147 88.4285 42.2197 88.4285 43.0277V51.7527C88.4285 52.5607 88.3455 53.2707 88.1785 53.8797C88.0115 54.4897 87.7065 54.9657 87.2625 55.3067C86.8195 55.6477 86.1775 55.8167 85.3375 55.8167C84.4815 55.8167 83.8285 55.6477 83.3765 55.3067C82.9255 54.9657 82.6155 54.4897 82.4495 53.8797ZM88.3085 56.507C89.0225 56 89.5255 55.307 89.8185 54.427C90.1115 53.548 90.2595 52.529 90.2595 51.372V43.361C90.2595 42.189 90.1075 41.17 89.8065 40.306C89.5065 39.442 88.9945 38.773 88.2735 38.297C87.5525 37.821 86.5735 37.584 85.3375 37.584C84.0855 37.584 83.0985 37.821 82.3785 38.297C81.6565 38.773 81.1415 39.442 80.8325 40.306C80.5235 41.17 80.3695 42.189 80.3695 43.361V51.349C80.3695 52.506 80.5145 53.532 80.8085 54.427C81.1015 55.322 81.6085 56.02 82.3305 56.52C83.0515 57.019 84.0535 57.268 85.3375 57.268C86.6055 57.268 87.5955 57.015 88.3085 56.507ZM97.6519 57.0304L94.0139 41.7204L93.6339 57.0304H92.1359L92.6119 37.7744H94.4179L98.2219 54.4864L102.097 37.7744H103.904L104.379 57.0304H102.881L102.501 41.6964L98.8169 57.0304H97.6519ZM108.445 46.5704V39.1294H110.774C111.631 39.1294 112.292 39.2364 112.759 39.4504C113.226 39.6644 113.555 40.0454 113.746 40.5914C113.936 41.1374 114.031 41.9034 114.031 42.8854C114.031 43.8044 113.921 44.5344 113.699 45.0724C113.476 45.6114 113.124 45.9964 112.64 46.2254C112.157 46.4554 111.527 46.5704 110.751 46.5704H108.445ZM113.924 47.2364C114.597 46.7764 115.081 46.1624 115.375 45.3934C115.668 44.6254 115.814 43.7894 115.814 42.8854C115.814 41.8554 115.675 40.9604 115.398 40.1994C115.121 39.4384 114.649 38.8434 113.984 38.4164C113.318 37.9884 112.407 37.7744 111.25 37.7744H106.637V57.0304H108.445V47.9254H111.273C112.367 47.9254 113.251 47.6954 113.924 47.2364ZM120.189 40.1743L118.145 50.5633H122.234L120.189 40.1743ZM121.117 37.7744L125.206 57.0304H123.422L122.471 51.8714H117.883L116.909 57.0304H115.149L119.214 37.7744H121.117ZM134.025 52.7274L127.891 37.7744H126.584V57.0304H128.153V41.9114L134.31 57.0304H135.594V37.7744H134.025V52.7274ZM142.82 57.0304H141.061V50.6344L136.71 37.7744H138.469L141.94 48.4714L145.269 37.7744H147.051L142.82 50.6344V57.0304ZM70.634 61.9503L69.991 60.6343H69.524L70.428 62.3553V63.3613H70.841V62.3553L71.737 60.6343H71.274L70.634 61.9503ZM74.3852 62.9125C74.5232 62.8295 74.6322 62.7105 74.7102 62.5545C74.7882 62.3985 74.8272 62.2125 74.8272 61.9965C74.8272 61.7825 74.7882 61.5955 74.7102 61.4405C74.6322 61.2835 74.5232 61.1645 74.3852 61.0815C74.2462 60.9985 74.0832 60.9565 73.8962 60.9565C73.7092 60.9565 73.5452 60.9985 73.4042 61.0815C73.2652 61.1645 73.1562 61.2835 73.0792 61.4405C73.0032 61.5955 72.9652 61.7825 72.9652 61.9965C72.9652 62.2125 73.0032 62.3985 73.0792 62.5545C73.1562 62.7105 73.2652 62.8295 73.4042 62.9125C73.5452 62.9955 73.7092 63.0375 73.8962 63.0375C74.0832 63.0375 74.2462 62.9955 74.3852 62.9125ZM73.8962 60.5864C74.1662 60.5864 74.4022 60.6464 74.6052 60.7654C74.8082 60.8854 74.9662 61.0504 75.0782 61.2624C75.1912 61.4744 75.2482 61.7194 75.2482 61.9964C75.2482 62.2754 75.1912 62.5204 75.0782 62.7324C74.9662 62.9434 74.8082 63.1094 74.6052 63.2284C74.4022 63.3484 74.1662 63.4084 73.8962 63.4084C73.6262 63.4084 73.3892 63.3484 73.1872 63.2284C72.9832 63.1094 72.8252 62.9434 72.7112 62.7324C72.5972 62.5204 72.5402 62.2754 72.5402 61.9964C72.5402 61.7194 72.5972 61.4744 72.7112 61.2624C72.8252 61.0504 72.9832 60.8854 73.1872 60.7654C73.3892 60.6464 73.6262 60.5864 73.8962 60.5864ZM78.1077 62.3408C78.1077 62.5788 78.0507 62.7548 77.9367 62.8658C77.8227 62.9788 77.6697 63.0338 77.4767 63.0338C77.2817 63.0338 77.1277 62.9788 77.0127 62.8658C76.8987 62.7548 76.8407 62.5788 76.8407 62.3408V60.6338H76.4277V62.3368C76.4277 62.5808 76.4747 62.7818 76.5667 62.9408C76.6587 63.0988 76.7837 63.2168 76.9407 63.2928C77.0977 63.3698 77.2737 63.4078 77.4687 63.4078C77.6617 63.4078 77.8367 63.3698 77.9967 63.2928C78.1567 63.2168 78.2837 63.0988 78.3787 62.9408C78.4737 62.7818 78.5207 62.5808 78.5207 62.3368V60.6338H78.1077V62.3408ZM80.2043 61.9503H80.7073C80.8943 61.9503 81.0313 61.9053 81.1183 61.8143C81.2053 61.7233 81.2493 61.6053 81.2493 61.4603C81.2493 61.3143 81.2063 61.1983 81.1203 61.1113C81.0343 61.0233 80.8953 60.9803 80.7033 60.9803H80.2043V61.9503ZM81.6743 61.4483C81.6743 61.6173 81.6293 61.7703 81.5393 61.9083C81.4493 62.0463 81.3103 62.1443 81.1203 62.2043L81.7013 63.3613H81.2223L80.6913 62.2623H80.2043V63.3613H79.7913V60.6343H80.7303C80.9463 60.6343 81.1233 60.6703 81.2633 60.7423C81.4013 60.8153 81.5053 60.9133 81.5723 61.0373C81.6403 61.1603 81.6743 61.2973 81.6743 61.4483ZM85.8352 60.9569C86.0352 60.9569 86.1952 61.0039 86.3142 61.0979C86.4342 61.1899 86.5122 61.3159 86.5492 61.4759H87.0082C86.9542 61.1939 86.8252 60.9769 86.6222 60.8199C86.4202 60.6649 86.1592 60.5869 85.8392 60.5869C85.5692 60.5869 85.3362 60.6459 85.1402 60.7659C84.9432 60.8859 84.7922 61.0509 84.6862 61.2629C84.5792 61.4749 84.5262 61.7209 84.5262 62.0009C84.5262 62.2789 84.5792 62.5239 84.6862 62.7359C84.7922 62.9469 84.9432 63.1119 85.1402 63.2299C85.3362 63.3489 85.5692 63.4079 85.8392 63.4079C86.1592 63.4079 86.4202 63.3309 86.6222 63.1779C86.8252 63.0249 86.9542 62.8129 87.0082 62.5429H86.5492C86.5122 62.6959 86.4342 62.8169 86.3142 62.9049C86.1952 62.9939 86.0352 63.0379 85.8352 63.0379C85.5632 63.0379 85.3472 62.9449 85.1892 62.7609C85.0302 62.5769 84.9512 62.3229 84.9512 62.0009C84.9512 61.6769 85.0302 61.4209 85.1892 61.2349C85.3472 61.0499 85.5632 60.9569 85.8352 60.9569ZM89.9526 62.9125C90.0906 62.8295 90.1996 62.7105 90.2776 62.5545C90.3556 62.3985 90.3946 62.2125 90.3946 61.9965C90.3946 61.7825 90.3556 61.5955 90.2776 61.4405C90.1996 61.2835 90.0906 61.1645 89.9526 61.0815C89.8136 60.9985 89.6506 60.9565 89.4636 60.9565C89.2766 60.9565 89.1126 60.9985 88.9716 61.0815C88.8326 61.1645 88.7236 61.2835 88.6466 61.4405C88.5706 61.5955 88.5326 61.7825 88.5326 61.9965C88.5326 62.2125 88.5706 62.3985 88.6466 62.5545C88.7236 62.7105 88.8326 62.8295 88.9716 62.9125C89.1126 62.9955 89.2766 63.0375 89.4636 63.0375C89.6506 63.0375 89.8136 62.9955 89.9526 62.9125ZM89.4636 60.5864C89.7336 60.5864 89.9696 60.6464 90.1726 60.7654C90.3756 60.8854 90.5336 61.0504 90.6456 61.2624C90.7586 61.4744 90.8156 61.7194 90.8156 61.9964C90.8156 62.2754 90.7586 62.5204 90.6456 62.7324C90.5336 62.9434 90.3756 63.1094 90.1726 63.2284C89.9696 63.3484 89.7336 63.4084 89.4636 63.4084C89.1936 63.4084 88.9566 63.3484 88.7546 63.2284C88.5506 63.1094 88.3926 62.9434 88.2786 62.7324C88.1646 62.5204 88.1076 62.2754 88.1076 61.9964C88.1076 61.7194 88.1646 61.4744 88.2786 61.2624C88.3926 61.0504 88.5506 60.8854 88.7546 60.7654C88.9566 60.6464 89.1936 60.5864 89.4636 60.5864ZM93.427 62.4493L92.503 60.6343H92.016V63.3613H92.429V61.3503L93.267 62.9713H93.586L94.42 61.3463V63.3613H94.833V60.6343H94.347L93.427 62.4493ZM97.0627 61.9237C97.2577 61.9237 97.3977 61.8807 97.4817 61.7967C97.5657 61.7117 97.6087 61.5977 97.6087 61.4517C97.6087 61.3007 97.5657 61.1837 97.4817 61.0997C97.3977 61.0147 97.2577 60.9727 97.0627 60.9727H96.5407V61.9237H97.0627ZM97.0827 60.6338C97.2947 60.6338 97.4717 60.6688 97.6127 60.7398C97.7527 60.8128 97.8567 60.9088 97.9257 61.0328C97.9947 61.1558 98.0297 61.2958 98.0297 61.4518C98.0297 61.5998 97.9967 61.7348 97.9297 61.8588C97.8637 61.9828 97.7597 62.0808 97.6207 62.1528C97.4797 62.2258 97.2997 62.2628 97.0827 62.2628H96.5407V63.3608H96.1277V60.6338H97.0827ZM99.4748 62.367L99.9148 61.125L100.356 62.367H99.4748ZM99.6928 60.6343L98.6878 63.3613H99.1238L99.3578 62.6953H100.472L100.706 63.3613H101.143L100.145 60.6343H99.6928ZM102.677 60.6333L104.045 62.6873V60.6333H104.458V63.3613H104.045L102.677 61.3073V63.3613H102.264V60.6333H102.677ZM106.653 61.9503L106.01 60.6343H105.543L106.447 62.3553V63.3613H106.86V62.3553L107.756 60.6343H107.293L106.653 61.9503ZM111.201 60.9688H110.394V60.6338H112.416V60.9688H111.614V63.3618H111.201V60.9688ZM113.858 62.367L114.298 61.125L114.739 62.367H113.858ZM114.076 60.6343L113.071 63.3613H113.507L113.741 62.6953H114.855L115.089 63.3613H115.526L114.528 60.6343H114.076ZM118.553 62.1999H117.813V61.8809H118.97V63.3609H118.592L118.557 62.9599C118.466 63.1019 118.352 63.2129 118.214 63.2909C118.077 63.3689 117.897 63.4079 117.676 63.4079C117.419 63.4079 117.195 63.3489 117.002 63.2319C116.81 63.1159 116.661 62.9519 116.554 62.7419C116.448 62.5309 116.395 62.2859 116.395 62.0049C116.395 61.7269 116.449 61.4809 116.558 61.2679C116.667 61.0549 116.823 60.8879 117.024 60.7669C117.225 60.6469 117.463 60.5869 117.739 60.5869C118.05 60.5869 118.31 60.6619 118.518 60.8119C118.726 60.9639 118.861 61.1709 118.923 61.4359H118.456C118.415 61.2909 118.333 61.1769 118.21 61.0939C118.088 61.0099 117.931 60.9689 117.739 60.9689C117.454 60.9689 117.229 61.0599 117.065 61.2449C116.901 61.4289 116.82 61.6839 116.82 62.0089C116.82 62.3339 116.9 62.5869 117.061 62.7679C117.222 62.9509 117.436 63.0419 117.704 63.0419C117.974 63.0419 118.177 62.9649 118.314 62.8109C118.45 62.6579 118.53 62.4549 118.553 62.1999ZM120.626 60.6338H120.213V63.3618H121.865V63.0338H120.626V60.6338Z" fill="#9A9AB0"/>
</g>
</svg>
