<svg width="162" height="100" viewBox="0 0 162 100" fill="none" xmlns="http://www.w3.org/2000/svg">
<g id="logo 1">
<path id="Combined Shape" fill-rule="evenodd" clip-rule="evenodd" d="M41.916 39.906C41.916 44.583 45.707 48.375 50.385 48.375C55.062 48.375 58.854 44.583 58.854 39.906C58.854 35.228 55.062 31.437 50.385 31.437C45.707 31.437 41.916 35.228 41.916 39.906ZM10 50.146C10 33.497 23.496 20 40.145 20C56.794 20 70.29 33.497 70.29 50.146C70.29 66.794 56.794 80.291 40.145 80.291C23.496 80.291 10 66.794 10 50.146ZM82.7818 44.5427C81.6438 44.5427 80.6668 44.2987 79.8518 43.8097C79.0358 43.3217 78.4078 42.6397 77.9678 41.7647C77.5278 40.8907 77.3078 39.8787 77.3078 38.7297C77.3078 37.5817 77.5278 36.5667 77.9678 35.6867C78.4078 34.8067 79.0358 34.1197 79.8518 33.6257C80.6668 33.1327 81.6438 32.8857 82.7818 32.8857C84.1348 32.8857 85.2428 33.2207 86.1058 33.8917C86.9718 34.5627 87.5108 35.5047 87.7258 36.7177H85.4558C85.3148 36.1057 85.0188 35.6247 84.5608 35.2767C84.1048 34.9277 83.5008 34.7527 82.7498 34.7527C81.7088 34.7527 80.8928 35.1067 80.3028 35.8157C79.7118 36.5237 79.4168 37.4957 79.4168 38.7297C79.4168 39.9647 79.7118 40.9337 80.3028 41.6367C80.8928 42.3397 81.7088 42.6907 82.7498 42.6907C83.5008 42.6907 84.1048 42.5277 84.5608 42.1997C85.0188 41.8727 85.3148 41.4187 85.4558 40.8387H87.7258C87.5108 41.9987 86.9718 42.9057 86.1058 43.5597C85.2428 44.2147 84.1348 44.5427 82.7818 44.5427ZM93.3443 37.9565C92.7973 37.9565 92.3283 38.1585 91.9363 38.5605C91.5433 38.9635 91.3483 39.5615 91.3483 40.3555C91.3483 41.1505 91.5433 41.7485 91.9363 42.1515C92.3283 42.5535 92.7913 42.7545 93.3293 42.7545C93.8653 42.7545 94.3323 42.5535 94.7293 42.1515C95.1263 41.7485 95.3253 41.1505 95.3253 40.3555C95.3253 39.5615 95.1263 38.9635 94.7293 38.5605C94.3323 38.1585 93.8713 37.9565 93.3443 37.9565ZM93.3293 44.5424C92.5553 44.5424 91.8613 44.3654 91.2443 44.0114C90.6253 43.6564 90.1373 43.1654 89.7783 42.5374C89.4183 41.9094 89.2393 41.1824 89.2393 40.3554C89.2393 39.5294 89.4213 38.8024 89.7863 38.1744C90.1513 37.5464 90.6423 37.0554 91.2593 36.7014C91.8763 36.3464 92.5723 36.1694 93.3443 36.1694C94.1073 36.1694 94.7963 36.3464 95.4143 36.7014C96.0313 37.0554 96.5193 37.5464 96.8783 38.1744C97.2383 38.8024 97.4183 39.5294 97.4183 40.3554C97.4183 41.1824 97.2383 41.9094 96.8783 42.5374C96.5193 43.1654 96.0283 43.6564 95.4063 44.0114C94.7833 44.3654 94.0903 44.5424 93.3293 44.5424ZM109.139 36.1699C108.559 36.1699 108.026 36.2979 107.537 36.5559C107.048 36.8139 106.66 37.1629 106.369 37.6029C105.855 36.6479 104.98 36.1699 103.745 36.1699C103.187 36.1699 102.696 36.2849 102.272 36.5159C101.848 36.7469 101.507 37.0549 101.249 37.4419L101.073 36.3629H99.2534V44.3489H101.314V40.2269C101.314 39.4979 101.483 38.9289 101.821 38.5209C102.16 38.1129 102.602 37.9089 103.15 37.9089C103.707 37.9089 104.12 38.0909 104.389 38.4559C104.658 38.8209 104.791 39.3469 104.791 40.0339V44.3489H106.853V40.2269C106.853 39.4979 107.022 38.9289 107.36 38.5209C107.698 38.1129 108.146 37.9089 108.704 37.9089C109.251 37.9089 109.657 38.0909 109.92 38.4559C110.183 38.8209 110.315 39.3469 110.315 40.0339V44.3489H112.375V39.8409C112.375 38.6389 112.096 37.7259 111.538 37.1039C110.98 36.4819 110.18 36.1699 109.139 36.1699ZM118.639 42.7391C119.293 42.7391 119.835 42.5191 120.265 42.0791C120.695 41.6391 120.91 41.0701 120.91 40.3721C120.91 39.6741 120.695 39.1001 120.265 38.6491C119.835 38.1991 119.293 37.9731 118.639 37.9731C117.973 37.9731 117.428 38.1961 117.004 38.6411C116.58 39.0871 116.369 39.6581 116.369 40.3561C116.369 41.0541 116.58 41.6251 117.004 42.0711C117.428 42.5161 117.973 42.7391 118.639 42.7391ZM121.086 36.7169C121.676 37.0819 122.143 37.5809 122.487 38.2139C122.83 38.8479 123.002 39.5669 123.002 40.3719C123.002 41.1769 122.83 41.8929 122.487 42.5209C122.143 43.1489 121.676 43.6429 121.086 44.0029C120.495 44.3619 119.825 44.5419 119.074 44.5419C118.472 44.5419 117.947 44.4299 117.495 44.2039C117.045 43.9789 116.68 43.6619 116.401 43.2539V47.8909H114.34V36.3629H116.175L116.401 37.5059C116.659 37.1519 116.999 36.8409 117.423 36.5719C117.847 36.3039 118.398 36.1699 119.074 36.1699C119.825 36.1699 120.495 36.3519 121.086 36.7169ZM129.435 42.3524C129.107 42.7384 128.649 42.9324 128.058 42.9324C127.671 42.9324 127.361 42.8464 127.124 42.6744C126.888 42.5024 126.77 42.2614 126.77 41.9504C126.77 41.6604 126.888 41.4154 127.124 41.2174C127.361 41.0194 127.752 40.9194 128.3 40.9194H130.055C129.969 41.4884 129.762 41.9664 129.435 42.3524ZM128.075 39.6314C126.915 39.6314 126.045 39.8624 125.466 40.3234C124.886 40.7854 124.596 41.3864 124.596 42.1264C124.596 42.5674 124.704 42.9694 124.918 43.3344C125.133 43.6994 125.46 43.9924 125.901 44.2124C126.34 44.4324 126.905 44.5424 127.591 44.5424C128.256 44.5424 128.801 44.4024 129.226 44.1234C129.65 43.8444 129.98 43.4904 130.216 43.0604L130.409 44.3494H132.164V39.4384C132.164 38.3974 131.836 37.5924 131.182 37.0224C130.527 36.4544 129.63 36.1694 128.493 36.1694C127.828 36.1694 127.226 36.2854 126.69 36.5164C126.153 36.7474 125.715 37.0774 125.377 37.5064C125.039 37.9354 124.843 38.4394 124.789 39.0194H126.802C126.877 38.6334 127.071 38.3404 127.382 38.1424C127.693 37.9434 128.058 37.8444 128.477 37.8444C128.938 37.8444 129.325 37.9734 129.636 38.2304C129.948 38.4884 130.103 38.8904 130.103 39.4384V39.6314H128.075ZM141.954 39.8409V44.3489H139.892V40.0339C139.892 39.3469 139.753 38.8209 139.475 38.4559C139.195 38.0909 138.76 37.9089 138.17 37.9089C137.591 37.9089 137.115 38.1129 136.745 38.5199C136.375 38.9289 136.189 39.4969 136.189 40.2269V44.3489H134.129V36.3629H135.948L136.109 37.7149C136.355 37.2429 136.713 36.8679 137.18 36.5879C137.646 36.3089 138.196 36.1699 138.83 36.1699C139.817 36.1699 140.585 36.4809 141.133 37.1029C141.68 37.7259 141.954 38.6389 141.954 39.8409ZM146.494 43.8178L144.642 47.8918H146.832L151.904 36.3628H149.714L147.38 41.9828L145.141 36.3628H142.903L146.011 43.8178H146.494ZM77.0178 52.3994H85.6648V54.0574H82.3628V63.6704H80.3028V54.0574H77.0178V52.3994ZM87.5164 58.8876C87.6234 58.3096 87.8704 57.8755 88.2564 57.5926C88.6434 57.3076 89.0884 57.1646 89.5934 57.1646C90.1194 57.1646 90.5594 57.3216 90.9134 57.6315C91.2674 57.9445 91.4604 58.3626 91.4934 58.8876H87.5164ZM91.6704 56.0067C91.0694 55.6627 90.3764 55.4917 89.5934 55.4917C88.7554 55.4917 88.0294 55.6707 87.4124 56.0307C86.7934 56.3897 86.3114 56.8917 85.9624 57.5357C85.6134 58.1807 85.4394 58.9147 85.4394 59.7417C85.4394 60.5577 85.6164 61.2767 85.9704 61.8997C86.3254 62.5227 86.8134 63.0047 87.4354 63.3487C88.0584 63.6927 88.7724 63.8647 89.5774 63.8647C90.2214 63.8647 90.7974 63.7447 91.3084 63.5087C91.8184 63.2727 92.2464 62.9487 92.5964 62.5357C92.9454 62.1217 93.1944 61.6627 93.3444 61.1587H91.2514C91.1124 61.4597 90.9004 61.7037 90.6164 61.8917C90.3304 62.0787 89.9794 62.1727 89.5614 62.1727C89.0024 62.1727 88.5284 61.9947 88.1364 61.6417C87.7444 61.2877 87.5274 60.7997 87.4844 60.1767H93.5544C93.5644 60.0357 93.5734 59.9037 93.5784 59.7747C93.5834 59.6457 93.5864 59.5227 93.5864 59.4037C93.5864 58.6727 93.4164 58.0107 93.0784 57.4147C92.7414 56.8197 92.2714 56.3507 91.6704 56.0067ZM98.2553 58.5186L100.268 55.6846H102.49L99.5763 59.6766L102.49 63.6706H100.268L98.2553 60.8366L96.2273 63.6706H94.0213L96.9193 59.6766L94.0213 55.6846H96.2273L98.2553 58.5186ZM106.66 53.542H104.841L104.599 55.685H103.23V57.407H104.599V60.886C104.599 61.927 104.851 62.651 105.355 63.058C105.86 63.466 106.531 63.671 107.368 63.671H108.769V61.915H107.771C107.363 61.915 107.076 61.843 106.91 61.698C106.743 61.554 106.66 61.288 106.66 60.901V57.407H108.817V55.685H106.66V53.542ZM114.468 52.3994H116.53V62.0594H121.521V63.6704H114.468V52.3994ZM128.171 61.4718C127.774 61.8758 127.307 62.0768 126.771 62.0768C126.234 62.0768 125.77 61.8758 125.378 61.4718C124.985 61.0698 124.79 60.4718 124.79 59.6768C124.79 58.8838 124.985 58.2838 125.378 57.8818C125.77 57.4798 126.239 57.2788 126.786 57.2788C127.313 57.2788 127.774 57.4798 128.171 57.8818C128.568 58.2838 128.767 58.8838 128.767 59.6768C128.767 60.4718 128.568 61.0698 128.171 61.4718ZM128.856 56.0227C128.238 55.6687 127.549 55.4917 126.786 55.4917C126.014 55.4917 125.318 55.6687 124.701 56.0227C124.084 56.3757 123.593 56.8677 123.228 57.4947C122.863 58.1237 122.681 58.8507 122.681 59.6767C122.681 60.5047 122.86 61.2317 123.22 61.8587C123.579 62.4877 124.067 62.9777 124.686 63.3327C125.303 63.6867 125.997 63.8647 126.771 63.8647C127.532 63.8647 128.225 63.6867 128.848 63.3327C129.47 62.9777 129.961 62.4877 130.32 61.8587C130.68 61.2317 130.86 60.5047 130.86 59.6767C130.86 58.8507 130.68 58.1237 130.32 57.4947C129.961 56.8677 129.473 56.3757 128.856 56.0227ZM135.577 59.7101C135.996 59.7101 136.342 59.5971 136.616 59.3721C136.889 59.1451 137.026 58.8231 137.026 58.4051C137.026 57.9871 136.889 57.6651 136.616 57.4381C136.342 57.2141 135.996 57.1011 135.577 57.1011C135.137 57.1011 134.783 57.2141 134.514 57.4381C134.246 57.6651 134.112 57.9871 134.112 58.4051C134.112 58.8231 134.246 59.1451 134.514 59.3721C134.783 59.5971 135.137 59.7101 135.577 59.7101ZM135.738 63.6059C135.298 63.5729 134.89 63.5259 134.514 63.4619C134.203 63.6339 133.98 63.8209 133.846 64.0239C133.712 64.2269 133.645 64.4379 133.645 64.6529C133.645 65.0499 133.83 65.3469 134.2 65.5459C134.571 65.7449 135.024 65.8449 135.561 65.8449C136.076 65.8449 136.495 65.7389 136.817 65.5299C137.138 65.3209 137.3 65.0379 137.3 64.6839C137.3 64.3949 137.195 64.1529 136.986 63.9599C136.776 63.7669 136.36 63.6489 135.738 63.6059ZM133.822 55.8782C134.305 55.6202 134.89 55.4912 135.577 55.4912C136.028 55.4912 136.446 55.5562 136.833 55.6842H139.86V56.9402L138.491 57.0362C138.706 57.4442 138.813 57.8952 138.813 58.3902C138.813 58.9272 138.684 59.4152 138.427 59.8542C138.17 60.2942 137.797 60.6432 137.307 60.9012C136.819 61.1592 136.242 61.2882 135.577 61.2882C135.19 61.2882 134.831 61.2452 134.498 61.1592L133.902 61.7552C134.085 61.8512 134.332 61.9312 134.643 61.9952C134.954 62.0602 135.459 62.1242 136.157 62.1882C137.22 62.2862 137.992 62.5382 138.475 62.9462C138.958 63.3542 139.2 63.9172 139.2 64.6362C139.2 65.1082 139.071 65.5582 138.813 65.9812C138.555 66.4052 138.158 66.7492 137.622 67.0112C137.085 67.2742 136.398 67.4052 135.561 67.4052C134.423 67.4052 133.506 67.1942 132.807 66.7702C132.11 66.3472 131.762 65.7102 131.762 64.8622C131.762 64.1432 132.11 63.5202 132.807 62.9952C132.593 62.8972 132.408 62.7962 132.252 62.6882C132.096 62.5812 131.96 62.4682 131.842 62.3512V61.9792L133.242 60.4992C132.62 59.9502 132.308 59.2492 132.308 58.3902C132.308 57.8522 132.44 57.3642 132.703 56.9252C132.966 56.4832 133.339 56.1362 133.822 55.8782ZM146.268 61.4718C145.871 61.8758 145.404 62.0768 144.868 62.0768C144.331 62.0768 143.867 61.8758 143.475 61.4718C143.082 61.0698 142.887 60.4718 142.887 59.6768C142.887 58.8838 143.082 58.2838 143.475 57.8818C143.867 57.4798 144.336 57.2788 144.883 57.2788C145.41 57.2788 145.871 57.4798 146.268 57.8818C146.665 58.2838 146.864 58.8838 146.864 59.6768C146.864 60.4718 146.665 61.0698 146.268 61.4718ZM146.953 56.0227C146.335 55.6687 145.646 55.4917 144.883 55.4917C144.111 55.4917 143.415 55.6687 142.798 56.0227C142.181 56.3757 141.69 56.8677 141.325 57.4947C140.96 58.1237 140.778 58.8507 140.778 59.6767C140.778 60.5047 140.957 61.2317 141.317 61.8587C141.676 62.4877 142.164 62.9777 142.783 63.3327C143.4 63.6867 144.094 63.8647 144.868 63.8647C145.629 63.8647 146.322 63.6867 146.945 63.3327C147.567 62.9777 148.058 62.4877 148.417 61.8587C148.777 61.2317 148.957 60.5047 148.957 59.6767C148.957 58.8507 148.777 58.1237 148.417 57.4947C148.058 56.8677 147.57 56.3757 146.953 56.0227Z" fill="#9A9AB0"/>
</g>
</svg>
