<svg width="162" height="100" viewBox="0 0 162 100" fill="none" xmlns="http://www.w3.org/2000/svg">
<g id="logo 5">
<path id="Combined Shape" fill-rule="evenodd" clip-rule="evenodd" d="M50.4816 33.398C51.2166 33.663 51.8856 34.049 52.4886 34.555C53.0666 35.085 53.5366 35.748 53.8986 36.543C54.2596 37.339 54.4406 38.255 54.4406 39.291V52.885C54.4406 53.97 54.2596 54.898 53.8986 55.669C53.5366 56.441 53.0666 57.079 52.4886 57.585C51.8856 58.116 51.2166 58.514 50.4816 58.779C49.7466 59.043 49.0056 59.176 48.2586 59.176C47.5106 59.176 46.7696 59.043 46.0346 58.779C45.2996 58.514 44.6426 58.116 44.0646 57.585C43.4616 57.079 42.9796 56.441 42.6186 55.669C42.2566 54.898 42.0756 53.97 42.0756 52.885V39.291C42.0756 38.255 42.2566 37.339 42.6186 36.543C42.9796 35.748 43.4616 35.085 44.0646 34.555C44.6426 34.049 45.2996 33.663 46.0346 33.398C46.7696 33.133 47.5106 33 48.2586 33C49.0056 33 49.7466 33.133 50.4816 33.398ZM38.931 53.2105V51.6195H35.243V52.8855C35.243 53.3925 35.171 53.8145 35.026 54.1505C34.882 54.4885 34.701 54.7535 34.484 54.9465C34.243 55.1395 33.983 55.2775 33.706 55.3615C33.429 55.4465 33.17 55.4885 32.929 55.4885C32.085 55.4885 31.501 55.2355 31.176 54.7295C30.85 54.2235 30.687 53.5975 30.687 52.8495V39.6895C30.687 38.8215 30.838 38.1045 31.139 37.5375C31.441 36.9725 32.049 36.6885 32.965 36.6885C33.664 36.6885 34.218 36.9535 34.628 37.4835C35.038 38.0145 35.243 38.6405 35.243 39.3635V40.5935H38.931V39.1475C38.931 38.2555 38.78 37.4295 38.479 36.6705C38.177 35.9105 37.762 35.2545 37.232 34.6995C36.147 33.5665 34.737 33.0005 33.001 33.0005C32.109 33.0005 31.296 33.1505 30.561 33.4525C29.826 33.7545 29.193 34.1695 28.663 34.6995C28.133 35.2305 27.723 35.8565 27.433 36.5795C27.144 37.3035 27 38.0865 27 38.9305V53.1025C27 54.2835 27.186 55.2535 27.56 56.0135C27.933 56.7725 28.41 57.3935 28.988 57.8745C29.567 58.3565 30.218 58.6945 30.941 58.8875C31.664 59.0795 32.374 59.1765 33.074 59.1765C33.893 59.1765 34.659 59.0145 35.369 58.6885C36.08 58.3625 36.701 57.9235 37.232 57.3685C37.762 56.8145 38.177 56.1825 38.479 55.4705C38.78 54.7605 38.931 54.0065 38.931 53.2105ZM66.4075 46.8478H66.3355L61.5985 33.2168H58.0555V58.9588H61.7435V43.3038H61.8155L65.4325 54.3678H67.2765L70.9275 43.3038H70.9995V58.9588H74.6865V33.2168H71.1085L66.4075 46.8478ZM35.342 66.8581C35.539 66.7401 35.693 66.5711 35.804 66.3481C35.915 66.1261 35.97 65.8631 35.97 65.5561C35.97 65.2501 35.915 64.9861 35.804 64.7651C35.693 64.5431 35.539 64.3741 35.342 64.2561C35.145 64.1381 34.913 64.0781 34.647 64.0781C34.382 64.0781 34.149 64.1381 33.949 64.2561C33.75 64.3741 33.596 64.5431 33.487 64.7651C33.379 64.9861 33.325 65.2501 33.325 65.5561C33.325 65.8631 33.379 66.1261 33.487 66.3481C33.596 66.5711 33.75 66.7401 33.949 66.8581C34.149 66.9751 34.382 67.0351 34.647 67.0351C34.913 67.0351 35.145 66.9751 35.342 66.8581ZM34.6469 63.5532C35.0309 63.5532 35.3669 63.6372 35.6539 63.8072C35.9429 63.9772 36.1669 64.2112 36.3269 64.5132C36.4879 64.8142 36.5679 65.1622 36.5679 65.5562C36.5679 65.9522 36.4879 66.2992 36.3269 66.6012C36.1669 66.9012 35.9429 67.1362 35.6539 67.3052C35.3669 67.4762 35.0309 67.5612 34.6469 67.5612C34.2639 67.5612 33.9269 67.4762 33.6389 67.3052C33.3509 67.1362 33.1259 66.9012 32.9639 66.6012C32.8019 66.2992 32.7209 65.9522 32.7209 65.5562C32.7209 65.1622 32.8019 64.8142 32.9639 64.5132C33.1259 64.2112 33.3509 63.9772 33.6389 63.8072C33.9269 63.6372 34.2639 63.5532 34.6469 63.5532ZM97.0364 65.8442H98.0884C98.0554 66.2062 97.9404 66.4952 97.7484 66.7132C97.5544 66.9312 97.2654 67.0402 96.8814 67.0402C96.5014 67.0402 96.1974 66.9112 95.9684 66.6522C95.7394 66.3942 95.6254 66.0342 95.6254 65.5732C95.6254 65.1122 95.7404 64.7502 95.9744 64.4882C96.2064 64.2262 96.5254 64.0952 96.9314 64.0952C97.2044 64.0952 97.4284 64.1542 97.6004 64.2732C97.7744 64.3912 97.8904 64.5532 97.9494 64.7602H98.6134C98.5244 64.3822 98.3334 64.0882 98.0384 63.8732C97.7424 63.6592 97.3734 63.5532 96.9314 63.5532C96.5394 63.5532 96.2014 63.6392 95.9154 63.8092C95.6294 63.9822 95.4094 64.2192 95.2544 64.5212C95.0984 64.8232 95.0214 65.1732 95.0214 65.5672C95.0214 65.9672 95.0974 66.3152 95.2484 66.6152C95.3994 66.9122 95.6114 67.1462 95.8854 67.3112C96.1584 67.4782 96.4764 67.5612 96.8424 67.5612C97.1554 67.5612 97.4114 67.5052 97.6064 67.3942C97.8024 67.2832 97.9644 67.1262 98.0944 66.9242L98.1434 67.4942H98.6804V65.3912H97.0364V65.8442ZM104.477 67.4946H105.064V63.6196H104.477V67.4946ZM109.432 66.5366L107.489 63.6196H106.902V67.4946H107.489V64.5766L109.432 67.4946H110.019V63.6196H109.432V66.5366ZM114.32 67.4946H111.856V63.6196H114.32V64.0956H112.443V65.3026H114.154V65.7666H112.443V67.0176H114.32V67.4946ZM120.981 65.2796H119.104V63.6196H118.517V67.4946H119.104V65.7606H120.981V67.4946H121.568V63.6196H120.981V65.2796ZM125.868 67.4946H123.404V63.6196H125.868V64.0956H123.991V65.3026H125.702V65.7666H123.991V67.0176H125.868V67.4946ZM128.918 65.4898H128.204V64.1118H128.913C129.187 64.1118 129.383 64.1738 129.505 64.2978C129.627 64.4218 129.689 64.5868 129.689 64.7938C129.689 64.9998 129.626 65.1678 129.503 65.2968C129.379 65.4258 129.185 65.4898 128.918 65.4898ZM130.101 65.4296C130.229 65.2336 130.292 65.0156 130.292 64.7766C130.292 64.5606 130.243 64.3676 130.147 64.1916C130.052 64.0156 129.904 63.8776 129.708 63.7736C129.51 63.6706 129.258 63.6196 128.952 63.6196H127.617V67.4946H128.204V65.9326H128.897L129.649 67.4946H130.331L129.505 65.8496C129.774 65.7656 129.973 65.6256 130.101 65.4296ZM134.499 67.4946H132.035V63.6196H134.499V64.0956H132.622V65.3026H134.333V65.7666H132.622V67.0176H134.499V67.4946ZM100.447 63.6196H101.034V67.0296H102.795V67.4946H100.447V63.6196ZM62.3934 66.1986L61.0814 63.6196H60.3884V67.4946H60.9754V64.6376L62.1654 66.9406H62.6194L63.8044 64.6326V67.4946H64.3914V63.6196H63.7004L62.3934 66.1986ZM67.5587 65.4516C67.8357 65.4516 68.0346 65.3906 68.1537 65.2716C68.2727 65.1506 68.3336 64.9886 68.3336 64.7816C68.3336 64.5666 68.2727 64.4006 68.1537 64.2806C68.0346 64.1606 67.8357 64.1006 67.5587 64.1006H66.8167V65.4516H67.5587ZM67.5866 63.6196C67.8886 63.6196 68.1396 63.6686 68.3396 63.7706C68.5376 63.8736 68.6866 64.0096 68.7846 64.1866C68.8826 64.3616 68.9316 64.5596 68.9316 64.7816C68.9316 64.9916 68.8846 65.1836 68.7906 65.3606C68.6956 65.5356 68.5496 65.6746 68.3506 65.7776C68.1506 65.8796 67.8956 65.9326 67.5866 65.9326H66.8166V67.4946H66.2296V63.6196H67.5866ZM70.9852 66.0814L71.6102 64.3164L72.2362 66.0814H70.9852ZM71.2942 63.6196L69.8672 67.4946H70.4872L70.8182 66.5486H72.4022L72.7352 67.4946H73.3552L71.9372 63.6196H71.2942ZM75.5338 63.6196L77.4778 66.5366V63.6196H78.0648V67.4946H77.4778L75.5338 64.5766V67.4946H74.9478V63.6196H75.5338ZM81.1819 65.4896L80.2689 63.6196H79.6049L80.8899 66.0646V67.4946H81.4759V66.0646L82.7479 63.6196H82.0909L81.1819 65.4896ZM87.6423 64.0951H86.4963V63.6191H89.3703V64.0951H88.2293V67.4941H87.6423V64.0951ZM91.4174 66.0814L92.0434 64.3164L92.6694 66.0814H91.4174ZM91.7273 63.6196L90.2993 67.4946H90.9193L91.2513 66.5486H92.8343L93.1673 67.4946H93.7873L92.3693 63.6196H91.7273ZM43.6085 65.4898H44.3235C44.5895 65.4898 44.7835 65.4258 44.9075 65.2968C45.0315 65.1678 45.0935 64.9998 45.0935 64.7938C45.0935 64.5868 45.0325 64.4218 44.9105 64.2978C44.7885 64.1738 44.5915 64.1118 44.3175 64.1118H43.6085V65.4898ZM45.6965 64.7766C45.6965 65.0156 45.6335 65.2336 45.5055 65.4296C45.3775 65.6256 45.1795 65.7656 44.9105 65.8496L45.7355 67.4946H45.0545L44.3015 65.9326H43.6085V67.4946H43.0215V63.6196H44.3565C44.6635 63.6196 44.9145 63.6706 45.1125 63.7736C45.3095 63.8776 45.4565 64.0156 45.5525 64.1916C45.6485 64.3676 45.6965 64.5606 45.6965 64.7766ZM51.6081 64.0787C51.8931 64.0787 52.1201 64.1447 52.2891 64.2787C52.4591 64.4107 52.5691 64.5897 52.6221 64.8147H53.2741C53.1981 64.4157 53.0151 64.1057 52.7261 63.8847C52.4391 63.6637 52.0681 63.5537 51.6131 63.5537C51.2311 63.5537 50.8991 63.6377 50.6201 63.8077C50.3411 63.9767 50.1271 64.2117 49.9751 64.5137C49.8241 64.8137 49.7491 65.1637 49.7491 65.5617C49.7491 65.9577 49.8241 66.3057 49.9751 66.6057C50.1271 66.9057 50.3411 67.1407 50.6201 67.3077C50.8991 67.4757 51.2311 67.5607 51.6131 67.5607C52.0681 67.5607 52.4391 67.4517 52.7261 67.2337C53.0151 67.0167 53.1981 66.7167 53.2741 66.3317H52.6221C52.5691 66.5497 52.4591 66.7217 52.2891 66.8467C52.1201 66.9727 51.8931 67.0347 51.6081 67.0347C51.2211 67.0347 50.9141 66.9027 50.6901 66.6417C50.4651 66.3807 50.3531 66.0197 50.3531 65.5617C50.3531 65.1007 50.4651 64.7377 50.6901 64.4747C50.9141 64.2107 51.2211 64.0787 51.6081 64.0787ZM57.4572 66.8581C57.6542 66.7401 57.8082 66.5711 57.9192 66.3481C58.0302 66.1261 58.0862 65.8631 58.0862 65.5561C58.0862 65.2501 58.0302 64.9861 57.9192 64.7651C57.8082 64.5431 57.6542 64.3741 57.4572 64.2561C57.2602 64.1381 57.0282 64.0781 56.7622 64.0781C56.4972 64.0781 56.2642 64.1381 56.0642 64.2561C55.8662 64.3741 55.7122 64.5431 55.6022 64.7651C55.4942 64.9861 55.4402 65.2501 55.4402 65.5561C55.4402 65.8631 55.4942 66.1261 55.6022 66.3481C55.7122 66.5711 55.8662 66.7401 56.0642 66.8581C56.2642 66.9751 56.4972 67.0351 56.7622 67.0351C57.0282 67.0351 57.2602 66.9751 57.4572 66.8581ZM56.7622 63.5532C57.1462 63.5532 57.4822 63.6372 57.7692 63.8072C58.0582 63.9772 58.2822 64.2112 58.4422 64.5132C58.6032 64.8142 58.6842 65.1622 58.6842 65.5562C58.6842 65.9522 58.6032 66.2992 58.4422 66.6012C58.2822 66.9012 58.0582 67.1362 57.7692 67.3052C57.4822 67.4762 57.1462 67.5612 56.7622 67.5612C56.3792 67.5612 56.0422 67.4762 55.7552 67.3052C55.4662 67.1362 55.2412 66.9012 55.0792 66.6012C54.9172 66.2992 54.8362 65.9522 54.8362 65.5562C54.8362 65.1622 54.9172 64.8142 55.0792 64.5132C55.2412 64.2112 55.4662 63.9772 55.7552 63.8072C56.0422 63.6372 56.3792 63.5532 56.7622 63.5532ZM40.6301 66.0441C40.6301 66.3831 40.5491 66.6321 40.3871 66.7901C40.2251 66.9501 40.0071 67.0291 39.7341 67.0291C39.4561 67.0291 39.2371 66.9501 39.0751 66.7901C38.9131 66.6321 38.8311 66.3831 38.8311 66.0441V63.6191H38.2441V66.0381C38.2441 66.3861 38.3111 66.6711 38.4411 66.8961C38.5711 67.1211 38.7491 67.2881 38.9721 67.3971C39.1951 67.5061 39.4451 67.5611 39.7231 67.5611C39.9961 67.5611 40.2461 67.5061 40.4721 67.3971C40.6991 67.2881 40.8801 67.1211 41.0161 66.8961C41.1511 66.6711 41.2171 66.3861 41.2171 66.0381V63.6191H40.6301V66.0441ZM88.8243 35.0248C89.4513 35.6998 89.8853 36.4898 90.1253 37.3928C90.3673 38.2968 90.4863 39.5208 90.4863 41.0628C90.4863 42.2198 90.4203 43.1958 90.2893 43.9918C90.1563 44.7868 89.8733 45.5348 89.4393 46.2328C88.9343 47.0768 88.2583 47.7338 87.4143 48.2038C86.5703 48.6728 85.4613 48.9088 84.0883 48.9088H82.2083V58.9588H78.5203V33.2168H84.0513C85.0643 33.2168 85.9553 33.3498 86.7273 33.6148C87.4983 33.8798 88.1973 34.3508 88.8243 35.0248ZM96.3459 33.2173L90.5959 58.9593H94.2829L95.3689 53.4283H100.395L101.479 58.9593H105.166L99.4179 33.2173H96.3459ZM116.375 33.2173H120.063V58.9593H116.592L110.952 43.4853H110.879V58.9593H107.192V33.2173H110.735L116.303 48.7283H116.375V33.2173ZM132.03 33.2173L129.065 43.4483H128.993L126.028 33.2173H122.124L127.184 48.0763V58.9593H130.872V48.0763L135.934 33.2173H132.03ZM29.1 63.6196L30.013 65.4896L30.922 63.6196H31.579L30.307 66.0646V67.4946H29.721V66.0646L28.436 63.6196H29.1Z" fill="#9A9AB0"/>
</g>
</svg>
